<svg width="428" height="656" viewBox="0 0 428 656" fill="none" xmlns="http://www.w3.org/2000/svg">
<path d="M268.627 242.277C271.227 168.083 213.255 105.832 139.142 103.236C65.0291 100.641 2.84098 158.683 0.24089 232.877C-2.3592 307.071 55.6134 369.322 129.726 371.918C203.839 374.514 266.027 316.472 268.627 242.277Z" fill="#FF6B00"/>
<path d="M268.627 242.277C271.227 168.083 213.255 105.832 139.142 103.236C65.0291 100.641 2.84098 158.683 0.24089 232.877C-2.3592 307.071 55.6134 369.322 129.726 371.918C203.839 374.514 266.027 316.472 268.627 242.277Z" fill="url(#paint0_radial_47_2577)"/>
<path d="M268.627 242.277C271.227 168.083 213.255 105.832 139.142 103.236C65.0291 100.641 2.84098 158.683 0.24089 232.877C-2.3592 307.071 55.6134 369.322 129.726 371.918C203.839 374.514 266.027 316.472 268.627 242.277Z" fill="url(#paint1_radial_47_2577)"/>
<path d="M134.643 371.931C132.661 371.931 130.686 371.89 128.695 371.804C111.048 371.042 93.7245 366.813 77.7129 359.358C61.7013 351.903 47.3154 341.368 35.3765 328.354C23.4377 315.34 14.1798 300.103 8.13136 283.512C2.08298 266.922 -0.637412 249.302 0.125534 231.661C3.32481 157.588 66.2441 99.9427 140.306 103.126C214.398 106.324 272.074 169.193 268.875 243.269C267.38 277.869 252.589 310.559 227.583 334.528C202.577 358.496 169.285 371.894 134.643 371.931V371.931ZM134.428 103.617C63.236 103.617 3.8445 159.906 0.74469 231.687C-0.787907 267.152 11.8342 301.773 35.8343 327.934C59.8344 354.094 93.2466 369.652 128.721 371.185C164.195 372.717 198.825 360.099 224.993 336.105C251.161 312.111 266.723 278.708 268.256 243.243C271.444 169.508 214.031 106.928 140.28 103.745C138.326 103.658 136.368 103.617 134.428 103.617Z" fill="black"/>
<path d="M264.465 271.241L264.419 271.239C264.338 271.226 264.265 271.182 264.216 271.116C264.168 271.05 264.147 270.967 264.16 270.886C264.258 270.241 264.37 269.559 264.486 268.839C265.244 264.205 266.279 257.86 265.878 249.507C264.025 211.171 242.617 170.714 210.009 143.912C187.348 125.288 165.595 112.027 133.089 107.844C119.182 106.052 107.802 106.359 97.2752 108.804C97.2357 108.814 97.1946 108.817 97.1541 108.811C97.1137 108.805 97.075 108.791 97.0402 108.77C97.0054 108.748 96.9754 108.72 96.9519 108.686C96.9285 108.653 96.9121 108.615 96.9038 108.575C96.8939 108.536 96.892 108.495 96.8983 108.455C96.9045 108.415 96.9186 108.376 96.9399 108.341C96.9612 108.307 96.9892 108.277 97.0223 108.253C97.0553 108.23 97.0928 108.213 97.1324 108.204C107.735 105.74 119.19 105.433 133.168 107.229C165.824 111.432 187.66 124.743 210.403 143.435C243.141 170.341 264.632 210.975 266.492 249.476C266.901 257.893 265.858 264.275 265.098 268.936C264.981 269.656 264.869 270.338 264.771 270.979C264.759 271.052 264.722 271.118 264.666 271.166C264.61 271.214 264.538 271.241 264.465 271.241Z" fill="black"/>
<path d="M268.627 233.326C268.549 233.325 268.474 233.295 268.417 233.242C268.36 233.188 268.325 233.115 268.32 233.037C266.039 198.807 248.761 165.155 220.909 140.708C206.71 128.241 177.714 106.876 143.047 103.835C143.006 103.833 142.966 103.822 142.928 103.804C142.891 103.786 142.858 103.76 142.831 103.729C142.804 103.697 142.783 103.661 142.771 103.621C142.758 103.582 142.753 103.54 142.757 103.499C142.761 103.457 142.773 103.417 142.792 103.381C142.812 103.344 142.839 103.312 142.871 103.286C142.904 103.26 142.941 103.241 142.981 103.23C143.021 103.218 143.062 103.215 143.104 103.22C177.943 106.276 207.062 127.728 221.318 140.242C249.289 164.794 266.646 198.6 268.934 232.995C268.937 233.036 268.932 233.077 268.919 233.115C268.906 233.154 268.885 233.189 268.858 233.22C268.832 233.251 268.799 233.276 268.763 233.294C268.726 233.312 268.686 233.323 268.646 233.325L268.627 233.326Z" fill="black"/>
<path d="M248.382 308.729C248.328 308.728 248.275 308.713 248.229 308.684C248.193 308.664 248.162 308.637 248.137 308.605C248.112 308.573 248.094 308.536 248.084 308.497C248.073 308.458 248.071 308.417 248.076 308.377C248.082 308.337 248.095 308.298 248.116 308.264C248.209 308.098 257.676 291.518 257.635 265.605C257.594 241.682 249.215 204.686 209.515 164.266C171.654 125.721 134.531 116.46 110.056 115.477C83.5514 114.413 65.7438 122.571 65.5673 122.653C65.4925 122.687 65.4076 122.69 65.3305 122.662C65.2535 122.634 65.1905 122.577 65.1548 122.503C65.1201 122.429 65.1164 122.343 65.1445 122.266C65.1727 122.189 65.2303 122.126 65.3049 122.091C65.481 122.008 83.3936 113.786 110.049 114.858C134.641 115.84 171.937 125.132 209.952 163.834C249.816 204.416 258.221 241.597 258.254 265.643C258.288 291.713 248.746 308.406 248.649 308.575C248.622 308.622 248.583 308.66 248.536 308.687C248.489 308.714 248.436 308.729 248.382 308.729Z" fill="black"/>
<path d="M226.033 335.816C225.959 335.816 225.887 335.791 225.83 335.745C225.768 335.69 225.73 335.613 225.724 335.531C225.718 335.448 225.746 335.367 225.8 335.304C242.107 316.44 247.774 291.123 242.182 262.083C233.256 215.718 197.716 170.352 151.644 146.509C112.012 126.002 82.1354 127.768 64.0467 132.859C44.454 138.378 34.091 148.881 33.9882 148.986C33.9315 149.045 33.8536 149.079 33.7717 149.081C33.6897 149.083 33.6104 149.052 33.5513 148.995C33.4921 148.939 33.4578 148.861 33.4561 148.779C33.4543 148.697 33.4852 148.618 33.5419 148.559C33.6469 148.448 44.1035 137.845 63.8427 132.274C82.0404 127.145 112.097 125.349 151.924 145.96C174.954 157.877 195.743 175.369 212.054 196.543C227.878 217.083 238.503 239.707 242.79 261.968C248.42 291.2 242.704 316.7 226.269 335.711C226.239 335.744 226.203 335.771 226.162 335.789C226.121 335.807 226.077 335.816 226.033 335.816Z" fill="black"/>
<path d="M192.885 358.538C192.819 358.538 192.754 358.517 192.7 358.477C192.647 358.438 192.608 358.382 192.589 358.318C192.57 358.254 192.572 358.186 192.595 358.124C192.618 358.061 192.661 358.008 192.716 357.972C225.009 336.888 228.013 305.452 224.844 282.79C217.309 228.846 167.768 171.489 114.409 154.934C72.429 141.905 46.5728 150.895 32.2717 160.734C16.7968 171.383 11.1598 185.264 11.1037 185.399C11.09 185.438 11.0685 185.474 11.0406 185.504C11.0127 185.535 10.9789 185.559 10.9412 185.577C10.9036 185.594 10.8628 185.603 10.8214 185.605C10.78 185.606 10.7388 185.598 10.7003 185.583C10.6617 185.568 10.6266 185.546 10.597 185.517C10.5674 185.488 10.544 185.453 10.5281 185.415C10.5122 185.376 10.5042 185.335 10.5045 185.294C10.5049 185.253 10.5135 185.212 10.53 185.174C10.5862 185.031 16.2922 170.978 31.923 160.223C46.3327 150.309 72.3728 141.239 114.593 154.34C168.158 170.961 217.89 228.544 225.459 282.702C227.619 298.18 226.198 312.38 221.232 324.904C215.837 338.503 206.357 349.8 193.054 358.485C193.005 358.52 192.946 358.538 192.885 358.538Z" fill="black"/>
<path d="M159.398 369.573C159.325 369.573 159.254 369.547 159.198 369.5C159.142 369.453 159.105 369.388 159.093 369.316C159.08 369.244 159.094 369.169 159.132 369.107C159.169 369.044 159.228 368.996 159.297 368.973C188.567 358.811 204.352 336.198 203.749 305.298C202.82 257.99 161.482 195.074 101.413 176.816C71.63 167.76 47.3828 168.878 29.3465 180.134C6.13284 194.619 1.60717 221.248 1.5624 221.518C1.54897 221.599 1.50387 221.671 1.43704 221.719C1.37021 221.767 1.28711 221.786 1.20603 221.773C1.12494 221.76 1.05252 221.714 1.00468 221.648C0.956846 221.581 0.937518 221.498 0.95095 221.417C0.996093 221.147 5.5603 194.251 29.0126 179.613C47.2066 168.256 71.6263 167.112 101.593 176.223C128.845 184.506 154.659 203.089 174.279 228.546C192.919 252.726 203.885 280.699 204.365 305.284C204.973 336.477 189.041 359.304 159.497 369.559C159.465 369.569 159.432 369.573 159.398 369.573Z" fill="black"/>
<path d="M120.301 370.075C116.245 370.068 112.194 369.805 108.172 369.288C108.132 369.283 108.093 369.27 108.058 369.249C108.023 369.229 107.992 369.202 107.967 369.17C107.943 369.138 107.924 369.102 107.914 369.063C107.903 369.024 107.901 368.983 107.906 368.943C107.918 368.863 107.961 368.79 108.025 368.741C108.089 368.691 108.17 368.668 108.251 368.676C133.241 371.83 153.899 365.362 166.423 350.45C179.66 334.683 182.358 311.132 174.008 284.143C164.587 253.678 139.146 224.519 107.615 208.049C83.8101 195.611 59.8852 192.204 40.2473 198.447C15.6569 206.269 7.08708 224.476 4.22657 238.376C1.12125 253.46 3.87387 266.861 3.90029 266.993C3.91007 267.033 3.91167 267.074 3.90502 267.115C3.89836 267.156 3.88358 267.195 3.86155 267.23C3.83952 267.265 3.8107 267.295 3.77678 267.319C3.74286 267.342 3.70454 267.359 3.66409 267.368C3.62365 267.376 3.5819 267.376 3.54133 267.368C3.50076 267.361 3.46219 267.345 3.42791 267.321C3.39363 267.298 3.36434 267.269 3.34177 267.234C3.31921 267.199 3.30383 267.161 3.29655 267.12C3.26645 266.985 0.487414 253.46 3.61915 238.252C6.51454 224.192 15.186 205.77 40.0638 197.858C59.8591 191.567 83.9525 194.986 107.908 207.498C139.577 224.046 165.133 253.34 174.603 283.959C183.016 311.158 180.278 334.912 166.896 350.848C156.329 363.431 140.048 370.075 120.301 370.075Z" fill="black"/>
<path d="M105.584 363.09C86.0882 363.09 64.8083 353.734 45.1322 336.412C11.2934 306.622 -0.0917412 261.26 20.2622 237.36C28.2807 227.942 39.6861 222.482 53.2444 221.567C74.3074 220.153 98.8548 230.011 118.898 247.968C151.989 277.608 163.2 322.659 143.385 346.344C135.175 356.153 123.665 361.886 110.097 362.917C108.603 363.034 107.099 363.091 105.584 363.09ZM45.54 335.947C66.618 354.507 89.5341 363.863 110.046 362.303C123.447 361.283 134.811 355.629 142.908 345.947C162.516 322.513 151.332 277.856 118.484 248.429C98.5612 230.585 74.194 220.772 53.2848 222.182C39.899 223.09 28.64 228.474 20.7338 237.762C0.594578 261.411 11.9515 306.375 45.5411 335.947H45.54Z" fill="black"/>
<path d="M91.3806 350.473C77.3874 350.473 62.1294 343.772 48.0361 331.361C23.7551 309.981 15.6239 277.375 30.2883 260.161C36.0791 253.359 44.3116 249.414 54.0929 248.755C69.2114 247.731 86.8204 254.802 101.177 267.664C124.923 288.939 132.924 321.324 118.651 338.38C112.722 345.467 104.414 349.603 94.6253 350.349C93.5522 350.431 92.468 350.473 91.3806 350.473ZM57.0144 249.277C56.0467 249.277 55.0865 249.308 54.134 249.37C44.5252 250.019 36.4388 253.892 30.7552 260.561C16.3094 277.525 24.4106 309.734 48.4442 330.896C63.5102 344.162 79.8974 350.856 94.578 349.734C104.194 349.003 112.355 344.938 118.173 337.983C132.241 321.173 124.267 289.183 100.763 268.125C87.4348 256.182 71.3001 249.276 57.0144 249.276V249.277Z" fill="black"/>
<path d="M79.3021 332.858C71.4898 332.858 62.9648 329.112 55.0886 322.175C41.5304 310.24 36.9808 292.048 45.1572 282.445C48.3869 278.654 52.9746 276.457 58.4303 276.09C66.8764 275.52 76.7077 279.468 84.7291 286.657C97.9872 298.535 102.466 316.605 94.5068 326.117C91.2037 330.065 86.5745 332.371 81.1137 332.788C80.5187 332.835 79.9113 332.858 79.3021 332.858ZM60.0631 276.652C59.5269 276.652 58.9988 276.667 58.4729 276.704C53.1879 277.06 48.747 279.186 45.631 282.846C37.6668 292.194 42.188 309.993 55.4986 321.714C63.8621 329.074 72.9318 332.798 81.07 332.171C86.3583 331.768 90.8403 329.535 94.0355 325.718C101.784 316.457 97.3361 298.778 84.3177 287.117C76.9165 280.487 67.9694 276.652 60.0631 276.652Z" fill="black"/>
<path d="M363.62 469.34C318.675 432.944 252.736 439.875 216.34 484.82C179.944 529.765 186.875 595.704 231.82 632.1C276.765 668.496 342.704 661.565 379.1 616.62C415.496 571.675 408.565 505.736 363.62 469.34Z" fill="#0006F6"/>
<path d="M363.62 469.34C318.675 432.944 252.736 439.875 216.34 484.82C179.944 529.765 186.875 595.704 231.82 632.1C276.765 668.496 342.704 661.565 379.1 616.62C415.496 571.675 408.565 505.736 363.62 469.34Z" fill="url(#paint2_radial_47_2577)"/>
<path d="M363.62 469.34C318.675 432.944 252.736 439.875 216.34 484.82C179.944 529.765 186.875 595.704 231.82 632.1C276.765 668.496 342.704 661.565 379.1 616.62C415.496 571.675 408.565 505.736 363.62 469.34Z" fill="url(#paint3_radial_47_2577)"/>
<path d="M297.852 655.651C297.466 655.651 297.087 655.651 296.7 655.647C275.978 655.423 255.787 649.06 238.681 637.362C221.575 625.664 208.321 609.157 200.596 589.927C192.871 570.697 191.021 549.609 195.28 529.328C199.539 509.047 209.716 490.484 224.524 475.986C239.334 461.49 258.111 451.71 278.479 447.885C298.847 444.06 319.892 446.36 338.953 454.495C358.014 462.63 374.234 476.235 385.563 493.589C396.892 510.942 402.821 531.266 402.6 551.989C402.305 579.578 391.14 605.938 371.529 625.346C351.918 644.754 325.443 655.643 297.852 655.651ZM297.789 446.698C277.283 446.705 257.236 452.763 240.159 464.114C223.082 475.465 209.734 491.603 201.789 510.507C193.843 529.41 191.654 550.238 195.494 570.381C199.334 590.523 209.033 609.084 223.376 623.739C232.923 633.545 244.32 641.36 256.907 646.732C269.494 652.105 283.022 654.927 296.708 655.036C297.091 655.039 297.473 655.043 297.852 655.043C318.358 655.037 338.405 648.979 355.483 637.629C372.561 626.278 385.909 610.14 393.854 591.236C401.8 572.333 403.989 551.505 400.149 531.362C396.309 511.219 386.609 492.658 372.265 478.004C362.719 468.197 351.323 460.382 338.736 455.01C326.149 449.638 312.622 446.816 298.937 446.707C298.556 446.699 298.172 446.699 297.789 446.699L297.789 446.698Z" fill="black"/>
<path d="M296.895 642.195H296.843C295.327 642.18 294.189 641.515 294.198 640.649C294.205 640.203 294.509 639.806 295.067 639.527C295.637 639.277 296.253 639.152 296.875 639.159C297.497 639.166 298.111 639.305 298.675 639.568C299.22 639.859 299.522 640.263 299.518 640.705C299.508 641.558 298.385 642.195 296.895 642.195ZM296.823 639.772C296.313 639.76 295.807 639.864 295.344 640.077C295.009 640.244 294.816 640.456 294.813 640.656C294.809 641.084 295.678 641.57 296.849 641.581C298.038 641.596 298.904 641.124 298.907 640.697C298.911 640.5 298.721 640.285 298.391 640.11C297.917 639.882 297.397 639.766 296.871 639.772L296.823 639.772Z" fill="black"/>
<path d="M296.859 640.994C296.831 640.994 296.802 640.991 296.774 640.983C296.462 640.894 265.468 631.602 260.101 594.229C254.512 555.308 278.028 513.901 292.545 492.681C300.82 480.586 310.243 470.335 317.125 462.848C322.583 456.907 326.896 452.217 326.48 450.884C326.447 450.783 326.365 450.639 326.019 450.56C325.94 450.543 325.872 450.495 325.828 450.427C325.784 450.359 325.769 450.276 325.785 450.197C325.804 450.118 325.853 450.049 325.921 450.005C325.99 449.961 326.073 449.946 326.153 449.963C326.358 449.99 326.552 450.073 326.712 450.204C326.873 450.334 326.994 450.507 327.062 450.702C327.564 452.3 324.335 455.908 317.572 463.265C310.705 470.737 301.297 480.966 293.049 493.027C278.586 514.172 255.147 555.427 260.71 594.14C265.255 625.787 288.321 637.074 295.083 639.731C290.033 635.559 275.271 620.358 281.666 589.403C288.533 556.17 310.354 525.75 326.287 503.535C328.22 500.844 330.078 498.255 331.831 495.769C344.765 477.451 350.736 468.221 349.614 462.793C349.272 461.147 348.243 459.817 346.463 458.732C346.394 458.688 346.345 458.62 346.326 458.54C346.308 458.461 346.321 458.378 346.363 458.308C346.384 458.274 346.411 458.244 346.444 458.22C346.476 458.197 346.513 458.18 346.552 458.17C346.591 458.161 346.631 458.159 346.671 458.166C346.711 458.172 346.749 458.186 346.783 458.208C348.715 459.389 349.837 460.846 350.212 462.666C351.383 468.333 345.367 477.655 332.333 496.122C330.575 498.608 328.717 501.201 326.785 503.895C310.882 526.064 289.105 556.419 282.266 589.529C274.735 625.976 296.798 640.288 297.021 640.43C297.084 640.469 297.13 640.529 297.151 640.599C297.172 640.67 297.167 640.746 297.137 640.813C297.113 640.867 297.075 640.913 297.025 640.945C296.976 640.978 296.918 640.995 296.859 640.994Z" fill="black"/>
<path d="M291.905 641.242C281.237 641.242 255.472 638.403 234.186 613.605C202.291 576.452 216.233 527.071 223.704 507.564C235.91 475.713 265.68 450.027 284.767 446.888C284.847 446.876 284.928 446.896 284.994 446.943C285.06 446.99 285.105 447.061 285.12 447.14C285.132 447.221 285.113 447.303 285.066 447.369C285.018 447.435 284.947 447.479 284.867 447.493C275.199 449.084 263.071 456.363 251.59 467.461C239.436 479.218 229.734 493.538 224.276 507.784C216.841 527.188 202.969 576.301 234.651 613.205C257.253 639.534 284.893 640.92 293.863 640.596C284.838 639.076 257.565 632.114 243.759 602.448C227.221 566.915 238.546 524.579 254.661 496.805C270.922 468.769 295.409 447.798 307.209 446.508C307.249 446.504 307.29 446.508 307.328 446.519C307.367 446.53 307.403 446.549 307.435 446.574C307.466 446.599 307.492 446.63 307.511 446.666C307.531 446.701 307.543 446.74 307.547 446.78C307.552 446.82 307.548 446.86 307.537 446.899C307.526 446.938 307.507 446.974 307.482 447.005C307.457 447.036 307.426 447.063 307.39 447.082C307.355 447.101 307.316 447.113 307.276 447.118C295.641 448.389 270.896 470.04 255.19 497.108C239.154 524.749 227.873 566.869 244.311 602.186C260.774 637.556 296.519 640.358 296.879 640.38C296.955 640.385 297.027 640.419 297.079 640.474C297.132 640.529 297.163 640.601 297.166 640.677C297.168 640.752 297.142 640.826 297.093 640.883C297.045 640.941 296.976 640.979 296.902 640.989C295.243 641.175 293.574 641.26 291.905 641.242Z" fill="black"/>
<path d="M273.064 647.147H272.678C259.045 647.043 237.959 641.376 214.91 614.954C214.857 614.892 214.83 614.812 214.835 614.73C214.841 614.648 214.879 614.572 214.94 614.518C214.971 614.491 215.006 614.47 215.045 614.457C215.083 614.444 215.124 614.439 215.165 614.441C215.205 614.444 215.245 614.455 215.281 614.473C215.318 614.492 215.35 614.517 215.376 614.548C238.272 640.8 259.176 646.432 272.683 646.532H273.065C283.503 646.532 291.179 643.355 294.646 641.587C285.442 643.598 275.929 643.755 266.663 642.048C250.887 639.161 228.336 629.311 210.494 598.783C210.424 598.668 202.725 586.243 199.826 566.568C197.155 548.417 198.132 520.193 217.966 488.811C233.322 464.515 256.697 454.464 256.931 454.364C257.005 454.336 257.088 454.337 257.161 454.368C257.234 454.4 257.292 454.458 257.323 454.531C257.354 454.605 257.355 454.687 257.326 454.761C257.297 454.835 257.241 454.895 257.169 454.929C256.938 455.029 233.734 465.009 218.482 489.143C198.752 520.362 197.774 548.43 200.431 566.481C203.311 586.029 210.939 598.346 211.017 598.465C228.741 628.79 251.105 638.57 266.744 641.443C283.695 644.549 296.636 640.436 296.763 640.395C296.834 640.373 296.91 640.377 296.978 640.406C297.046 640.435 297.102 640.488 297.134 640.555C297.167 640.621 297.174 640.696 297.155 640.767C297.136 640.838 297.091 640.9 297.03 640.941C296.938 641.004 287.633 647.147 273.064 647.147Z" fill="black"/>
<path d="M286.408 654.947C285.855 654.946 285.303 654.913 284.754 654.847C284.676 654.835 284.604 654.793 284.556 654.73C284.507 654.667 284.485 654.587 284.494 654.508C284.504 654.429 284.543 654.356 284.605 654.306C284.667 654.255 284.746 654.231 284.825 654.237C287.972 654.605 290.551 653.899 292.49 652.138C295.734 649.184 296.392 643.99 296.522 641.76C293.917 645.402 282.641 658.001 257.307 647.534C257.232 647.503 257.173 647.443 257.142 647.368C257.11 647.294 257.11 647.209 257.14 647.134C257.173 647.061 257.232 647.002 257.307 646.971C257.381 646.94 257.464 646.939 257.54 646.967C286.228 658.827 296.491 640.728 296.59 640.542C296.623 640.484 296.674 640.437 296.736 640.411C296.798 640.384 296.867 640.378 296.932 640.394C296.997 640.41 297.056 640.447 297.098 640.499C297.14 640.552 297.164 640.616 297.166 640.684C297.17 641.003 297.296 648.587 292.901 652.589C291.183 654.156 289.002 654.947 286.408 654.947Z" fill="black"/>
<path d="M304.327 655.456C304.248 655.455 304.173 655.424 304.116 655.369C304.06 655.315 304.027 655.24 304.023 655.162C304.02 655.083 304.047 655.006 304.098 654.947C304.15 654.888 304.222 654.85 304.3 654.843C305.025 654.776 305.452 654.531 305.612 654.092C305.712 653.761 305.721 653.41 305.638 653.074C304.651 652.661 303.715 652.134 302.851 651.502C297.43 647.56 296.587 641.002 296.553 640.727C296.546 640.663 296.558 640.599 296.589 640.542C296.619 640.486 296.667 640.44 296.724 640.411C296.783 640.385 296.847 640.377 296.91 640.389C296.973 640.4 297.032 640.43 297.077 640.475C297.991 641.392 305.004 648.534 306.14 652.621C309.272 653.862 313.062 654.059 317.457 653.193C317.537 653.18 317.619 653.197 317.686 653.242C317.753 653.287 317.8 653.356 317.818 653.435C317.833 653.514 317.816 653.597 317.771 653.664C317.726 653.732 317.656 653.779 317.576 653.795C313.233 654.649 309.447 654.493 306.281 653.331C306.324 653.657 306.292 653.988 306.188 654.3C305.943 654.977 305.326 655.367 304.356 655.456H304.327ZM297.349 641.63C297.798 643.599 299.221 648.11 303.216 651.011C303.904 651.509 304.638 651.941 305.408 652.3C304.256 649.254 299.872 644.257 297.349 641.63Z" fill="black"/>
<path d="M295.356 655.621H295.344C293.464 655.548 292.223 654.904 291.655 653.707C290.146 650.53 293.977 644.321 295.763 641.702L276.324 653.358C276.255 653.4 276.171 653.412 276.093 653.393C276.014 653.373 275.946 653.323 275.904 653.254C275.883 653.22 275.869 653.181 275.863 653.142C275.857 653.102 275.859 653.061 275.868 653.022C275.878 652.983 275.895 652.946 275.919 652.914C275.943 652.882 275.973 652.855 276.008 652.834L296.704 640.424C296.765 640.388 296.836 640.374 296.906 640.385C296.976 640.396 297.04 640.43 297.087 640.483C297.134 640.535 297.161 640.602 297.165 640.673C297.168 640.743 297.146 640.813 297.104 640.869C297.037 640.958 290.464 649.772 292.207 653.443C292.671 654.42 293.734 654.944 295.365 655.011C295.446 655.013 295.523 655.046 295.579 655.104C295.635 655.163 295.666 655.241 295.664 655.322C295.663 655.402 295.629 655.479 295.571 655.535C295.513 655.591 295.435 655.622 295.354 655.621H295.356Z" fill="black"/>
<path d="M261.735 647.68C258.972 647.68 256.667 647.364 255.144 646.598C255.108 646.581 255.076 646.556 255.049 646.526C255.023 646.495 255.003 646.46 254.991 646.422C254.978 646.384 254.973 646.344 254.977 646.304C254.98 646.264 254.991 646.225 255.01 646.19C255.028 646.154 255.052 646.122 255.083 646.095C255.113 646.069 255.148 646.049 255.186 646.036C255.224 646.023 255.264 646.018 255.304 646.021C255.344 646.024 255.383 646.034 255.419 646.052C262.174 649.448 285.872 643.41 294.009 641.173C283.542 641.764 248.058 643.139 236.183 635.619C236.114 635.575 236.065 635.506 236.047 635.427C236.029 635.347 236.043 635.264 236.086 635.195C236.13 635.126 236.199 635.077 236.278 635.059C236.358 635.041 236.441 635.055 236.51 635.098C250.031 643.667 296.369 640.419 296.837 640.382C296.913 640.376 296.988 640.399 297.049 640.445C297.109 640.492 297.15 640.559 297.163 640.634C297.177 640.709 297.162 640.786 297.122 640.85C297.082 640.915 297.019 640.963 296.946 640.984C295.834 641.311 274.164 647.68 261.735 647.68Z" fill="black"/>
<path d="M296.857 640.994C296.806 640.994 296.755 640.981 296.709 640.957C296.664 640.932 296.625 640.896 296.597 640.853C296.493 640.682 286.167 623.538 306.187 588.793C317.977 568.338 331.316 550.869 343.093 535.462C351.293 524.724 359.04 514.58 364.69 505.377C377.747 484.097 371.249 477.27 368.472 474.355L368.204 474.076C368.148 474.016 368.119 473.937 368.122 473.855C368.124 473.773 368.159 473.696 368.219 473.64C368.248 473.612 368.282 473.591 368.32 473.576C368.358 473.562 368.398 473.555 368.438 473.557C368.478 473.558 368.517 473.568 368.554 473.584C368.59 473.601 368.623 473.625 368.65 473.655L368.914 473.93C371.786 476.948 378.515 484.014 365.21 505.695C359.547 514.928 351.789 525.083 343.575 535.832C331.818 551.231 318.485 568.68 306.719 589.098C289.021 619.814 295.174 636.524 296.783 639.89C297.679 636.966 299.429 631.548 308.372 617.856C315.703 606.635 329.358 592.214 343.812 576.947C354.211 565.963 364.961 554.608 374.693 543.123C397.841 515.813 389.262 500.914 389.173 500.769C389.15 500.735 389.135 500.696 389.128 500.656C389.121 500.616 389.122 500.575 389.131 500.535C389.139 500.495 389.156 500.458 389.18 500.424C389.204 500.391 389.234 500.363 389.269 500.342C389.303 500.32 389.342 500.306 389.382 500.3C389.423 500.294 389.464 500.296 389.503 500.306C389.543 500.316 389.58 500.334 389.613 500.358C389.645 500.383 389.672 500.414 389.693 500.449C389.786 500.598 398.625 515.836 375.161 543.521C365.419 555.017 354.662 566.38 344.258 577.366C329.823 592.612 316.186 607.014 308.885 618.194C299.811 632.079 298.187 637.385 297.318 640.235L297.151 640.78C297.133 640.836 297.1 640.885 297.055 640.922C297.01 640.959 296.956 640.982 296.898 640.988L296.857 640.994Z" fill="black"/>
<path d="M296.861 640.992C296.81 640.992 296.76 640.98 296.716 640.956C296.671 640.932 296.633 640.897 296.605 640.855C296.569 640.797 296.552 640.73 296.557 640.662C296.563 640.595 296.59 640.531 296.635 640.48C299.54 637.262 312.798 626.932 329.581 613.853C342.995 603.401 358.196 591.556 372.556 579.904C404.641 553.876 400.87 535.394 400.829 535.212C400.811 535.133 400.824 535.05 400.867 534.982C400.91 534.913 400.979 534.864 401.057 534.846C401.136 534.828 401.219 534.841 401.288 534.884C401.356 534.927 401.405 534.996 401.423 535.074C401.468 535.26 405.362 554.08 372.943 580.379C358.578 592.035 343.37 603.884 329.957 614.336C314.622 626.286 302.235 635.939 298.043 639.929C301.603 638.592 312.405 634.341 327.965 626.382C331.436 624.606 335.192 622.778 339.172 620.842C364.602 608.461 396.251 593.056 400.383 569.213C400.39 569.173 400.404 569.135 400.425 569.101C400.447 569.067 400.475 569.037 400.508 569.014C400.54 568.991 400.578 568.975 400.617 568.966C400.656 568.957 400.697 568.957 400.736 568.964C400.816 568.978 400.887 569.023 400.934 569.089C400.981 569.155 400.999 569.237 400.986 569.317C396.8 593.473 364.994 608.952 339.439 621.392C335.463 623.328 331.71 625.156 328.244 626.928C309.052 636.745 297.081 640.936 296.962 640.977C296.929 640.988 296.895 640.993 296.861 640.992Z" fill="black"/>
<path d="M304.511 641.096C300.19 641.096 297.336 641.011 296.846 640.992C296.771 640.99 296.699 640.96 296.644 640.907C296.59 640.855 296.557 640.785 296.551 640.709C296.546 640.634 296.568 640.56 296.614 640.5C296.66 640.44 296.727 640.4 296.801 640.387C324.899 635.129 340.891 631.361 361.39 622.916C381.875 614.47 386.887 604.939 386.935 604.843C386.974 604.775 387.038 604.724 387.113 604.702C387.188 604.679 387.269 604.686 387.339 604.721C387.408 604.757 387.462 604.817 387.489 604.891C387.515 604.965 387.512 605.046 387.481 605.118C387.28 605.515 382.35 614.938 361.62 623.48C341.798 631.651 326.185 635.456 299.837 640.438C311.553 640.587 354.506 640.357 366.314 629.355C366.374 629.301 366.452 629.273 366.533 629.277C366.613 629.28 366.689 629.315 366.744 629.374C366.799 629.433 366.829 629.511 366.827 629.591C366.825 629.672 366.791 629.748 366.734 629.804C355.865 639.926 320.346 641.096 304.511 641.096Z" fill="black"/>
<path d="M320.187 650.578C303.742 650.578 296.705 640.996 296.611 640.862C296.576 640.811 296.556 640.751 296.555 640.69C296.555 640.628 296.573 640.567 296.608 640.516C296.641 640.464 296.691 640.423 296.749 640.401C296.807 640.378 296.871 640.374 296.931 640.39C297.291 640.476 333.144 648.906 343.707 644.336C343.744 644.319 343.784 644.31 343.825 644.309C343.865 644.308 343.906 644.314 343.944 644.329C343.982 644.343 344.016 644.365 344.046 644.393C344.075 644.421 344.099 644.455 344.115 644.492C344.131 644.53 344.14 644.57 344.141 644.61C344.141 644.651 344.134 644.691 344.119 644.729C344.103 644.767 344.081 644.801 344.052 644.83C344.024 644.859 343.99 644.882 343.952 644.897C343.689 645.013 343.41 645.115 343.116 645.217C343.112 645.272 343.092 645.325 343.059 645.37C343.026 645.414 342.982 645.449 342.93 645.47C333.924 649.215 326.386 650.578 320.187 650.578ZM297.674 641.189C300.405 644.247 313.206 656.1 340.163 645.911C327.823 647.84 302.809 642.368 297.674 641.189Z" fill="black"/>
<path d="M323.792 652.334C318.913 652.334 297.66 641.444 296.716 640.96C296.649 640.92 296.599 640.856 296.577 640.78C296.555 640.705 296.564 640.624 296.6 640.554C296.636 640.484 296.697 640.431 296.772 640.405C296.846 640.379 296.927 640.383 296.999 640.415C303.638 643.829 321.466 652.513 324.168 651.681C324.206 651.669 324.247 651.665 324.287 651.668C324.327 651.672 324.366 651.684 324.402 651.703C324.438 651.722 324.469 651.748 324.495 651.779C324.52 651.81 324.54 651.846 324.551 651.885C324.563 651.923 324.567 651.964 324.563 652.004C324.559 652.044 324.547 652.083 324.528 652.119C324.509 652.155 324.483 652.186 324.452 652.212C324.421 652.237 324.385 652.256 324.346 652.268C324.165 652.316 323.979 652.338 323.792 652.334Z" fill="black"/>
<path d="M320.268 646.395C306.535 646.395 296.763 641.037 296.651 640.974C296.588 640.938 296.539 640.881 296.513 640.812C296.488 640.743 296.488 640.668 296.514 640.599C296.54 640.531 296.589 640.474 296.653 640.438C296.717 640.403 296.791 640.391 296.863 640.406C319.718 645.214 340.8 639.507 361.315 622.961C381.595 606.601 391.471 579.343 392.257 559.586C393.089 538.782 392.249 516.02 372.486 486.757C353.248 458.264 328.892 451.403 328.647 451.336C328.571 451.313 328.506 451.261 328.468 451.191C328.429 451.122 328.419 451.04 328.44 450.963C328.461 450.886 328.51 450.82 328.579 450.779C328.647 450.739 328.729 450.726 328.806 450.745C329.051 450.812 353.619 457.723 372.996 486.414C392.86 515.829 393.707 538.704 392.871 559.612C392.076 579.505 382.13 606.956 361.701 623.436C341.744 639.533 321.249 645.445 299.122 641.472C307.853 645.176 317.405 646.519 326.819 645.366C343.197 643.252 366.227 633.079 381.736 610.867C392.567 595.354 395.484 586.228 397.734 577.488C400.053 568.485 402.397 557.379 400.852 539.47C399.28 521.286 389.798 502.105 389.701 501.916C389.681 501.88 389.668 501.84 389.663 501.799C389.658 501.758 389.662 501.716 389.674 501.676C389.686 501.636 389.706 501.6 389.733 501.568C389.759 501.536 389.792 501.51 389.829 501.491C389.866 501.473 389.907 501.462 389.948 501.459C389.99 501.457 390.031 501.463 390.07 501.477C390.109 501.491 390.145 501.512 390.175 501.541C390.206 501.569 390.23 501.603 390.247 501.641C390.343 501.834 399.882 521.115 401.46 539.419C403.014 557.425 400.658 568.591 398.328 577.642C396.061 586.436 393.126 595.622 382.239 611.216C366.611 633.595 343.403 643.843 326.895 645.976C324.697 646.257 322.484 646.397 320.268 646.395Z" fill="black"/>
<path d="M299.057 641.073C297.639 641.073 296.828 641.017 296.776 641.013C296.701 641.007 296.631 640.974 296.579 640.92C296.527 640.866 296.496 640.795 296.494 640.72C296.491 640.645 296.515 640.572 296.562 640.513C296.61 640.455 296.676 640.416 296.75 640.404C330.187 634.901 352.126 606.324 352.641 567.596C353.15 529.407 329.228 486.795 312.077 468.733C293.703 449.383 285.257 447.458 285.176 447.443C285.096 447.427 285.026 447.38 284.981 447.313C284.936 447.245 284.92 447.163 284.935 447.083C284.951 447.004 284.998 446.933 285.065 446.888C285.132 446.843 285.215 446.826 285.294 446.841C285.64 446.912 293.967 448.766 312.523 468.31C329.741 486.446 353.762 529.243 353.253 567.607C353.004 586.252 347.872 602.939 338.413 615.862C329.023 628.688 315.733 637.145 299.83 640.456C309.204 640.33 338.435 637.721 357.972 611.422C382.228 578.769 377.334 535.378 364.668 505.66C352.18 476.353 327.14 451.155 306.425 447.05C306.346 447.033 306.276 446.986 306.231 446.919C306.186 446.851 306.17 446.769 306.185 446.689C306.201 446.61 306.248 446.54 306.315 446.494C306.382 446.449 306.465 446.432 306.544 446.447C327.441 450.59 352.67 475.942 365.233 505.418C377.966 535.292 382.875 578.925 358.463 611.786C338.202 639.063 307.603 641.073 299.057 641.073Z" fill="black"/>
<path d="M296.801 641.013H296.786C296.721 641.009 296.66 640.986 296.61 640.945C296.56 640.904 296.524 640.849 296.507 640.786C296.492 640.731 294.958 635.313 282.075 618.764C274.726 609.326 263.092 597.477 250.779 584.933C237.952 571.866 224.688 558.352 214.659 545.978C195.037 521.771 202.817 506.586 202.9 506.433C202.939 506.362 203.005 506.309 203.083 506.286C203.161 506.263 203.244 506.272 203.316 506.31C203.351 506.329 203.383 506.354 203.408 506.385C203.433 506.416 203.452 506.452 203.464 506.49C203.475 506.529 203.479 506.569 203.474 506.609C203.47 506.649 203.458 506.687 203.438 506.722C203.36 506.871 195.792 521.726 215.135 545.591C225.145 557.942 238.399 571.443 251.218 584.501C263.546 597.06 275.187 608.921 282.56 618.389C292.786 631.523 295.885 637.617 296.773 639.732C297.759 635.773 300.454 618.403 281.712 589.632C266.652 566.513 259.143 557.05 251.191 547.028C247.799 542.755 244.295 538.334 240.171 532.783C228.284 516.772 210.323 492.576 221.786 478.772C221.838 478.709 221.913 478.67 221.994 478.663C222.075 478.655 222.156 478.68 222.219 478.733C222.282 478.785 222.321 478.86 222.328 478.941C222.336 479.022 222.311 479.103 222.258 479.166C211.104 492.598 228.894 516.56 240.666 532.415C244.783 537.962 248.286 542.377 251.671 546.649C259.281 556.235 267.151 566.153 282.225 589.297C303.786 622.396 297.158 640.637 297.087 640.814C297.066 640.873 297.026 640.923 296.975 640.959C296.924 640.994 296.863 641.013 296.801 641.013Z" fill="black"/>
<path d="M296.8 641.012C296.747 641.012 296.695 640.998 296.649 640.972C296.603 640.946 296.564 640.908 296.536 640.864C296.501 640.802 296.488 640.731 296.499 640.662C296.51 640.592 296.544 640.528 296.595 640.481C314.442 624.147 313.238 596.042 293.021 556.95C287.091 545.487 274.766 526.983 263.894 510.656C253.71 495.363 244.914 482.154 242.496 476.603C237.387 464.865 244.026 460.931 244.093 460.893C244.128 460.872 244.166 460.859 244.206 460.854C244.246 460.849 244.287 460.852 244.326 460.862C244.365 460.873 244.401 460.892 244.432 460.917C244.464 460.942 244.49 460.973 244.509 461.008C244.53 461.043 244.543 461.081 244.548 461.121C244.553 461.16 244.55 461.201 244.54 461.239C244.53 461.278 244.512 461.314 244.487 461.346C244.463 461.378 244.433 461.404 244.398 461.424C244.142 461.573 238.18 465.151 243.057 476.357C245.453 481.86 254.66 495.682 264.407 510.318C275.286 526.655 287.619 545.174 293.563 556.667C313.476 595.168 315.021 623.128 298.178 639.819C304.119 637.201 326.098 625.384 328.55 593.191C330.82 563.362 319.042 530.598 292.549 493.029C286.482 484.427 280.852 477.122 276.331 471.251C268.465 461.041 263.716 454.877 264.582 452.25C264.696 451.933 264.89 451.651 265.145 451.431C265.4 451.211 265.708 451.06 266.038 450.994C266.116 450.972 266.2 450.981 266.27 451.021C266.341 451.06 266.393 451.126 266.415 451.204C266.438 451.282 266.428 451.365 266.389 451.436C266.349 451.507 266.283 451.559 266.205 451.581C265.973 451.622 265.755 451.723 265.572 451.873C265.39 452.024 265.25 452.219 265.165 452.44C264.4 454.762 269.342 461.171 276.817 470.877C281.343 476.751 286.976 484.063 293.047 492.676C319.629 530.363 331.441 563.258 329.159 593.235C326.306 630.737 297.194 640.896 296.9 640.996C296.868 641.007 296.834 641.012 296.8 641.012Z" fill="black"/>
<path d="M296.801 641.011C296.767 641.012 296.733 641.007 296.701 640.996C296.389 640.885 265.192 629.883 234.278 613.675C208.376 600.098 200.682 590.326 197.092 579.829C197.068 579.753 197.075 579.67 197.111 579.599C197.147 579.527 197.21 579.473 197.285 579.447C197.361 579.421 197.444 579.426 197.516 579.461C197.589 579.496 197.644 579.557 197.672 579.632C201.213 589.988 208.841 599.648 234.564 613.133C260.934 626.958 287.504 636.991 294.895 639.692C288.032 634.683 262.227 615.856 243.857 602.565L243.118 602.03C222.024 586.77 190.151 563.715 193.529 541.495C193.541 541.415 193.585 541.342 193.65 541.294C193.716 541.245 193.797 541.224 193.878 541.235C193.958 541.248 194.03 541.291 194.078 541.357C194.127 541.422 194.147 541.504 194.134 541.585C190.812 563.437 222.503 586.362 243.475 601.533L244.218 602.068C265.471 617.443 296.671 640.231 296.984 640.458C297.043 640.501 297.084 640.565 297.101 640.636C297.117 640.708 297.107 640.783 297.073 640.848C297.047 640.898 297.008 640.939 296.96 640.968C296.912 640.997 296.857 641.012 296.801 641.011Z" fill="black"/>
<path d="M296.918 641.006L296.884 641.002C283.114 639.439 248.48 632.65 233.202 626.244C218.67 620.153 214.345 614.231 214.166 613.982C214.119 613.916 214.1 613.834 214.114 613.754C214.127 613.674 214.171 613.603 214.237 613.555C214.27 613.531 214.307 613.514 214.346 613.505C214.385 613.496 214.426 613.494 214.465 613.501C214.505 613.508 214.543 613.522 214.577 613.543C214.611 613.565 214.641 613.593 214.664 613.626C214.709 613.685 219.093 619.667 233.439 625.679C247.678 631.65 281.263 638.614 296.955 640.393C297.033 640.402 297.104 640.441 297.154 640.501C297.204 640.561 297.23 640.638 297.225 640.717C297.221 640.795 297.186 640.868 297.129 640.922C297.072 640.976 296.997 641.006 296.918 641.006H296.918Z" fill="black"/>
<path d="M370.071 122.118C403.683 122.118 430.93 94.8868 430.93 61.2951C430.93 27.7034 403.683 0.471924 370.071 0.471924C336.46 0.471924 309.213 27.7034 309.213 61.2951C309.213 94.8868 336.46 122.118 370.071 122.118Z" fill="#00FF46"/>
<path d="M369.979 121.635C361.825 121.634 353.756 119.996 346.253 116.819C315.246 103.744 300.706 67.9828 313.832 37.1036C326.958 6.22449 362.864 -8.26135 393.866 4.81232C424.869 17.886 439.413 53.6488 426.287 84.5321C421.593 95.5386 413.752 104.926 403.739 111.524C393.726 118.122 381.985 121.638 369.979 121.635ZM370.068 0.664757C355.069 0.637206 340.595 6.16059 329.455 16.163C318.314 26.1654 311.301 39.9335 309.778 54.7952C308.254 69.657 312.329 84.5526 321.21 96.5911C330.091 108.63 343.146 116.953 357.84 119.945C372.535 122.937 387.822 120.385 400.734 112.784C413.647 105.183 423.263 93.0753 427.718 78.8104C432.173 64.5455 431.148 49.1409 424.843 35.5861C418.537 22.0313 407.401 11.2931 393.595 5.45531C386.155 2.30234 378.154 0.6726 370.068 0.663103V0.664757Z" fill="black"/>
<path d="M398.192 28.8106C394.108 28.8106 389.46 27.7873 384.917 25.8679C379.755 23.6944 375.333 20.6201 372.467 17.2165C369.542 13.7492 368.574 10.3373 369.733 7.61432C370.892 4.89134 374.024 3.20691 378.558 2.88707C383.007 2.57427 388.296 3.59337 393.463 5.77059C398.621 7.94823 403.044 11.0179 405.91 14.4215C408.835 17.8889 409.803 21.3008 408.644 24.0237C407.485 26.7467 404.352 28.4295 399.818 28.7551C399.287 28.7895 398.748 28.8106 398.192 28.8106ZM380.188 3.52551C379.648 3.52551 379.123 3.54661 378.605 3.58054C374.351 3.88507 371.426 5.41558 370.373 7.88368C369.325 10.3572 370.259 13.5109 373.001 16.7672C375.799 20.0864 380.129 23.0928 385.189 25.2278C390.249 27.3628 395.428 28.3695 399.77 28.0563C404.024 27.7518 406.949 26.2254 408.002 23.7532C409.055 21.2809 408.116 18.126 405.374 14.8697C402.576 11.5504 398.246 8.5486 393.186 6.41317C388.725 4.53096 384.175 3.52551 380.188 3.52551Z" fill="black"/>
<path d="M395.42 100.742C384.043 100.742 370.578 97.8867 356.772 92.0655C325.638 78.9327 306.628 56.7049 312.554 40.3625C312.586 40.2755 312.652 40.2046 312.736 40.1651C312.82 40.1255 312.916 40.1205 313.004 40.1511C313.047 40.1667 313.087 40.1908 313.121 40.2219C313.155 40.2529 313.182 40.2904 313.202 40.332C313.221 40.3737 313.232 40.4187 313.234 40.4646C313.235 40.5104 313.228 40.5562 313.212 40.5992C307.413 56.5903 326.256 78.4378 357.048 91.4229C387.676 104.344 416.548 102.611 424.202 87.3933C424.221 87.3501 424.249 87.3112 424.283 87.279C424.318 87.2468 424.359 87.222 424.404 87.2061C424.448 87.1901 424.496 87.1834 424.543 87.1863C424.59 87.1892 424.636 87.2016 424.679 87.2229C424.721 87.2441 424.759 87.2737 424.789 87.3099C424.82 87.346 424.842 87.388 424.856 87.4332C424.87 87.4784 424.874 87.5259 424.869 87.5728C424.863 87.6198 424.848 87.6651 424.825 87.7061C420.492 96.3236 409.569 100.742 395.42 100.742Z" fill="black"/>
<path d="M386.845 113.126C375.964 113.126 363.378 110.492 351.135 105.329C329.204 96.0822 312.372 80.3994 309.239 66.3116C309.219 66.2214 309.237 66.1272 309.287 66.0496C309.337 65.972 309.416 65.9174 309.506 65.8978C309.551 65.8869 309.597 65.8851 309.643 65.8925C309.688 65.8999 309.731 65.9163 309.77 65.9408C309.809 65.9653 309.842 65.9974 309.868 66.0351C309.895 66.0728 309.913 66.1153 309.922 66.1601C313.008 80.0415 329.679 95.5253 351.41 104.688C373.12 113.846 395.883 115 408.046 107.552C408.126 107.504 408.221 107.489 408.312 107.51C408.402 107.532 408.481 107.588 408.53 107.666C408.577 107.746 408.591 107.84 408.57 107.93C408.549 108.02 408.493 108.098 408.416 108.148C402.964 111.483 395.437 113.126 386.845 113.126Z" fill="black"/>
<path d="M377.603 120.137C368.196 120.137 357.676 117.896 347.598 113.647C334.209 108.002 322.84 99.3307 316.409 89.8555C316.383 89.8179 316.365 89.7755 316.355 89.7308C316.346 89.686 316.345 89.6398 316.354 89.5948C316.363 89.5499 316.38 89.5072 316.406 89.4691C316.431 89.4311 316.464 89.3986 316.503 89.3735C316.541 89.3474 316.584 89.3292 316.629 89.3198C316.674 89.3104 316.721 89.31 316.766 89.3187C316.812 89.3273 316.855 89.3448 316.894 89.3702C316.932 89.3956 316.965 89.4284 316.991 89.4666C323.347 98.8321 334.605 107.411 347.87 113.005C361.111 118.591 375.103 120.675 386.272 118.73C386.364 118.715 386.458 118.736 386.534 118.789C386.61 118.843 386.662 118.924 386.678 119.016C386.693 119.107 386.672 119.201 386.618 119.277C386.564 119.353 386.483 119.404 386.391 119.42C383.488 119.91 380.548 120.15 377.603 120.137Z" fill="black"/>
<path d="M400.684 83.5916C389.689 83.5916 376.784 80.9319 363.832 75.469C349.419 69.3888 337.087 60.7928 329.115 51.2581C321.087 41.6555 318.417 32.2436 321.605 24.7512C322.087 23.5689 322.722 22.4544 323.494 21.4361C323.522 21.3994 323.556 21.3684 323.595 21.345C323.634 21.3215 323.678 21.306 323.723 21.2993C323.769 21.2926 323.815 21.2949 323.859 21.306C323.904 21.3171 323.946 21.3369 323.982 21.3641C324.057 21.4197 324.107 21.5025 324.12 21.5944C324.134 21.6863 324.11 21.7798 324.055 21.8544C323.316 22.8263 322.709 23.8912 322.251 25.0214C319.173 32.2643 321.801 41.4229 329.654 50.8096C337.559 60.2599 349.793 68.788 364.103 74.826C393.574 87.253 422.746 85.1345 429.139 70.0988C429.593 69.0409 429.927 67.9361 430.136 66.8048C430.144 66.7597 430.161 66.7166 430.185 66.6779C430.209 66.6392 430.241 66.6057 430.279 66.5793C430.316 66.5529 430.359 66.5343 430.403 66.5243C430.448 66.5144 430.495 66.5134 430.54 66.5214C430.585 66.5294 430.629 66.5463 430.668 66.5711C430.706 66.5958 430.74 66.628 430.767 66.6656C430.793 66.7033 430.812 66.7458 430.822 66.7907C430.831 66.8356 430.832 66.882 430.824 66.9273C430.608 68.1115 430.258 69.2675 429.78 70.3731C426.083 79.0758 415.007 83.5875 400.684 83.5916Z" fill="black"/>
<path d="M403.494 65.1187C393.722 65.1187 382.308 62.6961 371.244 58.0281C358.809 52.7849 348.18 45.3516 341.311 37.0916C334.391 28.7705 332.107 20.5928 334.879 14.0728C335.918 11.6204 337.808 9.47668 340.654 7.51047C340.691 7.48378 340.733 7.46472 340.777 7.45443C340.822 7.44413 340.868 7.44279 340.913 7.4505C340.958 7.45821 341.001 7.4748 341.04 7.49931C341.078 7.52382 341.111 7.55575 341.137 7.59323C341.191 7.66882 341.212 7.7623 341.196 7.85333C341.181 7.94437 341.13 8.02561 341.054 8.0794C338.325 9.96947 336.516 12.0159 335.527 14.3413C332.862 20.6119 335.107 28.5354 341.852 36.6456C348.653 44.8187 359.185 52.1845 371.518 57.3896C389.305 64.8907 407.975 66.5524 419.076 61.6179C423.474 59.6645 426.336 56.8315 427.592 53.1953C428.511 50.5167 428.742 47.6515 428.263 44.8613C428.256 44.8163 428.257 44.7703 428.268 44.7258C428.278 44.6814 428.297 44.6394 428.324 44.6023C428.35 44.5652 428.384 44.5337 428.423 44.5095C428.462 44.4854 428.505 44.4691 428.55 44.4616C428.595 44.4541 428.641 44.4555 428.686 44.4658C428.731 44.4761 428.773 44.4951 428.81 44.5216C428.847 44.5481 428.879 44.5816 428.903 44.6203C428.927 44.659 428.944 44.7021 428.951 44.7471C429.451 47.6518 429.212 50.635 428.255 53.4237C426.935 57.2502 423.942 60.2227 419.361 62.2567C415.033 64.1774 409.582 65.1187 403.494 65.1187Z" fill="black"/>
<path d="M402.234 46.2805C395.148 46.2805 386.822 44.5638 378.465 41.0373C359.273 32.9404 347.068 18.3217 351.266 8.45012C353.359 3.52841 358.954 0.61924 367.449 0.0358344C367.541 0.0290856 367.632 0.059144 367.702 0.119397C367.772 0.17965 367.816 0.265161 367.822 0.35712C367.829 0.44908 367.799 0.539955 367.739 0.609753C367.678 0.67955 367.592 0.722554 367.5 0.729302C359.281 1.29574 353.894 4.06134 351.912 8.72486C347.866 18.2414 359.901 32.4496 378.741 40.3947C397.581 48.3398 416.2 47.0625 420.246 37.5447C422.182 32.9933 420.454 27.1518 415.386 21.0927C415.327 21.0214 415.299 20.9298 415.307 20.8379C415.316 20.746 415.361 20.6613 415.432 20.6023C415.467 20.5725 415.508 20.5499 415.551 20.5358C415.595 20.5217 415.641 20.5164 415.687 20.5203C415.733 20.5241 415.778 20.537 415.818 20.5582C415.859 20.5794 415.895 20.6085 415.925 20.6437C421.167 26.9143 422.934 33.0152 420.891 37.8149C418.522 43.3941 411.42 46.2776 402.234 46.2805Z" fill="black"/>
<path d="M390.997 14.134C390.653 14.1278 390.314 14.0531 390 13.9143C389.638 13.7704 389.316 13.5446 389.057 13.2547C388.93 13.1311 388.841 12.9739 388.801 12.8018C388.76 12.6296 388.769 12.4494 388.828 12.2824C389.061 11.7329 389.923 11.6018 390.819 11.982C391.723 12.3627 392.224 13.0644 391.99 13.6184C391.91 13.7751 391.787 13.906 391.635 13.9965C391.484 14.087 391.31 14.1333 391.133 14.1303L390.997 14.134ZM389.473 12.5526C389.46 12.5778 389.481 12.6709 389.591 12.8062C389.779 13.0125 390.011 13.173 390.271 13.2754C390.524 13.3875 390.8 13.4423 391.077 13.436C391.255 13.419 391.336 13.3681 391.345 13.3429C391.379 13.2626 391.15 12.8778 390.547 12.6242C389.944 12.3705 389.508 12.476 389.473 12.5522L389.473 12.5526Z" fill="black"/>
<path d="M332.651 108.805C332.578 108.807 332.506 108.785 332.447 108.742C332.317 108.666 332.211 108.556 332.141 108.424C332.07 108.292 332.038 108.143 332.048 107.993C332.142 106.932 334.561 105.759 340.02 103.216C345.356 100.729 352.667 97.3215 359.756 92.6869C372.177 84.5643 393.849 67.6642 399.398 45.7699C403.596 29.1867 395.382 18.4615 391.773 14.7091C393.743 18.9672 396.901 29.7999 387.392 43.838C376.342 60.1465 357.88 71.6429 344.396 80.0423C342.766 81.0573 341.196 82.0338 339.702 82.98C328.75 89.9143 323.524 93.5211 322.938 96.6077C322.764 97.5296 323.01 98.3964 323.707 99.3435C323.76 99.4181 323.782 99.5109 323.768 99.6016C323.753 99.6922 323.703 99.7735 323.629 99.8276C323.554 99.8817 323.461 99.9043 323.37 99.8904C323.279 99.8766 323.197 99.8274 323.142 99.7536C322.766 99.3037 322.492 98.7786 322.338 98.2138C322.185 97.6491 322.155 97.058 322.251 96.4807C322.892 93.1065 327.942 89.5969 339.329 82.3879C340.819 81.445 342.394 80.4639 344.028 79.4502C357.456 71.0868 375.846 59.6368 386.816 43.4466C398.838 25.7007 390.217 13.2738 390.128 13.1467C390.078 13.0786 390.055 12.995 390.063 12.9113C390.071 12.8276 390.109 12.7496 390.17 12.6917C390.231 12.6339 390.312 12.6001 390.396 12.5966C390.48 12.5932 390.563 12.6203 390.629 12.673C390.777 12.7913 405.47 24.6518 400.074 45.9453C394.47 68.0635 372.65 85.0906 360.14 93.2724C353.012 97.9363 345.676 101.353 340.319 103.847C336.455 105.648 332.809 107.348 332.745 108.055C332.745 108.096 332.826 108.156 332.851 108.173C332.926 108.227 332.977 108.308 332.993 108.399C333.008 108.49 332.987 108.583 332.934 108.659C332.902 108.704 332.86 108.741 332.81 108.766C332.761 108.792 332.706 108.805 332.651 108.805Z" fill="black"/>
<path d="M358.946 120.014C357.308 120.032 355.673 119.865 354.072 119.518C353.982 119.496 353.904 119.44 353.856 119.362C353.807 119.283 353.792 119.189 353.814 119.099C353.823 119.055 353.842 119.012 353.868 118.975C353.894 118.938 353.928 118.906 353.966 118.881C354.005 118.857 354.048 118.841 354.093 118.833C354.138 118.825 354.184 118.827 354.229 118.837C365.023 121.325 386.866 113.765 399.946 99.9389C408.207 91.2119 426.465 68.0283 417.614 41.3944C411.887 24.1516 399.406 16.9592 393.52 14.4435C398.916 18.1645 409.885 27.8134 410.679 45.0901C411.723 67.8127 396.254 88.0366 381.425 99.3895C366.448 110.848 348.589 116.696 341.919 114.785C341.83 114.759 341.755 114.699 341.71 114.619C341.664 114.538 341.653 114.443 341.678 114.354C341.704 114.265 341.765 114.19 341.847 114.145C341.928 114.1 342.025 114.088 342.115 114.113C348.605 115.978 366.613 109.842 380.998 98.8359C395.686 87.5931 411.015 67.5765 409.984 45.1199C408.952 22.6633 390.446 13.3478 390.258 13.2556C390.18 13.2187 390.119 13.1539 390.086 13.0739C390.054 12.994 390.053 12.9049 390.084 12.8244C390.112 12.7427 390.17 12.6747 390.247 12.6345C390.323 12.5944 390.412 12.5852 390.496 12.6089C390.695 12.6552 410.554 17.9236 418.28 41.1751C427.246 68.1681 408.801 91.5971 400.455 100.417C388.623 112.923 370.672 120.014 358.946 120.014Z" fill="black"/>
<path d="M370.722 121.642C370.676 121.642 370.631 121.634 370.589 121.617C370.547 121.6 370.509 121.574 370.477 121.543C370.444 121.511 370.418 121.473 370.401 121.431C370.383 121.39 370.374 121.345 370.374 121.3C370.372 121.207 370.407 121.118 370.472 121.051C370.536 120.985 370.625 120.946 370.718 120.944C370.866 120.944 385.495 120.703 398.969 111.173C432.354 87.5708 427.115 54.785 427.055 54.4594C421.664 16.0837 390.695 13.3139 390.384 13.2928C390.3 13.2861 390.221 13.2497 390.162 13.1901C390.103 13.1305 390.067 13.0517 390.062 12.9682C390.056 12.8846 390.081 12.8018 390.131 12.7349C390.182 12.6679 390.255 12.6213 390.337 12.6035C390.596 12.5485 416.339 7.74924 428.934 44.6917C428.962 44.7785 428.954 44.8727 428.913 44.9541C428.872 45.0354 428.8 45.0974 428.713 45.1267C428.627 45.156 428.532 45.1504 428.45 45.111C428.367 45.0716 428.303 45.0016 428.272 44.9159C418.449 16.118 400.615 13.0644 393.512 13.0644L393.279 13.0686C401.209 14.7811 423.254 22.3878 427.746 54.3493C427.801 54.6708 433.129 87.8753 399.375 111.738C385.708 121.4 370.873 121.641 370.725 121.641L370.722 121.642Z" fill="black"/>
<path d="M413.059 18.4557C412.966 18.4549 412.876 18.4186 412.809 18.3544C400.139 5.82602 391.015 12.9084 390.633 13.2171C390.573 13.2646 390.499 13.2911 390.422 13.2926C390.345 13.2941 390.27 13.2705 390.208 13.2253C390.145 13.1811 390.099 13.1172 390.076 13.0437C390.053 12.9702 390.056 12.8913 390.084 12.8194C390.151 12.6419 391.787 8.48568 395.106 7.28453C396.689 6.7094 398.379 6.90842 400.128 7.87662C400.168 7.89885 400.203 7.92873 400.232 7.96457C400.26 8.0004 400.281 8.04149 400.294 8.08548C400.307 8.12947 400.31 8.17551 400.305 8.22096C400.3 8.26642 400.286 8.31039 400.263 8.35038C400.241 8.39038 400.211 8.4256 400.175 8.45404C400.139 8.48248 400.098 8.50359 400.054 8.51615C400.01 8.52872 399.963 8.53249 399.918 8.52726C399.872 8.52204 399.828 8.50791 399.788 8.48568C398.226 7.62299 396.731 7.43721 395.347 7.93621C393.314 8.67188 391.938 10.727 391.247 11.9994C394.133 10.418 402.645 7.32384 413.305 17.8599C413.371 17.925 413.407 18.0131 413.407 18.1051C413.407 18.197 413.371 18.2851 413.305 18.3502C413.274 18.3838 413.236 18.4105 413.193 18.4287C413.151 18.4468 413.105 18.456 413.059 18.4557Z" fill="black"/>
<path d="M390.411 13.2928C390.342 13.2926 390.274 13.272 390.217 13.2337C390.159 13.1953 390.115 13.1409 390.088 13.0772C389.621 11.9601 387.651 7.05203 387.881 4.58682C386.501 3.28016 384.552 2.37526 382.069 1.88495C382.023 1.87731 381.979 1.86053 381.939 1.83561C381.9 1.8107 381.866 1.77815 381.84 1.7399C381.813 1.70164 381.794 1.65847 381.785 1.61294C381.775 1.56741 381.775 1.52045 381.784 1.47484C381.793 1.42924 381.812 1.38592 381.838 1.34745C381.864 1.30899 381.898 1.27617 381.937 1.25094C381.976 1.22571 382.02 1.20858 382.066 1.20057C382.112 1.19256 382.159 1.19383 382.205 1.20431C384.656 1.68635 386.616 2.55732 388.067 3.81309C388.118 3.69377 388.188 3.5837 388.275 3.48746C388.457 3.30564 388.69 3.18317 388.943 3.13632C389.196 3.08946 389.458 3.12044 389.693 3.22513C389.782 3.25257 389.856 3.31408 389.899 3.39614C389.943 3.47819 389.952 3.57407 389.924 3.66269C389.897 3.7513 389.835 3.82538 389.753 3.86864C389.67 3.9119 389.574 3.92079 389.485 3.89336C388.993 3.7411 388.84 3.90619 388.793 3.95667C388.704 4.06331 388.641 4.18932 388.611 4.3245C389.033 4.75545 389.406 5.23186 389.723 5.74495C391.807 9.1105 390.793 12.8782 390.746 13.0346C390.728 13.1049 390.687 13.1677 390.631 13.2139C390.574 13.2602 390.505 13.2876 390.432 13.2924L390.411 13.2928ZM388.556 5.30967C388.666 6.92914 389.477 9.55074 390.271 11.6477C390.503 9.72464 390.1 7.77856 389.124 6.10327C388.954 5.82582 388.764 5.56063 388.556 5.30967Z" fill="black"/>
<path d="M421.757 29.4577C421.701 29.4575 421.646 29.444 421.597 29.4182C421.547 29.3924 421.505 29.3552 421.473 29.3096C416.128 21.7919 390.559 13.3607 390.3 13.2758C390.218 13.2479 390.15 13.1914 390.107 13.1167C390.064 13.042 390.049 12.9543 390.067 12.8699C390.084 12.7857 390.132 12.7109 390.202 12.6601C390.272 12.6094 390.358 12.5862 390.444 12.5952C391.268 12.678 410.651 14.6967 414.268 18.843C414.323 18.9138 414.348 19.0027 414.339 19.0915C414.33 19.1804 414.287 19.2624 414.219 19.3206C414.151 19.3789 414.063 19.4091 413.974 19.4049C413.884 19.4007 413.8 19.3625 413.737 19.2982C411.165 16.3468 399.435 14.4526 393.637 13.683C400.73 16.2069 417.656 22.7316 422.045 28.9049C422.082 28.9573 422.104 29.0189 422.109 29.0829C422.113 29.1469 422.099 29.2108 422.07 29.2677C422.04 29.3245 421.995 29.372 421.94 29.405C421.884 29.4381 421.821 29.4553 421.757 29.4548L421.757 29.4577Z" fill="black"/>
<path d="M390.411 13.2928C390.338 13.2923 390.268 13.2698 390.208 13.2282C390.149 13.1867 390.104 13.1281 390.079 13.0603C390.052 12.9844 390.053 12.9016 390.081 12.8261C390.109 12.7507 390.162 12.6872 390.231 12.6465C391.747 11.7458 395.657 9.01037 395.555 7.14554C395.525 6.58324 395.118 6.13058 394.303 5.75861C394.218 5.71976 394.152 5.64905 394.12 5.56202C394.088 5.475 394.092 5.37879 394.131 5.29457C394.17 5.21035 394.241 5.14501 394.328 5.11292C394.416 5.08083 394.512 5.08463 394.597 5.12348C395.653 5.60551 396.21 6.27374 396.258 7.10665C396.36 8.99258 393.69 11.1574 391.962 12.3581L404.222 10.5061C404.313 10.4948 404.404 10.5191 404.477 10.5739C404.55 10.6286 404.598 10.7096 404.612 10.7994C404.626 10.8893 404.604 10.9809 404.551 11.0549C404.498 11.1289 404.418 11.1793 404.328 11.1955L390.464 13.2883L390.411 13.2928Z" fill="black"/>
<path d="M315.102 86.8562C315.031 86.856 314.962 86.8344 314.903 86.7944C314.845 86.7544 314.8 86.6978 314.775 86.6319L314.694 86.4292C313.803 84.1419 311.714 78.7927 323.762 70.0363C328.852 66.3364 335.266 62.603 342.058 58.6537C351.775 53.0004 362.788 46.5945 373.613 38.2551C388.891 26.4877 390.118 16.708 390.114 13.8497C388.896 15.2917 386.5 17.8285 379.28 22.7713C372.845 27.177 362.317 31.896 351.173 36.8939C343.158 40.4837 334.872 44.2005 327.107 48.2045C308.772 57.6631 310.05 67.4176 310.067 67.5148C310.081 67.6062 310.058 67.6994 310.003 67.774C309.949 67.8486 309.866 67.8984 309.774 67.9124C309.729 67.9209 309.682 67.92 309.638 67.91C309.593 67.8999 309.55 67.8809 309.513 67.854C309.475 67.8271 309.444 67.7929 309.42 67.7535C309.397 67.7141 309.381 67.6704 309.375 67.6249C309.307 67.2111 307.953 57.2994 326.789 47.583C334.566 43.5695 342.861 39.8539 350.883 36.2554C362.001 31.2745 372.5 26.5684 378.88 22.1966C386.802 16.7717 388.839 14.3024 389.93 12.9746L390.143 12.721C390.185 12.6701 390.241 12.6324 390.304 12.6123C390.368 12.5921 390.435 12.5903 390.5 12.6072C390.564 12.6241 390.622 12.6589 390.667 12.7074C390.712 12.756 390.742 12.8164 390.754 12.8815C390.837 13.3507 392.558 24.5472 374.041 38.8092C363.177 47.1726 352.144 53.5913 342.41 59.2528C335.634 63.1935 329.233 66.9186 324.173 70.5973C312.563 79.041 314.515 84.0389 315.348 86.1743L315.428 86.3812C315.461 86.4676 315.459 86.5635 315.422 86.6483C315.384 86.733 315.315 86.7997 315.229 86.8338C315.188 86.8474 315.145 86.8549 315.102 86.8562Z" fill="black"/>
<path d="M311.064 46.861L311.005 46.8569C310.913 46.841 310.832 46.79 310.778 46.7149C310.724 46.6397 310.702 46.5464 310.716 46.4551C310.793 46.0024 312.813 35.3095 336.153 28.3285C346.452 25.2506 357.243 22.2483 366.765 19.6014C376.788 16.8193 385.036 14.5275 388.708 13.2378C382.647 13.1637 376.586 13.3959 370.548 13.9333C368.289 14.1195 365.865 14.2718 363.297 14.4323C346.936 15.4638 326.572 16.7494 319.135 28.5292C319.11 28.5681 319.078 28.6018 319.04 28.6283C319.003 28.6549 318.96 28.6738 318.915 28.684C318.87 28.6942 318.824 28.6955 318.778 28.6878C318.733 28.6801 318.689 28.6635 318.65 28.6391C318.611 28.6146 318.578 28.5827 318.551 28.5453C318.524 28.5078 318.505 28.4655 318.495 28.4207C318.485 28.3759 318.483 28.3296 318.491 28.2843C318.499 28.239 318.516 28.1957 318.54 28.1568C326.169 16.0725 346.732 14.7786 363.254 13.7384C365.818 13.5779 368.239 13.4256 370.492 13.2353C382.986 12.2038 390.355 12.5927 390.432 12.5968C390.509 12.601 390.583 12.6307 390.641 12.6812C390.7 12.7317 390.74 12.8002 390.754 12.8757C390.77 12.9519 390.759 13.0309 390.725 13.1005C390.69 13.1701 390.633 13.2264 390.563 13.2605C388.275 14.3512 378.868 16.9645 366.952 20.2751C357.434 22.9231 346.647 25.9196 336.353 28.998C313.492 35.8392 311.425 46.465 311.408 46.5705C311.394 46.6513 311.352 46.7244 311.289 46.7775C311.226 46.8305 311.147 46.86 311.064 46.861Z" fill="black"/>
<path d="M390.413 13.2928L390.34 13.2845C374.166 9.93553 364.755 8.43481 351.981 8.43481H351.803C339.012 8.44764 334.241 12.4094 334.194 12.4483C334.124 12.5088 334.033 12.5392 333.941 12.5329C333.848 12.5265 333.762 12.4839 333.702 12.4144C333.64 12.3439 333.609 12.2522 333.616 12.1591C333.622 12.0661 333.665 11.9794 333.736 11.9179C333.935 11.7486 338.711 7.75293 351.803 7.73597H351.985C363.893 7.73597 372.881 9.03394 387.076 11.905C379.163 8.64086 358.727 0.860877 350.64 3.89252C350.597 3.90894 350.551 3.91672 350.505 3.9154C350.459 3.91408 350.414 3.90369 350.372 3.88483C350.33 3.86596 350.293 3.83901 350.261 3.80553C350.23 3.77204 350.206 3.7327 350.19 3.68978C350.173 3.6471 350.164 3.60142 350.165 3.55548C350.167 3.50953 350.177 3.46427 350.196 3.42241C350.215 3.38056 350.242 3.34297 350.276 3.31191C350.31 3.28085 350.35 3.25696 350.394 3.24167C360.731 -0.643979 389.343 12.0788 390.557 12.6242C390.635 12.6601 390.698 12.7235 390.732 12.8022C390.767 12.8809 390.771 12.9695 390.744 13.0512C390.722 13.1215 390.678 13.1829 390.618 13.2264C390.559 13.2699 390.487 13.2932 390.413 13.2928Z" fill="black"/>
<path d="M390.411 13.2928C390.337 13.2937 390.265 13.2698 390.207 13.225C390.033 13.1008 372.84 0.857154 366.141 0.857154C366.106 0.861372 366.07 0.861372 366.035 0.857154C365.942 0.858306 365.853 0.822665 365.786 0.758066C365.72 0.693468 365.682 0.605206 365.681 0.512697C365.679 0.420189 365.715 0.331012 365.78 0.264784C365.845 0.198556 365.933 0.160703 366.026 0.15955C366.171 0.155413 366.319 0.159549 366.472 0.167824C366.607 0.0835248 366.769 0.050482 366.926 0.0747283C387.562 0.0747283 390.72 12.7384 390.75 12.8654C390.766 12.934 390.761 13.0059 390.735 13.0716C390.709 13.1372 390.664 13.1936 390.606 13.2332C390.548 13.2712 390.48 13.2919 390.411 13.2928ZM369.743 0.857571C376.552 3.06913 386.65 9.89333 389.721 12.0329C388.573 9.2851 384.12 1.73682 369.743 0.857571Z" fill="black"/>
<path d="M390.411 13.2924C390.36 13.2917 390.31 13.2803 390.263 13.2589C390.217 13.2375 390.176 13.2066 390.143 13.1682C386.246 8.61685 379.543 1.35448 378.142 1.21918C378.05 1.21068 377.966 1.16625 377.907 1.09565C377.848 1.02505 377.82 0.934052 377.828 0.842652C377.84 0.751547 377.886 0.668256 377.957 0.609478C378.027 0.550699 378.118 0.520777 378.21 0.52571C380.354 0.728868 389.625 11.4904 390.678 12.716C390.738 12.7866 390.767 12.8778 390.759 12.9697C390.751 13.0616 390.707 13.1467 390.637 13.2063C390.574 13.2612 390.494 13.2918 390.411 13.2924Z" fill="black"/>
<path d="M331.403 107.812C331.326 107.812 331.252 107.786 331.191 107.74C331.072 107.647 319.343 98.5052 315.25 78.8225C311.06 58.6536 315.665 46.1932 320.748 35.1573C325.583 24.6477 337.032 12.0962 351.703 7.75374C365.454 3.6819 377.403 4.76016 388.122 11.0638C384.469 7.73516 380.073 5.31926 375.298 4.01539C366.06 1.55474 351.494 1.93085 338.297 10.3832C329.075 16.2901 325.502 20.5225 322.373 24.6916C319.147 28.9877 315.445 34.4038 312.329 44.3064C309.167 54.3571 310.028 66.6782 310.037 66.8006C310.04 66.8465 310.034 66.8925 310.019 66.936C310.004 66.9795 309.981 67.0197 309.951 67.0543C309.921 67.0889 309.884 67.1172 309.842 67.1376C309.801 67.1579 309.756 67.17 309.71 67.173C309.618 67.1781 309.528 67.1475 309.458 67.0875C309.388 67.0275 309.344 66.9429 309.336 66.8515C309.327 66.7245 308.457 54.2731 311.658 44.0991C314.808 34.091 318.554 28.6153 321.813 24.2728C324.979 20.0487 328.596 15.7654 337.919 9.79525C351.308 1.22455 366.098 0.839756 375.48 3.34054C381.368 4.93031 386.664 8.19407 390.72 12.733C390.772 12.7982 390.798 12.8798 390.795 12.9629C390.792 13.046 390.758 13.1252 390.701 13.186C390.644 13.2469 390.567 13.2854 390.484 13.2945C390.401 13.3037 390.318 13.283 390.249 13.2361C379.071 5.66754 366.531 4.09442 351.902 8.42445C337.439 12.7036 326.151 25.0797 321.379 35.4473C316.353 46.3773 311.79 58.7198 315.937 78.6814C319.97 98.0977 331.5 107.1 331.615 107.19C331.651 107.217 331.682 107.252 331.705 107.291C331.728 107.331 331.743 107.374 331.749 107.42C331.755 107.465 331.751 107.511 331.739 107.555C331.727 107.599 331.707 107.64 331.678 107.676C331.646 107.718 331.604 107.752 331.556 107.775C331.509 107.799 331.456 107.811 331.403 107.812Z" fill="black"/>
<path d="M353.915 119.461C353.846 119.461 353.778 119.442 353.72 119.406C353.55 119.291 349.441 116.437 343.765 101.841C338.505 88.3192 335.037 60.0662 343.803 39.597C352.2 19.9846 368.905 9.44934 387.032 11.9609C380.673 9.79194 365.938 6.46818 351.19 15.3182C331.004 27.4236 324.072 51.6644 324.318 70.3151C324.556 88.6995 332.419 107.634 342.602 114.361C342.64 114.386 342.673 114.419 342.699 114.457C342.724 114.495 342.742 114.537 342.751 114.582C342.76 114.627 342.76 114.673 342.752 114.718C342.743 114.762 342.725 114.805 342.7 114.843C342.675 114.881 342.642 114.914 342.604 114.939C342.566 114.965 342.523 114.983 342.478 114.992C342.433 115.001 342.387 115.001 342.342 114.992C342.297 114.983 342.254 114.966 342.216 114.94C331.858 108.099 323.86 88.9146 323.618 70.3238C323.371 51.4827 330.389 26.9797 350.828 14.7178C370.631 2.84072 390.405 12.536 390.605 12.6332C390.681 12.6725 390.74 12.7378 390.771 12.8171C390.802 12.8964 390.804 12.9842 390.775 13.0644C390.746 13.1444 390.688 13.2111 390.613 13.2516C390.538 13.2921 390.45 13.3037 390.367 13.2841C371.268 8.90359 353.239 19.3346 344.443 39.8713C335.759 60.1577 339.197 88.1756 344.417 101.588C349.983 115.904 354.07 118.797 354.108 118.826C354.171 118.867 354.219 118.928 354.244 118.998C354.27 119.068 354.272 119.145 354.25 119.216C354.228 119.288 354.183 119.35 354.122 119.394C354.062 119.439 353.988 119.462 353.913 119.461H353.915Z" fill="black"/>
<path d="M365.289 121.456C365.215 121.456 365.141 121.452 365.068 121.443C364.976 121.433 364.892 121.387 364.834 121.315C364.776 121.243 364.748 121.151 364.758 121.059C364.763 121.013 364.776 120.969 364.798 120.928C364.82 120.888 364.85 120.852 364.886 120.823C364.922 120.795 364.963 120.773 365.008 120.761C365.052 120.748 365.099 120.744 365.144 120.75C365.251 120.779 365.363 120.779 365.47 120.749C365.576 120.719 365.672 120.661 365.747 120.581C366.609 119.575 365.314 114.847 363.519 108.306C362.385 104.162 360.972 99.008 359.604 93.0589C353.632 66.9918 354.553 46.7468 362.419 31.1653C372.285 11.6138 390.293 12.582 390.471 12.5989C390.551 12.6032 390.627 12.6351 390.686 12.6891C390.744 12.743 390.783 12.8158 390.794 12.8948C390.805 12.9743 390.789 13.0553 390.748 13.1245C390.707 13.1937 390.644 13.2469 390.568 13.2754C377.451 18.0619 371.928 33.3132 374.152 58.6024C374.81 66.0315 377.345 78.6442 379.582 89.7691C381.683 100.205 383.496 109.219 383.57 112.741C383.723 120.301 379.278 120.948 379.091 120.975C378.999 120.984 378.908 120.957 378.835 120.9C378.762 120.844 378.714 120.761 378.701 120.671C378.689 120.579 378.714 120.487 378.771 120.414C378.827 120.341 378.911 120.293 379.002 120.282C379.164 120.261 383.01 119.656 382.87 112.755C382.798 109.297 380.904 99.8761 378.896 89.9056C376.653 78.7642 374.116 66.1345 373.458 58.6628C371.302 34.1601 376.391 18.9254 388.584 13.3359C383.807 13.6669 370.846 16.0253 363.045 31.4794C355.255 46.9127 354.355 67.0051 360.29 92.9033C361.652 98.84 363.062 103.986 364.195 108.125C366.249 115.622 367.383 119.749 366.279 121.035C366.157 121.175 366.004 121.286 365.833 121.359C365.661 121.432 365.475 121.465 365.289 121.456Z" fill="black"/>
<path d="M394.924 116.327C394.845 116.328 394.769 116.302 394.707 116.255C394.644 116.207 394.6 116.14 394.581 116.064C394.562 115.989 394.569 115.909 394.601 115.837C394.633 115.766 394.688 115.708 394.757 115.671C403.6 110.996 399.351 94.3357 396.54 83.3081C395.551 79.4394 394.643 76.306 393.768 73.2744C391.794 66.4626 389.753 59.4183 386.759 43.706C382.463 21.1559 389.875 13.0383 390.19 12.7044C390.241 12.6515 390.308 12.616 390.38 12.603C390.453 12.59 390.528 12.6001 390.595 12.6319C390.662 12.6637 390.717 12.7156 390.752 12.7802C390.787 12.8448 390.801 12.9189 390.792 12.992C390.788 13.0218 390.431 16.2648 393.679 27.8841C395.543 34.5478 399.177 43.4441 403.023 52.8605C407.034 62.6829 411.182 72.8391 413.843 81.6762C419.073 99.063 411.691 105.355 411.372 105.617C411.3 105.674 411.208 105.7 411.117 105.691C411.025 105.681 410.941 105.636 410.882 105.565C410.824 105.494 410.795 105.402 410.804 105.311C410.812 105.219 410.856 105.135 410.927 105.075C411.003 105.016 418.258 98.7796 413.172 81.879C410.519 73.0716 406.38 62.932 402.372 53.1225C398.521 43.6849 394.879 34.7716 393.007 28.0741C390.689 19.7868 390.18 15.7274 390.09 13.9941C388.397 16.5354 383.96 25.2898 387.446 43.5749C390.434 59.2565 392.379 65.9719 394.438 73.084C395.316 76.1157 396.224 79.2532 397.214 83.1348C400.083 94.3734 404.414 111.353 395.087 116.289C395.036 116.313 394.98 116.326 394.924 116.327Z" fill="black"/>
<path d="M423.892 89.0292C423.83 89.0308 423.768 89.0155 423.713 88.9848C423.659 88.9541 423.614 88.9093 423.583 88.855C423.552 88.8008 423.536 88.7392 423.537 88.6768C423.539 88.6145 423.557 88.5536 423.591 88.5009C430.15 77.6259 418.212 58.4335 410.312 45.7364L410.031 45.2883C402.004 32.3789 390.266 13.3185 390.147 13.1281C390.104 13.0569 390.087 12.9725 390.101 12.8903C390.115 12.8081 390.157 12.7335 390.222 12.6799C390.286 12.6263 390.367 12.5972 390.45 12.598C390.534 12.5988 390.615 12.6294 390.678 12.6842C390.822 12.8112 405.171 25.5721 418.212 41.06C429.173 54.0704 431.16 61.0303 430.765 67.4784C430.764 67.5247 430.754 67.5704 430.735 67.6125C430.716 67.6546 430.688 67.6922 430.653 67.7229C430.618 67.7536 430.577 67.7767 430.533 67.7907C430.489 67.8046 430.442 67.8092 430.396 67.804C430.35 67.8014 430.305 67.7898 430.264 67.7698C430.223 67.7499 430.186 67.722 430.155 67.6878C430.125 67.6537 430.102 67.6138 430.087 67.5706C430.072 67.5274 430.066 67.4818 430.069 67.4362C430.451 61.1528 428.49 54.3414 417.677 41.5086C407.404 29.31 396.32 18.8112 392.041 14.8705C395.327 20.2022 404.177 34.5486 410.626 44.9209L410.906 45.369C418.895 58.2142 430.971 77.6222 424.193 88.865C424.161 88.9154 424.117 88.9568 424.064 88.9855C424.011 89.0142 423.952 89.0293 423.892 89.0292Z" fill="black"/>
<path d="M428.783 45.8208C428.704 45.8201 428.627 45.7931 428.566 45.744C428.504 45.6949 428.461 45.6267 428.443 45.5502C428.434 45.5088 427.398 41.377 421.06 35.0514C414.735 28.7299 398.243 17.6319 390.211 13.2291C390.17 13.207 390.135 13.1772 390.106 13.1413C390.078 13.1055 390.056 13.0644 390.044 13.0204C390.031 12.9763 390.027 12.9302 390.033 12.8848C390.038 12.8393 390.052 12.7953 390.075 12.7553C390.12 12.6751 390.196 12.6159 390.285 12.5905C390.374 12.5652 390.469 12.5758 390.551 12.62C397.61 16.4887 414.748 27.7571 421.557 34.5561C428.056 41.0464 429.084 45.2155 429.126 45.393C429.136 45.4374 429.138 45.4834 429.13 45.5283C429.122 45.5732 429.106 45.6162 429.081 45.6547C429.057 45.6932 429.025 45.7264 428.987 45.7525C428.95 45.7786 428.907 45.797 428.863 45.8067L428.783 45.8208Z" fill="black"/>
<defs>
<radialGradient id="paint0_radial_47_2577" cx="0" cy="0" r="1" gradientUnits="userSpaceOnUse" gradientTransform="translate(53.8677 156.922) scale(201.416 201.637)">
<stop stop-color="#FF7305" stop-opacity="0"/>
<stop offset="1" stop-color="#C44300" stop-opacity="0.38"/>
</radialGradient>
<radialGradient id="paint1_radial_47_2577" cx="0" cy="0" r="1" gradientUnits="userSpaceOnUse" gradientTransform="translate(78.8737 289.433) rotate(-87.9929) scale(67.2117 67.1378)">
<stop stop-color="#FFA443" stop-opacity="0.749"/>
<stop offset="1" stop-color="#FF7305" stop-opacity="0"/>
</radialGradient>
<radialGradient id="paint2_radial_47_2577" cx="0" cy="0" r="1" gradientUnits="userSpaceOnUse" gradientTransform="translate(241.171 487.888) scale(173.835)">
<stop stop-color="#0008FF" stop-opacity="0"/>
<stop offset="1" stop-color="#0000CA" stop-opacity="0.38"/>
</radialGradient>
<radialGradient id="paint3_radial_47_2577" cx="0" cy="0" r="1" gradientUnits="userSpaceOnUse" gradientTransform="translate(303.912 609.632) rotate(-141) scale(52.3583)">
<stop stop-color="#7145FF" stop-opacity="0.878"/>
<stop offset="1" stop-color="#0008FF" stop-opacity="0"/>
</radialGradient>
</defs>
</svg>
