<svg width="1283" height="841" viewBox="0 0 1283 841" fill="none" xmlns="http://www.w3.org/2000/svg">
<path d="M353.199 135.223C260.337 60.0252 124.097 74.3445 48.8992 167.207C-26.2991 260.069 -11.9797 396.309 80.8824 471.507C173.745 546.705 309.984 532.386 385.183 439.524C460.381 346.661 446.061 210.422 353.199 135.223Z" fill="#0006F6"/>
<path d="M353.199 135.223C260.337 60.0252 124.097 74.3445 48.8992 167.207C-26.2991 260.069 -11.9797 396.309 80.8824 471.507C173.745 546.705 309.984 532.386 385.183 439.524C460.381 346.661 446.061 210.422 353.199 135.223Z" fill="url(#paint0_radial_32_399)"/>
<path d="M353.199 135.223C260.337 60.0252 124.097 74.3445 48.8992 167.207C-26.2991 260.069 -11.9797 396.309 80.8824 471.507C173.745 546.705 309.984 532.386 385.183 439.524C460.381 346.661 446.061 210.422 353.199 135.223Z" fill="url(#paint1_radial_32_399)"/>
<path d="M217.314 520.165C216.515 520.165 215.732 520.165 214.934 520.158C172.119 519.695 130.403 506.548 95.0591 482.379C59.7156 458.209 32.332 424.103 16.3706 384.372C0.409203 344.641 -3.41327 301.069 5.38646 259.166C14.1862 217.263 35.213 178.909 65.8083 148.955C96.4085 119.004 135.203 98.7984 177.286 90.8947C219.37 82.991 262.852 87.7437 302.234 104.552C341.616 121.36 375.13 149.469 398.537 185.324C421.944 221.179 434.193 263.169 433.736 305.986C433.127 362.989 410.059 417.452 369.54 457.551C329.02 497.651 274.32 520.15 217.314 520.165ZM217.183 88.4418C174.816 88.4563 133.396 100.974 98.1123 124.426C62.8286 147.878 35.2509 181.222 18.8346 220.279C2.41844 259.336 -2.10606 302.369 5.82808 343.986C13.7622 385.603 33.8021 423.953 63.4367 454.231C83.1614 474.492 106.709 490.639 132.716 501.739C158.723 512.838 186.674 518.669 214.95 518.894C215.741 518.902 216.531 518.909 217.314 518.909C259.681 518.897 301.102 506.38 336.387 482.929C371.671 459.478 399.25 426.134 415.666 387.077C432.083 348.019 436.607 304.986 428.673 263.368C420.738 221.751 400.697 183.401 371.061 153.124C351.338 132.862 327.792 116.714 301.786 105.615C275.78 94.5154 247.83 88.6848 219.555 88.4606C218.767 88.4448 217.974 88.4449 217.184 88.4449L217.183 88.4418Z" fill="black"/>
<path d="M215.337 492.363H215.229C212.097 492.333 209.745 490.959 209.763 489.17C209.778 488.249 210.408 487.427 211.559 486.852C212.737 486.336 214.01 486.077 215.296 486.091C216.581 486.106 217.848 486.394 219.014 486.936C220.141 487.537 220.764 488.371 220.757 489.285C220.734 491.047 218.416 492.363 215.337 492.363ZM215.187 487.358C214.134 487.333 213.089 487.549 212.132 487.987C211.44 488.333 211.042 488.77 211.034 489.185C211.027 490.068 212.823 491.074 215.241 491.096C217.698 491.127 219.486 490.152 219.494 489.269C219.501 488.862 219.11 488.417 218.427 488.056C217.448 487.585 216.373 487.346 215.287 487.357L215.187 487.358Z" fill="black"/>
<path d="M215.263 489.883C215.203 489.883 215.144 489.875 215.086 489.86C214.442 489.676 150.404 470.478 139.314 393.261C127.768 312.844 176.355 227.292 206.349 183.449C223.446 158.46 242.915 137.279 257.133 121.81C268.41 109.536 277.323 99.845 276.463 97.0902C276.394 96.8828 276.225 96.5838 275.511 96.4223C275.348 96.3858 275.206 96.2865 275.115 96.1459C275.025 96.0053 274.993 95.8347 275.027 95.6711C275.065 95.5071 275.166 95.3647 275.308 95.2743C275.45 95.1839 275.622 95.1526 275.787 95.1873C276.211 95.2429 276.611 95.4152 276.942 95.685C277.274 95.9548 277.524 96.3115 277.665 96.7153C278.702 100.016 272.031 107.471 258.057 122.671C243.87 138.11 224.432 159.245 207.389 184.164C177.507 227.852 129.08 313.091 140.573 393.077C149.963 458.462 197.621 481.784 211.592 487.274C201.159 478.652 170.659 447.246 183.871 383.289C198.059 314.625 243.144 251.774 276.065 205.874C280.057 200.315 283.896 194.965 287.519 189.829C314.242 151.981 326.58 132.912 324.261 121.696C323.555 118.295 321.428 115.547 317.75 113.305C317.608 113.215 317.507 113.073 317.468 112.91C317.429 112.746 317.456 112.574 317.543 112.43C317.586 112.359 317.643 112.297 317.71 112.248C317.777 112.2 317.853 112.165 317.934 112.145C318.014 112.126 318.098 112.123 318.18 112.136C318.262 112.149 318.34 112.179 318.411 112.222C322.403 114.664 324.721 117.673 325.496 121.435C327.915 133.142 315.485 152.404 288.555 190.558C284.923 195.695 281.085 201.052 277.093 206.618C244.235 252.422 199.24 315.14 185.112 383.55C169.55 458.853 215.137 488.423 215.597 488.717C215.726 488.797 215.822 488.922 215.866 489.067C215.909 489.213 215.899 489.37 215.835 489.508C215.788 489.62 215.708 489.715 215.606 489.782C215.504 489.849 215.385 489.884 215.263 489.883Z" fill="black"/>
<path d="M205.026 490.394C182.985 490.394 129.751 484.529 85.7711 433.293C19.8721 356.53 48.6785 254.503 64.1143 214.199C89.3335 148.39 150.842 95.321 190.278 88.834C190.443 88.81 190.612 88.851 190.748 88.9483C190.884 89.0456 190.977 89.1917 191.007 89.3561C191.033 89.5218 190.993 89.6911 190.895 89.8274C190.798 89.9638 190.651 90.0565 190.485 90.0856C170.51 93.3715 145.452 108.411 121.73 131.342C96.6183 155.631 76.5737 185.218 65.2967 214.654C49.9353 254.744 21.2739 356.218 86.7312 432.466C133.431 486.865 190.539 489.729 209.072 489.061C190.425 485.921 134.075 471.534 105.551 410.241C71.3803 336.826 94.78 249.354 128.075 191.969C161.674 134.044 212.265 90.7144 236.647 88.0505C236.73 88.0414 236.813 88.0487 236.893 88.0719C236.973 88.0952 237.048 88.1339 237.112 88.186C237.177 88.238 237.231 88.3023 237.271 88.3752C237.311 88.4481 237.337 88.5282 237.346 88.6109C237.355 88.6936 237.347 88.7772 237.324 88.8571C237.301 88.9369 237.262 89.0114 237.21 89.0763C237.158 89.1412 237.094 89.1951 237.021 89.2352C236.948 89.2752 236.868 89.3005 236.785 89.3095C212.745 91.9351 161.62 136.669 129.169 192.596C96.0353 249.705 72.7273 336.731 106.691 409.701C140.706 482.779 214.56 488.568 215.304 488.613C215.461 488.625 215.608 488.694 215.717 488.807C215.826 488.921 215.89 489.07 215.895 489.228C215.9 489.383 215.847 489.535 215.746 489.654C215.645 489.773 215.504 489.851 215.35 489.872C211.922 490.257 208.475 490.432 205.026 490.394Z" fill="black"/>
<path d="M166.099 502.595H165.3C137.133 502.38 93.566 490.672 45.9455 436.081C45.8346 435.953 45.7788 435.786 45.7903 435.618C45.8019 435.449 45.8798 435.291 46.0071 435.179C46.07 435.124 46.1434 435.081 46.223 435.054C46.3026 435.027 46.3868 435.016 46.4707 435.022C46.5546 435.027 46.6365 435.05 46.7117 435.087C46.7869 435.125 46.8538 435.177 46.9086 435.241C94.2143 489.481 137.405 501.118 165.311 501.325H166.102C187.666 501.325 203.527 494.761 210.689 491.108C191.672 495.263 172.017 495.587 152.874 492.06C120.277 486.095 73.6851 465.743 36.8209 402.669C36.6751 402.431 20.7683 376.759 14.7802 336.109C9.26003 298.607 11.2794 240.292 52.2589 175.452C83.9854 125.255 132.281 104.488 132.765 104.281C132.919 104.222 133.089 104.226 133.24 104.29C133.391 104.354 133.511 104.475 133.575 104.627C133.639 104.778 133.641 104.949 133.582 105.102C133.522 105.255 133.406 105.379 133.256 105.448C132.78 105.655 84.8373 126.275 53.3242 176.14C12.5595 240.641 10.5401 298.634 16.0295 335.929C21.9793 376.317 37.7404 401.767 37.9012 402.013C74.5205 464.667 120.728 484.875 153.04 490.81C188.063 497.228 214.802 488.73 215.063 488.645C215.209 488.599 215.367 488.607 215.508 488.667C215.649 488.728 215.763 488.837 215.831 488.975C215.898 489.111 215.913 489.267 215.873 489.414C215.834 489.561 215.742 489.688 215.616 489.773C215.424 489.904 196.2 502.595 166.099 502.595Z" fill="black"/>
<path d="M193.668 518.712C192.527 518.709 191.386 518.64 190.252 518.504C190.089 518.48 189.942 518.394 189.842 518.263C189.742 518.132 189.696 517.968 189.715 517.804C189.734 517.64 189.816 517.491 189.943 517.386C190.071 517.282 190.234 517.231 190.398 517.245C196.901 518.005 202.229 516.547 206.236 512.908C212.938 506.804 214.297 496.072 214.566 491.466C209.184 498.989 185.885 525.021 133.543 503.395C133.388 503.33 133.265 503.207 133.201 503.053C133.136 502.898 133.135 502.725 133.197 502.569C133.265 502.417 133.388 502.296 133.542 502.232C133.695 502.168 133.868 502.165 134.023 502.223C193.296 526.728 214.501 489.334 214.707 488.95C214.775 488.828 214.881 488.733 215.008 488.677C215.136 488.622 215.278 488.61 215.413 488.643C215.548 488.676 215.668 488.752 215.756 488.86C215.843 488.968 215.893 489.102 215.897 489.241C215.904 489.901 216.166 505.57 207.083 513.838C203.535 517.076 199.028 518.712 193.668 518.712Z" fill="black"/>
<path d="M230.691 519.763C230.529 519.761 230.373 519.697 230.257 519.584C230.14 519.471 230.071 519.317 230.064 519.155C230.057 518.993 230.113 518.834 230.219 518.711C230.326 518.589 230.475 518.512 230.637 518.496C232.134 518.358 233.017 517.851 233.347 516.945C233.553 516.262 233.571 515.535 233.4 514.842C231.361 513.988 229.428 512.898 227.643 511.594C216.442 503.449 214.699 489.899 214.63 489.331C214.615 489.199 214.641 489.066 214.704 488.949C214.767 488.832 214.865 488.738 214.983 488.678C215.104 488.625 215.238 488.608 215.368 488.632C215.498 488.655 215.618 488.717 215.713 488.809C217.601 490.705 232.09 505.46 234.437 513.905C240.909 516.469 248.739 516.876 257.821 515.088C257.985 515.06 258.154 515.096 258.292 515.189C258.431 515.281 258.529 515.424 258.565 515.587C258.597 515.751 258.562 515.922 258.469 516.061C258.375 516.201 258.231 516.298 258.066 516.331C249.092 518.096 241.269 517.774 234.728 515.372C234.818 516.045 234.752 516.731 234.537 517.375C234.03 518.773 232.756 519.579 230.752 519.763H230.691ZM216.274 491.197C217.203 495.265 220.143 504.585 228.396 510.579C229.818 511.609 231.334 512.501 232.925 513.243C230.545 506.949 221.487 496.624 216.274 491.197Z" fill="black"/>
<path d="M212.156 520.103H212.132C208.248 519.953 205.684 518.622 204.509 516.149C201.392 509.586 209.307 496.757 212.998 491.345L172.834 515.428C172.69 515.514 172.519 515.54 172.356 515.499C172.193 515.459 172.053 515.356 171.966 515.213C171.923 515.142 171.894 515.063 171.881 514.981C171.869 514.899 171.872 514.815 171.892 514.734C171.912 514.654 171.948 514.578 171.998 514.511C172.047 514.444 172.11 514.388 172.181 514.345L214.942 488.704C215.068 488.63 215.215 488.602 215.359 488.624C215.503 488.646 215.635 488.718 215.733 488.826C215.83 488.935 215.887 489.073 215.893 489.219C215.9 489.365 215.856 489.508 215.768 489.625C215.63 489.809 202.05 508.019 205.65 515.604C206.609 517.623 208.805 518.705 212.175 518.844C212.342 518.847 212.501 518.916 212.617 519.037C212.733 519.157 212.796 519.318 212.793 519.485C212.79 519.652 212.721 519.811 212.601 519.927C212.48 520.043 212.319 520.106 212.152 520.103H212.156Z" fill="black"/>
<path d="M142.692 503.696C136.983 503.696 132.22 503.043 129.073 501.462C128.998 501.425 128.932 501.374 128.878 501.312C128.823 501.249 128.782 501.177 128.756 501.098C128.73 501.019 128.721 500.936 128.728 500.853C128.735 500.771 128.758 500.691 128.796 500.617C128.833 500.543 128.884 500.477 128.946 500.423C129.009 500.368 129.081 500.327 129.16 500.3C129.238 500.274 129.321 500.263 129.403 500.269C129.486 500.275 129.567 500.296 129.641 500.333C143.597 507.35 192.561 494.875 209.374 490.253C187.748 491.474 114.433 494.314 89.897 478.776C89.7544 478.687 89.6533 478.544 89.6159 478.38C89.5785 478.216 89.6078 478.043 89.6975 477.901C89.7872 477.758 89.9298 477.657 90.094 477.62C90.2582 477.582 90.4305 477.612 90.5731 477.701C118.51 495.404 214.249 488.695 215.217 488.618C215.374 488.606 215.529 488.652 215.654 488.748C215.778 488.845 215.863 488.983 215.891 489.138C215.919 489.293 215.888 489.452 215.805 489.586C215.723 489.72 215.593 489.818 215.442 489.862C213.144 490.538 168.371 503.696 142.692 503.696Z" fill="black"/>
<path d="M215.258 489.882C215.152 489.883 215.046 489.856 214.952 489.805C214.858 489.754 214.779 489.68 214.721 489.59C214.506 489.237 193.172 453.816 234.535 382.028C258.894 339.766 286.455 303.674 310.786 271.84C327.729 249.654 343.736 228.696 355.41 209.68C382.387 165.713 368.96 151.609 363.223 145.584L362.67 145.009C362.555 144.885 362.494 144.721 362.5 144.552C362.505 144.383 362.578 144.223 362.701 144.107C362.761 144.05 362.832 144.006 362.91 143.976C362.987 143.947 363.07 143.933 363.153 143.936C363.236 143.939 363.317 143.958 363.392 143.993C363.468 144.028 363.535 144.077 363.591 144.138L364.137 144.706C370.072 150.941 383.974 165.541 356.483 210.337C344.783 229.414 328.754 250.395 311.784 272.605C287.491 304.421 259.943 340.473 235.634 382.658C199.068 446.123 211.781 480.646 215.105 487.602C216.955 481.56 220.571 470.367 239.049 442.077C254.196 418.892 282.409 389.097 312.272 357.553C333.758 334.859 355.97 311.399 376.076 287.669C423.904 231.243 406.178 200.459 405.994 200.159C405.948 200.089 405.916 200.009 405.901 199.926C405.886 199.843 405.888 199.758 405.907 199.676C405.925 199.594 405.96 199.516 406.009 199.448C406.058 199.379 406.12 199.321 406.192 199.277C406.264 199.233 406.344 199.204 406.427 199.191C406.51 199.178 406.596 199.182 406.677 199.203C406.759 199.224 406.836 199.26 406.903 199.311C406.97 199.362 407.027 199.426 407.069 199.499C407.26 199.806 425.524 231.289 377.044 288.49C356.915 312.243 334.689 335.719 313.194 358.42C283.37 389.919 255.194 419.675 240.109 442.775C221.361 471.464 218.006 482.426 216.21 488.314L215.865 489.441C215.828 489.555 215.76 489.657 215.667 489.733C215.575 489.809 215.462 489.857 215.343 489.871L215.258 489.882Z" fill="black"/>
<path d="M215.267 489.879C215.162 489.879 215.058 489.853 214.966 489.804C214.874 489.754 214.795 489.683 214.737 489.595C214.662 489.477 214.628 489.337 214.639 489.197C214.65 489.057 214.706 488.925 214.799 488.82C220.802 482.171 248.194 460.829 282.87 433.806C310.584 412.211 341.993 387.737 371.663 363.662C437.954 309.885 430.161 271.699 430.077 271.323C430.039 271.16 430.068 270.989 430.156 270.847C430.245 270.705 430.386 270.604 430.549 270.567C430.712 270.529 430.883 270.558 431.025 270.646C431.167 270.735 431.268 270.876 431.305 271.039C431.398 271.423 439.443 310.306 372.461 364.644C342.782 388.726 311.36 413.209 283.646 434.804C251.963 459.493 226.368 479.438 217.709 487.683C225.064 484.919 247.383 476.137 279.532 459.693C286.702 456.023 294.463 452.245 302.686 448.246C355.227 422.666 420.62 390.837 429.157 341.574C429.17 341.492 429.199 341.413 429.243 341.343C429.288 341.272 429.345 341.211 429.413 341.163C429.481 341.115 429.558 341.081 429.639 341.063C429.72 341.046 429.804 341.044 429.886 341.059C430.051 341.088 430.198 341.181 430.294 341.318C430.391 341.454 430.429 341.624 430.401 341.789C421.753 391.698 356.038 423.68 303.237 449.382C295.023 453.382 287.269 457.159 280.106 460.821C240.455 481.104 215.72 489.763 215.474 489.847C215.407 489.869 215.337 489.88 215.267 489.879Z" fill="black"/>
<path d="M231.073 490.094C222.144 490.094 216.248 489.917 215.235 489.879C215.079 489.874 214.931 489.811 214.819 489.704C214.706 489.596 214.638 489.45 214.626 489.295C214.615 489.139 214.661 488.985 214.756 488.862C214.852 488.739 214.989 488.655 215.143 488.627C273.196 477.764 306.238 469.98 348.592 452.53C390.915 435.08 401.271 415.389 401.371 415.19C401.451 415.049 401.583 414.945 401.738 414.898C401.893 414.851 402.06 414.866 402.204 414.939C402.349 415.012 402.46 415.137 402.515 415.289C402.569 415.442 402.563 415.609 402.498 415.758C402.083 416.579 391.897 436.048 349.066 453.695C308.113 470.58 275.853 478.441 221.415 488.735C245.621 489.042 334.367 488.566 358.764 465.835C358.888 465.724 359.051 465.665 359.217 465.673C359.383 465.68 359.54 465.752 359.653 465.874C359.767 465.995 359.828 466.156 359.824 466.323C359.82 466.489 359.751 466.647 359.632 466.763C337.177 487.676 263.789 490.094 231.073 490.094Z" fill="black"/>
<path d="M263.461 509.685C229.482 509.685 214.943 489.886 214.751 489.609C214.676 489.505 214.636 489.381 214.635 489.254C214.633 489.126 214.671 489.001 214.743 488.896C214.813 488.787 214.915 488.704 215.035 488.657C215.155 488.61 215.286 488.602 215.411 488.635C216.155 488.811 290.231 506.23 312.057 496.788C312.133 496.753 312.216 496.734 312.299 496.731C312.383 496.729 312.467 496.743 312.545 496.773C312.624 496.803 312.695 496.848 312.756 496.906C312.817 496.964 312.865 497.034 312.899 497.11C312.932 497.187 312.95 497.27 312.952 497.354C312.953 497.438 312.937 497.521 312.906 497.599C312.875 497.677 312.829 497.748 312.77 497.808C312.711 497.867 312.641 497.915 312.563 497.947C312.018 498.185 311.442 498.398 310.835 498.608C310.826 498.722 310.785 498.831 310.717 498.923C310.649 499.015 310.557 499.087 310.451 499.13C291.843 506.868 276.268 509.685 263.461 509.685ZM216.946 490.285C222.589 496.603 249.036 521.093 304.733 500.043C279.238 504.027 227.556 492.722 216.946 490.285Z" fill="black"/>
<path d="M270.909 513.313C260.829 513.313 216.916 490.811 214.967 489.813C214.827 489.73 214.724 489.597 214.68 489.441C214.635 489.285 214.652 489.118 214.726 488.974C214.801 488.829 214.928 488.719 215.081 488.666C215.234 488.612 215.402 488.62 215.551 488.686C229.269 495.741 266.103 513.682 271.685 511.962C271.765 511.938 271.849 511.929 271.932 511.937C272.015 511.945 272.095 511.969 272.169 512.009C272.243 512.048 272.308 512.101 272.361 512.165C272.414 512.23 272.454 512.304 272.478 512.384C272.502 512.464 272.511 512.548 272.503 512.631C272.494 512.714 272.47 512.794 272.43 512.868C272.391 512.942 272.337 513.007 272.273 513.059C272.208 513.112 272.134 513.152 272.054 513.176C271.681 513.276 271.295 513.322 270.909 513.313Z" fill="black"/>
<path d="M263.628 501.042C235.253 501.042 215.063 489.972 214.833 489.841C214.701 489.767 214.6 489.649 214.548 489.507C214.496 489.365 214.496 489.209 214.549 489.067C214.602 488.925 214.704 488.807 214.836 488.734C214.968 488.661 215.122 488.637 215.27 488.667C262.491 498.602 306.051 486.809 348.436 452.624C390.337 418.822 410.742 362.503 412.367 321.682C414.086 278.699 412.351 231.67 371.517 171.209C331.769 112.338 281.446 98.1622 280.94 98.0239C280.782 97.9763 280.649 97.8693 280.57 97.7254C280.49 97.5816 280.469 97.4123 280.512 97.2535C280.555 97.0947 280.658 96.9588 280.799 96.8748C280.941 96.7907 281.109 96.765 281.269 96.8032C281.776 96.9414 332.536 111.22 372.572 170.5C413.613 231.276 415.363 278.539 413.636 321.737C411.993 362.839 391.442 419.557 349.234 453.604C308.001 486.863 265.655 499.078 219.938 490.871C237.978 498.523 257.712 501.297 277.162 498.916C311.003 494.548 358.584 473.529 390.629 427.635C413.007 395.584 419.034 376.729 423.683 358.671C428.474 340.07 433.318 317.123 430.124 280.121C426.877 242.55 407.287 202.921 407.086 202.529C407.043 202.455 407.017 202.373 407.007 202.287C406.997 202.202 407.005 202.116 407.03 202.034C407.055 201.952 407.096 201.876 407.151 201.81C407.206 201.744 407.274 201.691 407.35 201.652C407.427 201.613 407.511 201.591 407.596 201.586C407.682 201.58 407.767 201.593 407.848 201.621C407.929 201.65 408.003 201.695 408.065 201.754C408.128 201.812 408.178 201.883 408.213 201.961C408.413 202.36 428.121 242.196 431.382 280.016C434.591 317.219 429.724 340.288 424.91 358.988C420.227 377.159 414.162 396.137 391.668 428.357C359.379 474.596 311.428 495.769 277.319 500.176C272.779 500.756 268.205 501.045 263.628 501.042Z" fill="black"/>
<path d="M219.804 490.045C216.874 490.045 215.198 489.93 215.091 489.922C214.936 489.91 214.791 489.842 214.683 489.73C214.575 489.618 214.513 489.471 214.507 489.316C214.501 489.161 214.552 489.01 214.649 488.89C214.747 488.77 214.884 488.689 215.037 488.663C284.122 477.293 329.451 418.249 330.514 338.232C331.566 259.329 282.141 171.288 246.705 133.969C208.741 93.989 191.291 90.0127 191.122 89.9819C190.958 89.9486 190.814 89.8516 190.721 89.7121C190.628 89.5727 190.594 89.4021 190.626 89.2377C190.659 89.0733 190.755 88.9284 190.894 88.8348C191.033 88.7411 191.203 88.7062 191.368 88.7378C192.082 88.8836 209.286 92.7142 247.625 133.096C283.2 170.567 332.832 258.991 331.78 338.256C331.265 376.779 320.661 411.256 301.118 437.957C281.718 464.458 254.258 481.931 221.4 488.771C240.769 488.51 301.164 483.121 341.529 428.783C391.645 361.317 381.535 271.665 355.364 210.265C329.562 149.712 277.826 97.6513 235.027 89.1683C234.863 89.135 234.719 89.038 234.626 88.8985C234.533 88.7591 234.499 88.5885 234.531 88.4241C234.564 88.2597 234.66 88.1148 234.799 88.0212C234.938 87.9275 235.108 87.8927 235.273 87.9242C278.448 96.4839 330.575 148.864 356.531 209.766C382.84 271.489 392.981 361.64 342.544 429.535C300.681 485.894 237.461 490.045 219.804 490.045Z" fill="black"/>
<path d="M215.141 489.922H215.11C214.977 489.914 214.85 489.865 214.747 489.781C214.643 489.697 214.569 489.582 214.535 489.454C214.504 489.339 211.334 478.145 184.717 443.953C169.532 424.453 145.496 399.971 120.054 374.054C93.5532 347.054 66.1464 319.133 45.4264 293.568C4.88403 243.552 20.9591 212.178 21.1304 211.861C21.2116 211.715 21.3473 211.606 21.5082 211.558C21.669 211.511 21.8421 211.529 21.9898 211.608C22.0629 211.647 22.1276 211.7 22.18 211.764C22.2324 211.828 22.2716 211.902 22.2951 211.981C22.3187 212.06 22.3262 212.144 22.3173 212.226C22.3083 212.308 22.2831 212.388 22.243 212.46C22.0815 212.767 6.4436 243.46 46.4105 292.768C67.0922 318.286 94.4758 346.181 120.962 373.161C146.434 399.109 170.486 423.615 185.719 443.177C206.846 470.315 213.249 482.906 215.083 487.275C217.122 479.095 222.689 443.207 183.965 383.762C152.85 335.996 137.335 316.443 120.907 295.738C113.898 286.909 106.659 277.773 98.1366 266.304C73.5777 233.224 36.467 183.231 60.1507 154.711C60.2586 154.582 60.4135 154.5 60.5814 154.485C60.7492 154.47 60.9163 154.522 61.0458 154.63C61.1753 154.738 61.2567 154.893 61.272 155.06C61.2872 155.228 61.2352 155.395 61.1273 155.525C38.0807 183.277 74.8383 232.786 99.159 265.544C107.665 277.005 114.904 286.128 121.898 294.954C137.621 314.761 153.881 335.251 185.026 383.07C229.575 451.457 215.88 489.146 215.734 489.512C215.689 489.632 215.608 489.736 215.502 489.81C215.396 489.883 215.27 489.922 215.141 489.922Z" fill="black"/>
<path d="M215.14 489.92C215.031 489.919 214.924 489.89 214.828 489.836C214.733 489.783 214.653 489.706 214.595 489.613C214.523 489.487 214.495 489.34 214.518 489.196C214.54 489.052 214.61 488.92 214.717 488.822C251.59 455.074 249.103 397.005 207.332 316.236C195.079 292.552 169.615 254.321 147.152 220.588C126.11 188.99 107.937 161.699 102.94 150.229C92.3843 125.977 106.103 117.85 106.241 117.77C106.313 117.728 106.392 117.701 106.475 117.69C106.557 117.68 106.641 117.685 106.721 117.708C106.802 117.73 106.877 117.768 106.942 117.82C107.007 117.871 107.061 117.936 107.101 118.009C107.142 118.08 107.169 118.159 107.18 118.241C107.191 118.323 107.185 118.407 107.164 118.486C107.143 118.566 107.106 118.641 107.055 118.707C107.005 118.772 106.942 118.827 106.87 118.869C106.341 119.176 94.0242 126.569 104.099 149.722C109.051 161.092 128.074 189.65 148.211 219.888C170.689 253.644 196.17 291.906 208.453 315.652C249.594 395.201 252.787 452.97 217.988 487.455C230.263 482.046 275.673 457.63 280.74 391.116C285.43 329.485 261.094 261.79 206.358 184.167C193.821 166.395 182.19 151.302 172.848 139.173C156.595 118.076 146.784 105.34 148.573 99.9126C148.809 99.2578 149.21 98.675 149.737 98.2205C150.264 97.766 150.9 97.4551 151.582 97.3178C151.743 97.272 151.916 97.292 152.062 97.3733C152.208 97.4547 152.316 97.5908 152.362 97.7517C152.407 97.9125 152.388 98.085 152.306 98.2312C152.225 98.3774 152.089 98.4852 151.928 98.5311C151.447 98.6162 150.996 98.8243 150.62 99.1351C150.243 99.4459 149.953 99.8488 149.778 100.305C148.197 105.103 158.407 118.346 173.854 138.398C183.204 150.535 194.843 165.643 207.387 183.439C262.307 261.305 286.713 329.27 281.999 391.207C276.103 468.691 215.954 489.68 215.347 489.887C215.28 489.909 215.211 489.921 215.14 489.92Z" fill="black"/>
<path d="M215.143 489.918C215.072 489.919 215.002 489.909 214.935 489.887C214.291 489.657 149.834 466.925 85.9619 433.438C32.4456 405.387 16.5471 385.196 9.13083 363.509C9.08087 363.351 9.09471 363.18 9.16937 363.032C9.24403 362.885 9.37357 362.772 9.53022 362.719C9.68687 362.666 9.85815 362.676 10.0073 362.747C10.1565 362.819 10.2718 362.946 10.3283 363.101C17.6447 384.497 33.4057 404.457 86.5532 432.317C141.037 460.883 195.934 481.612 211.205 487.193C197.025 476.844 143.708 437.945 105.753 410.484L104.225 409.379C60.6428 377.849 -5.2104 330.214 1.7679 284.305C1.79407 284.139 1.88431 283.99 2.01927 283.889C2.15423 283.789 2.32316 283.745 2.48984 283.768C2.65579 283.794 2.8048 283.884 2.90412 284.019C3.00343 284.155 3.04492 284.324 3.01947 284.49C-3.84389 329.64 61.6337 377.005 104.963 408.35L106.499 409.456C150.411 441.223 214.874 488.307 215.52 488.775C215.642 488.865 215.728 488.996 215.762 489.143C215.795 489.291 215.775 489.447 215.704 489.581C215.651 489.684 215.57 489.769 215.471 489.829C215.372 489.889 215.258 489.919 215.143 489.918Z" fill="black"/>
<path d="M215.383 489.908L215.314 489.9C186.863 486.67 115.305 472.642 83.7382 459.407C53.7133 446.822 44.7773 434.588 44.4084 434.073C44.3113 433.936 44.2721 433.767 44.2994 433.602C44.3267 433.436 44.4183 433.288 44.5542 433.19C44.6215 433.141 44.6979 433.106 44.7789 433.087C44.8599 433.068 44.9439 433.065 45.026 433.078C45.1082 433.092 45.1868 433.122 45.2573 433.166C45.3278 433.21 45.3889 433.268 45.4369 433.336C45.5293 433.458 54.5878 445.819 84.2288 458.24C113.647 470.577 183.039 484.964 215.46 488.641C215.62 488.66 215.768 488.74 215.872 488.864C215.976 488.989 216.028 489.148 216.019 489.31C216.009 489.471 215.938 489.623 215.82 489.734C215.702 489.845 215.547 489.907 215.385 489.908H215.383Z" fill="black"/>
<path d="M1281.69 572.765C1287.07 419.47 1167.29 290.852 1014.16 285.488C861.034 280.125 732.545 400.048 727.173 553.343C721.801 706.638 841.58 835.256 994.707 840.619C1147.83 845.983 1276.32 726.06 1281.69 572.765Z" fill="#FF6B00"/>
<path d="M1281.69 572.765C1287.07 419.47 1167.29 290.852 1014.16 285.488C861.034 280.125 732.545 400.048 727.173 553.343C721.801 706.638 841.58 835.256 994.707 840.619C1147.83 845.983 1276.32 726.06 1281.69 572.765Z" fill="url(#paint2_radial_32_399)"/>
<path d="M1281.69 572.765C1287.07 419.47 1167.29 290.852 1014.16 285.488C861.034 280.125 732.545 400.048 727.173 553.343C721.801 706.638 841.58 835.256 994.707 840.619C1147.83 845.983 1276.32 726.06 1281.69 572.765Z" fill="url(#paint3_radial_32_399)"/>
<path d="M1004.87 840.647C1000.77 840.647 996.69 840.562 992.575 840.384C956.115 838.81 920.323 830.072 887.241 814.669C854.159 799.265 824.435 777.498 799.768 750.61C775.101 723.722 755.973 692.24 743.476 657.962C730.979 623.683 725.359 587.28 726.935 550.829C733.545 397.787 863.545 278.683 1016.57 285.26C1169.65 291.868 1288.82 421.763 1282.21 574.813C1279.12 646.303 1248.56 713.844 1196.89 763.366C1145.23 812.887 1076.44 840.57 1004.87 840.645V840.647ZM1004.42 286.276C857.329 286.276 734.619 402.574 728.214 550.884C725.048 624.159 751.127 695.69 800.714 749.742C850.301 803.793 919.335 835.938 992.629 839.105C1065.92 842.271 1137.47 816.199 1191.54 766.625C1245.61 717.051 1277.76 648.035 1280.93 574.76C1287.51 422.414 1168.89 293.116 1016.51 286.539C1012.47 286.361 1008.43 286.276 1004.42 286.276Z" fill="black"/>
<path d="M1273.09 632.608L1273 632.603C1272.83 632.578 1272.68 632.486 1272.58 632.35C1272.48 632.213 1272.44 632.042 1272.46 631.875C1272.67 630.542 1272.9 629.133 1273.14 627.645C1274.7 618.07 1276.84 604.962 1276.01 587.702C1272.19 508.496 1227.95 424.905 1160.58 369.529C1113.76 331.05 1068.82 303.651 1001.66 295.008C972.922 291.305 949.408 291.94 927.659 296.991C927.577 297.013 927.492 297.018 927.409 297.006C927.325 296.994 927.245 296.965 927.173 296.921C927.101 296.876 927.039 296.818 926.991 296.749C926.942 296.68 926.909 296.602 926.891 296.519C926.871 296.438 926.867 296.353 926.88 296.27C926.893 296.187 926.922 296.108 926.966 296.036C927.01 295.965 927.068 295.903 927.136 295.854C927.205 295.805 927.282 295.77 927.364 295.752C949.27 290.662 972.938 290.027 1001.82 293.738C1069.29 302.422 1114.4 329.924 1161.4 368.543C1229.04 424.136 1273.44 508.091 1277.28 587.637C1278.13 605.03 1275.97 618.215 1274.4 627.845C1274.16 629.332 1273.93 630.742 1273.73 632.067C1273.7 632.217 1273.63 632.354 1273.51 632.453C1273.39 632.552 1273.25 632.607 1273.09 632.608Z" fill="black"/>
<path d="M1281.69 554.27C1281.53 554.269 1281.38 554.207 1281.26 554.096C1281.14 553.985 1281.07 553.834 1281.06 553.673C1276.35 482.95 1240.65 413.42 1183.1 362.91C1153.76 337.151 1093.86 293.008 1022.23 286.726C1022.14 286.721 1022.06 286.699 1021.98 286.661C1021.91 286.623 1021.84 286.57 1021.78 286.506C1021.73 286.441 1021.68 286.365 1021.66 286.284C1021.63 286.202 1021.62 286.116 1021.63 286.031C1021.64 285.945 1021.66 285.862 1021.7 285.787C1021.74 285.711 1021.8 285.645 1021.87 285.591C1021.93 285.537 1022.01 285.498 1022.09 285.474C1022.17 285.451 1022.26 285.445 1022.35 285.455C1094.33 291.77 1154.49 336.09 1183.95 361.948C1241.74 412.675 1277.6 482.522 1282.33 553.587C1282.33 553.671 1282.32 553.755 1282.3 553.835C1282.27 553.914 1282.23 553.988 1282.17 554.051C1282.12 554.115 1282.05 554.167 1281.97 554.204C1281.9 554.241 1281.82 554.263 1281.73 554.269L1281.69 554.27Z" fill="black"/>
<path d="M1239.87 710.062C1239.75 710.061 1239.64 710.029 1239.55 709.969C1239.47 709.928 1239.41 709.873 1239.36 709.806C1239.31 709.74 1239.27 709.665 1239.25 709.584C1239.23 709.503 1239.22 709.419 1239.23 709.336C1239.24 709.253 1239.27 709.173 1239.32 709.101C1239.51 708.76 1259.07 674.503 1258.98 620.963C1258.9 571.535 1241.59 495.096 1159.56 411.583C1081.33 331.944 1004.63 312.809 954.067 310.779C899.304 308.58 862.511 325.436 862.146 325.607C861.992 325.676 861.816 325.682 861.657 325.624C861.498 325.567 861.368 325.449 861.294 325.297C861.222 325.142 861.215 324.966 861.273 324.806C861.331 324.647 861.45 324.516 861.604 324.444C861.968 324.274 898.978 307.285 954.051 309.5C1004.86 311.529 1081.92 330.727 1160.46 410.692C1242.83 494.539 1260.19 571.359 1260.26 621.041C1260.33 674.906 1240.62 709.396 1240.42 709.744C1240.36 709.841 1240.28 709.921 1240.18 709.976C1240.09 710.032 1239.98 710.062 1239.87 710.062Z" fill="black"/>
<path d="M1193.69 766.027C1193.54 766.028 1193.39 765.976 1193.27 765.88C1193.14 765.767 1193.06 765.609 1193.05 765.438C1193.04 765.268 1193.1 765.099 1193.21 764.97C1226.9 725.995 1238.61 673.687 1227.06 613.686C1208.61 517.889 1135.18 424.159 1039.99 374.894C958.108 332.526 896.378 336.174 859.005 346.693C818.523 358.096 797.112 379.796 796.9 380.013C796.783 380.135 796.622 380.206 796.452 380.21C796.283 380.213 796.119 380.149 795.997 380.032C795.875 379.915 795.804 379.754 795.8 379.585C795.797 379.416 795.861 379.252 795.978 379.13C796.195 378.902 817.799 356.993 858.583 345.485C896.182 334.886 958.283 331.175 1040.57 373.762C1088.15 398.383 1131.11 434.523 1164.81 478.271C1197.5 520.709 1219.45 567.455 1228.31 613.449C1239.94 673.845 1228.13 726.532 1194.18 765.81C1194.12 765.879 1194.04 765.934 1193.96 765.971C1193.87 766.009 1193.78 766.028 1193.69 766.027Z" fill="black"/>
<path d="M1125.2 812.974C1125.06 812.975 1124.93 812.931 1124.82 812.849C1124.71 812.767 1124.63 812.651 1124.59 812.52C1124.55 812.388 1124.55 812.247 1124.6 812.118C1124.65 811.989 1124.74 811.879 1124.85 811.804C1191.57 768.242 1197.78 703.291 1191.23 656.47C1175.66 545.013 1073.31 426.506 963.059 392.303C876.323 365.383 822.901 383.957 793.353 404.286C761.38 426.287 749.733 454.967 749.617 455.246C749.589 455.327 749.545 455.401 749.487 455.464C749.429 455.527 749.36 455.578 749.282 455.614C749.204 455.65 749.12 455.669 749.034 455.672C748.949 455.674 748.864 455.659 748.784 455.628C748.704 455.597 748.632 455.55 748.571 455.49C748.509 455.43 748.461 455.358 748.428 455.279C748.395 455.2 748.379 455.115 748.379 455.03C748.38 454.944 748.398 454.86 748.432 454.781C748.548 454.487 760.338 425.451 792.633 403.231C822.405 382.747 876.207 364.007 963.439 391.075C1074.11 425.417 1176.87 544.389 1192.5 656.288C1196.97 688.267 1194.03 717.606 1183.77 743.481C1172.62 771.58 1153.04 794.921 1125.55 812.864C1125.45 812.936 1125.33 812.975 1125.2 812.974Z" fill="black"/>
<path d="M1056.01 835.773C1055.86 835.774 1055.72 835.721 1055.6 835.624C1055.48 835.527 1055.41 835.391 1055.38 835.242C1055.36 835.093 1055.39 834.94 1055.46 834.81C1055.54 834.681 1055.66 834.582 1055.8 834.534C1116.28 813.539 1148.89 766.817 1147.65 702.973C1145.73 605.229 1060.32 475.237 936.209 437.513C874.673 418.804 824.575 421.112 787.31 444.369C739.347 474.296 729.996 529.315 729.904 529.873C729.876 530.041 729.783 530.19 729.645 530.289C729.507 530.388 729.335 530.428 729.168 530.4C729 530.373 728.85 530.279 728.752 530.141C728.653 530.003 728.613 529.832 728.641 529.664C728.734 529.106 738.164 473.537 786.619 443.292C824.211 419.827 874.665 417.464 936.58 436.289C992.886 453.402 1046.22 491.796 1086.76 544.394C1125.27 594.353 1147.93 652.148 1148.92 702.945C1150.18 767.393 1117.26 814.557 1056.22 835.745C1056.15 835.765 1056.08 835.775 1056.01 835.773Z" fill="black"/>
<path d="M975.233 836.812C966.854 836.797 958.484 836.253 950.173 835.185C950.09 835.174 950.01 835.147 949.937 835.106C949.865 835.064 949.801 835.009 949.75 834.942C949.699 834.876 949.662 834.801 949.64 834.72C949.618 834.639 949.612 834.555 949.623 834.472C949.648 834.306 949.737 834.157 949.869 834.054C950.002 833.952 950.169 833.904 950.336 833.922C1001.97 840.437 1044.65 827.073 1070.53 796.263C1097.88 763.688 1103.45 715.028 1086.2 659.265C1066.73 596.32 1014.17 536.074 949.022 502.046C899.838 476.346 850.406 469.306 809.832 482.206C759.025 498.367 741.319 535.986 735.408 564.704C728.992 595.87 734.68 623.558 734.734 623.83C734.754 623.913 734.758 623.999 734.744 624.083C734.73 624.167 734.7 624.248 734.654 624.32C734.609 624.393 734.549 624.455 734.479 624.504C734.409 624.553 734.33 624.587 734.246 624.604C734.163 624.622 734.076 624.623 733.993 624.606C733.909 624.59 733.829 624.557 733.758 624.509C733.687 624.462 733.627 624.4 733.58 624.329C733.534 624.257 733.502 624.177 733.487 624.093C733.425 623.814 727.683 595.87 734.153 564.449C740.136 535.398 758.052 497.336 809.453 480.99C850.352 467.99 900.133 475.055 949.627 500.907C1015.06 535.097 1067.86 595.622 1087.43 658.885C1104.81 715.082 1099.15 764.16 1071.5 797.087C1049.67 823.084 1016.03 836.812 975.233 836.812Z" fill="black"/>
<path d="M944.825 822.38C904.545 822.38 860.578 803.048 819.925 767.26C750.009 705.71 726.486 611.985 768.54 562.606C785.107 543.145 808.672 531.866 836.686 529.975C880.204 527.054 930.923 547.421 972.334 584.522C1040.7 645.762 1063.87 738.843 1022.93 787.781C1005.96 808.047 982.183 819.892 954.15 822.023C951.064 822.263 947.956 822.382 944.825 822.38ZM820.767 766.299C864.317 804.646 911.665 823.976 954.045 820.753C981.732 818.645 1005.21 806.963 1021.94 786.961C1062.45 738.542 1039.35 646.274 971.48 585.475C930.316 548.607 879.97 528.333 836.769 531.246C809.112 533.121 785.85 544.246 769.514 563.435C727.904 612.298 751.369 705.198 820.77 766.299H820.767Z" fill="black"/>
<path d="M915.48 796.31C886.568 796.31 855.043 782.467 825.924 756.823C775.757 712.649 758.957 645.281 789.255 609.714C801.22 595.661 818.229 587.511 838.439 586.148C869.675 584.033 906.058 598.643 935.721 625.216C984.783 669.173 1001.31 736.085 971.825 771.326C959.573 785.967 942.409 794.513 922.184 796.054C919.967 796.225 917.727 796.31 915.48 796.31ZM844.475 587.226C842.475 587.226 840.492 587.291 838.524 587.42C818.671 588.76 801.963 596.763 790.22 610.542C760.373 645.591 777.111 712.139 826.768 755.863C857.896 783.272 891.754 797.103 922.086 794.784C941.954 793.273 958.817 784.876 970.836 770.505C999.903 735.774 983.428 669.677 934.864 626.169C907.327 601.495 873.991 587.225 844.475 587.225V587.226Z" fill="black"/>
<path d="M890.524 759.915C874.383 759.915 856.769 752.176 840.496 737.844C812.483 713.185 803.083 675.597 819.976 655.756C826.649 647.924 836.128 643.384 847.4 642.625C864.851 641.448 885.164 649.605 901.737 664.459C929.13 689.001 938.383 726.335 921.939 745.988C915.114 754.146 905.55 758.91 894.267 759.771C893.038 759.868 891.783 759.915 890.524 759.915ZM850.774 643.787C849.666 643.787 848.575 643.818 847.488 643.895C836.569 644.631 827.393 649.024 820.955 656.585C804.5 675.898 813.842 712.674 841.343 736.891C858.623 752.099 877.362 759.792 894.177 758.497C905.103 757.663 914.364 753.051 920.965 745.164C936.975 726.029 927.785 689.502 900.887 665.409C885.595 651.712 867.109 643.787 850.774 643.787Z" fill="black"/>
<path d="M726.857 252.312C796.302 252.312 852.599 196.048 852.599 126.644C852.599 57.2388 796.302 0.975098 726.857 0.975098C657.412 0.975098 601.115 57.2388 601.115 126.644C601.115 196.048 657.412 252.312 726.857 252.312Z" fill="#00FF46"/>
<path d="M726.666 251.315C709.82 251.311 693.148 247.926 677.644 241.364C613.58 214.349 583.54 140.461 610.66 76.6609C637.779 12.8606 711.965 -17.069 776.021 9.94287C840.076 36.9548 870.125 110.845 843.005 174.654C833.308 197.395 817.106 216.79 796.418 230.422C775.73 244.054 751.471 251.32 726.666 251.315ZM726.85 1.37347C695.861 1.31655 665.955 12.7286 642.937 33.3948C619.92 54.0611 605.431 82.5077 602.283 113.214C599.135 143.92 607.553 174.696 625.903 199.57C644.252 224.443 671.225 241.639 701.586 247.821C731.948 254.004 763.532 248.731 790.211 233.026C816.889 217.322 836.758 192.306 845.962 162.832C855.167 133.359 853.049 101.531 840.022 73.5255C826.994 45.5195 803.985 23.3329 775.459 11.2714C760.087 4.75693 743.556 1.38968 726.85 1.37006V1.37347Z" fill="black"/>
<path d="M784.958 59.5264C776.52 59.5264 766.916 57.4122 757.531 53.4464C746.866 48.9557 737.729 42.6039 731.807 35.5715C725.763 28.4076 723.764 21.3582 726.158 15.7322C728.553 10.1061 735.025 6.6259 744.392 5.96507C753.584 5.31877 764.513 7.42436 775.187 11.9228C785.844 16.4221 794.983 22.7645 800.904 29.7968C806.947 36.9607 808.947 44.0101 806.552 49.6362C804.158 55.2622 797.684 58.739 788.318 59.4118C787.221 59.4828 786.107 59.5264 784.958 59.5264ZM747.76 7.28416C746.644 7.28416 745.559 7.32776 744.488 7.39786C735.699 8.02706 729.657 11.1893 727.481 16.2887C725.315 21.3992 727.244 27.9152 732.911 34.6431C738.69 41.501 747.637 47.7127 758.092 52.1239C768.547 56.5351 779.248 58.615 788.219 57.9679C797.008 57.3387 803.05 54.185 805.226 49.0771C807.402 43.9691 805.463 37.4506 799.797 30.7226C794.017 23.8647 785.07 17.6625 774.615 13.2504C765.398 9.36154 755.996 7.28416 747.76 7.28416Z" fill="black"/>
<path d="M779.231 208.145C755.724 208.145 727.904 202.247 699.379 190.219C635.052 163.085 595.775 117.16 608.019 83.3941C608.086 83.2144 608.221 83.0679 608.394 82.9862C608.568 82.9045 608.767 82.8941 608.949 82.9573C609.038 82.9897 609.121 83.0394 609.191 83.1035C609.261 83.1677 609.317 83.2451 609.357 83.3311C609.397 83.4172 609.419 83.5103 609.423 83.605C609.427 83.6998 609.411 83.7943 609.378 83.8831C597.397 116.923 636.329 162.063 699.948 188.892C763.231 215.589 822.883 212.008 838.697 180.566C838.737 180.477 838.794 180.396 838.866 180.33C838.938 180.263 839.022 180.212 839.114 180.179C839.206 180.146 839.304 180.132 839.402 180.138C839.5 180.144 839.595 180.17 839.683 180.214C839.77 180.258 839.848 180.319 839.911 180.393C839.974 180.468 840.021 180.555 840.049 180.648C840.077 180.742 840.086 180.84 840.075 180.937C840.064 181.034 840.034 181.127 839.985 181.212C831.033 199.017 808.465 208.145 779.231 208.145Z" fill="black"/>
<path d="M761.514 233.734C739.033 233.734 713.027 228.291 687.731 217.624C642.419 198.518 607.643 166.115 601.169 137.008C601.129 136.822 601.165 136.627 601.268 136.467C601.372 136.307 601.535 136.194 601.722 136.153C601.814 136.131 601.91 136.127 602.004 136.142C602.097 136.158 602.187 136.192 602.267 136.242C602.347 136.293 602.416 136.359 602.47 136.437C602.524 136.515 602.561 136.603 602.58 136.695C608.957 165.376 643.401 197.368 688.3 216.299C733.157 235.219 780.187 237.604 805.318 222.216C805.483 222.117 805.679 222.086 805.866 222.13C806.053 222.174 806.215 222.29 806.318 222.452C806.415 222.616 806.445 222.812 806.4 222.997C806.356 223.183 806.242 223.344 806.081 223.448C794.818 230.337 779.266 233.734 761.514 233.734Z" fill="black"/>
<path d="M742.419 248.219C722.983 248.219 701.248 243.589 680.425 234.809C652.761 223.147 629.27 205.23 615.985 185.653C615.93 185.575 615.892 185.488 615.873 185.395C615.853 185.303 615.852 185.207 615.87 185.114C615.888 185.022 615.925 184.933 615.977 184.855C616.03 184.776 616.098 184.709 616.178 184.657C616.256 184.603 616.345 184.566 616.439 184.546C616.532 184.527 616.628 184.526 616.722 184.544C616.816 184.562 616.905 184.598 616.985 184.65C617.064 184.703 617.133 184.77 617.186 184.849C630.318 204.2 653.578 221.926 680.987 233.483C708.343 245.024 737.253 249.33 760.33 245.312C760.52 245.28 760.714 245.324 760.871 245.434C761.029 245.545 761.135 245.713 761.168 245.902C761.2 246.091 761.156 246.285 761.045 246.441C760.934 246.598 760.765 246.704 760.575 246.736C754.577 247.749 748.503 248.245 742.419 248.219Z" fill="black"/>
<path d="M790.107 172.711C767.39 172.711 740.726 167.216 713.965 155.929C684.187 143.366 658.708 125.606 642.236 105.906C625.65 86.0656 620.133 66.6194 626.72 51.1391C627.716 48.6963 629.028 46.3936 630.623 44.2898C630.679 44.2139 630.75 44.15 630.831 44.1014C630.912 44.0529 631.003 44.0208 631.096 44.007C631.19 43.9932 631.285 43.9979 631.377 44.0209C631.469 44.0439 631.555 44.0847 631.631 44.141C631.786 44.2558 631.888 44.4269 631.916 44.6168C631.944 44.8067 631.896 44.9999 631.781 45.154C630.254 47.1621 629.001 49.3622 628.053 51.6974C621.694 66.6622 627.124 85.5851 643.35 104.979C659.682 124.505 684.96 142.125 714.527 154.6C775.416 180.276 835.69 175.899 848.899 144.833C849.836 142.647 850.527 140.365 850.959 138.027C850.975 137.934 851.009 137.845 851.059 137.765C851.11 137.685 851.176 137.616 851.253 137.561C851.331 137.507 851.418 137.468 851.511 137.448C851.604 137.427 851.699 137.425 851.793 137.442C851.887 137.458 851.976 137.493 852.057 137.544C852.137 137.596 852.206 137.662 852.261 137.74C852.316 137.818 852.354 137.905 852.375 137.998C852.395 138.091 852.397 138.187 852.381 138.28C851.933 140.727 851.21 143.115 850.223 145.4C842.584 163.381 819.701 172.702 790.107 172.711Z" fill="black"/>
<path d="M795.913 134.544C775.722 134.544 752.139 129.538 729.279 119.893C703.588 109.06 681.626 93.7022 667.434 76.6361C653.137 59.4435 648.418 42.5475 654.146 29.0761C656.291 24.0092 660.198 19.58 666.076 15.5176C666.153 15.4625 666.239 15.4231 666.332 15.4018C666.424 15.3805 666.519 15.3778 666.612 15.3937C666.705 15.4096 666.794 15.4439 666.874 15.4945C666.954 15.5452 667.022 15.6112 667.076 15.6886C667.186 15.8448 667.23 16.0379 667.198 16.226C667.165 16.4141 667.06 16.5819 666.904 16.6931C661.264 20.5982 657.528 24.8265 655.485 29.631C649.977 42.5868 654.616 58.9579 668.553 75.7145C682.604 92.6011 704.365 107.82 729.846 118.574C766.596 134.073 805.171 137.506 828.108 127.31C837.195 123.275 843.107 117.421 845.703 109.908C847.601 104.374 848.078 98.4542 847.089 92.6892C847.074 92.5962 847.077 92.5012 847.098 92.4093C847.119 92.3175 847.159 92.2308 847.214 92.1541C847.269 92.0774 847.338 92.0123 847.418 91.9624C847.499 91.9125 847.588 91.8789 847.681 91.8634C847.775 91.8479 847.87 91.8509 847.962 91.8721C848.055 91.8934 848.142 91.9325 848.219 91.9873C848.296 92.0421 848.361 92.1114 848.411 92.1914C848.461 92.2713 848.495 92.3603 848.511 92.4533C849.544 98.4547 849.049 104.618 847.072 110.38C844.344 118.286 838.16 124.428 828.697 128.63C819.753 132.599 808.49 134.544 795.913 134.544Z" fill="black"/>
<path d="M793.309 95.6214C778.669 95.6214 761.465 92.0745 744.2 84.7883C704.546 68.059 679.329 37.855 688.003 17.459C692.327 7.29015 703.888 1.27943 721.438 0.0740385C721.629 0.0600946 721.818 0.122199 721.962 0.24669C722.107 0.37118 722.196 0.547856 722.21 0.737856C722.224 0.927856 722.162 1.11562 722.037 1.25983C721.912 1.40404 721.735 1.49289 721.544 1.50683C704.563 2.67717 693.433 8.39124 689.337 18.0267C680.978 37.6891 705.844 67.0451 744.77 83.4607C783.696 99.8762 822.166 97.2372 830.525 77.5722C834.524 68.1684 830.954 56.0991 820.483 43.5801C820.361 43.433 820.302 43.2437 820.32 43.0538C820.338 42.8639 820.431 42.6889 820.579 42.5671C820.651 42.5055 820.734 42.4587 820.825 42.4296C820.915 42.4005 821.011 42.3896 821.105 42.3976C821.2 42.4055 821.292 42.4322 821.376 42.476C821.46 42.5197 821.535 42.5798 821.596 42.6526C832.428 55.6084 836.077 68.2137 831.858 78.1304C826.963 89.6577 812.289 95.6155 793.309 95.6214Z" fill="black"/>
<path d="M770.091 29.2027C769.381 29.1898 768.681 29.0354 768.032 28.7487C767.285 28.4514 766.618 27.9848 766.084 27.386C765.822 27.1305 765.638 26.8058 765.554 26.4501C765.47 26.0943 765.49 25.7222 765.61 25.377C766.093 24.2417 767.873 23.9707 769.724 24.7564C771.593 25.5429 772.627 26.9928 772.145 28.1375C771.978 28.4611 771.724 28.7317 771.411 28.9186C771.097 29.1055 770.738 29.2013 770.373 29.195L770.091 29.2027ZM766.942 25.9353C766.916 25.9874 766.96 26.1798 767.188 26.4593C767.575 26.8854 768.055 27.2171 768.591 27.4288C769.115 27.6603 769.685 27.7735 770.258 27.7605C770.626 27.7254 770.793 27.6203 770.811 27.5681C770.881 27.4023 770.407 26.6072 769.162 26.0832C767.917 25.5591 767.016 25.7771 766.943 25.9344L766.942 25.9353Z" fill="black"/>
<path d="M649.542 224.805C649.391 224.809 649.243 224.763 649.121 224.674C648.853 224.519 648.633 224.291 648.488 224.018C648.342 223.745 648.276 223.437 648.296 223.128C648.489 220.935 653.489 218.512 664.768 213.257C675.793 208.12 690.897 201.079 705.544 191.503C731.208 174.721 775.985 139.803 787.449 94.5665C796.124 60.3035 779.152 38.1439 771.696 30.3909C775.766 39.1886 782.291 61.5704 762.644 90.575C739.813 124.27 701.667 148.024 673.809 165.378C670.441 167.475 667.196 169.492 664.111 171.447C641.481 185.775 630.684 193.227 629.474 199.604C629.114 201.509 629.623 203.3 631.062 205.257C631.173 205.411 631.218 205.602 631.188 205.79C631.158 205.977 631.054 206.145 630.9 206.257C630.746 206.368 630.554 206.415 630.366 206.386C630.178 206.358 630.008 206.256 629.895 206.104C629.119 205.174 628.553 204.089 628.235 202.922C627.917 201.756 627.855 200.534 628.053 199.342C629.378 192.37 639.812 185.119 663.339 170.224C666.418 168.276 669.672 166.249 673.049 164.154C700.792 146.875 738.788 123.217 761.454 89.7663C786.294 53.101 768.48 27.4253 768.296 27.1629C768.194 27.0221 768.146 26.8493 768.163 26.6764C768.179 26.5035 768.257 26.3423 768.384 26.2228C768.51 26.1032 768.676 26.0334 768.85 26.0263C769.024 26.0191 769.195 26.0752 769.331 26.184C769.638 26.4285 799.995 50.9339 788.846 94.929C777.269 140.628 732.185 175.808 706.337 192.713C691.61 202.349 676.454 209.408 665.384 214.562C657.402 218.283 649.869 221.795 649.737 223.255C649.737 223.34 649.903 223.464 649.955 223.499C650.111 223.611 650.215 223.778 650.248 223.966C650.28 224.154 650.236 224.347 650.127 224.503C650.061 224.597 649.973 224.673 649.871 224.725C649.769 224.777 649.656 224.805 649.542 224.805Z" fill="black"/>
<path d="M703.87 247.965C700.486 248.001 697.108 247.657 693.801 246.939C693.615 246.895 693.454 246.779 693.354 246.617C693.254 246.455 693.222 246.259 693.266 246.074C693.286 245.982 693.325 245.895 693.379 245.818C693.433 245.741 693.502 245.675 693.582 245.624C693.662 245.574 693.751 245.54 693.844 245.524C693.937 245.508 694.032 245.511 694.125 245.532C716.426 250.673 761.557 235.053 788.581 206.487C805.649 188.455 843.374 140.555 825.086 85.5261C813.254 49.9003 787.467 35.0398 775.305 29.8421C786.453 37.5301 809.118 57.4661 810.758 93.1619C812.916 140.11 780.954 181.895 750.316 205.351C719.372 229.027 682.472 241.109 668.691 237.16C668.507 237.107 668.351 236.984 668.258 236.817C668.164 236.65 668.141 236.453 668.192 236.269C668.247 236.085 668.373 235.93 668.541 235.837C668.71 235.744 668.909 235.721 669.095 235.772C682.506 239.625 719.712 226.948 749.432 204.208C779.78 180.979 811.452 139.622 809.321 93.2235C807.19 46.8253 768.954 27.5784 768.565 27.3877C768.404 27.3116 768.277 27.1776 768.21 27.0124C768.144 26.8473 768.142 26.6632 768.206 26.4969C768.263 26.328 768.383 26.1875 768.542 26.1046C768.7 26.0216 768.884 26.0026 769.056 26.0515C769.468 26.1473 810.5 37.0326 826.463 85.073C844.988 140.844 806.878 189.251 789.633 207.475C765.188 233.314 728.099 247.965 703.87 247.965Z" fill="black"/>
<path d="M728.201 251.328C728.107 251.329 728.014 251.311 727.927 251.276C727.84 251.24 727.761 251.188 727.694 251.123C727.627 251.057 727.574 250.979 727.538 250.893C727.501 250.806 727.482 250.714 727.482 250.62C727.479 250.429 727.552 250.245 727.685 250.107C727.818 249.97 728.001 249.89 728.192 249.887C728.5 249.887 758.724 249.389 786.564 229.698C855.54 180.932 844.716 113.193 844.593 112.52C833.455 33.2309 769.469 27.5083 768.825 27.4647C768.651 27.4509 768.489 27.3755 768.367 27.2524C768.245 27.1292 768.171 26.9665 768.16 26.7939C768.148 26.6212 768.199 26.4502 768.304 26.3119C768.408 26.1736 768.559 26.0773 768.728 26.0405C769.263 25.9268 822.452 16.0109 848.475 92.3387C848.532 92.5182 848.517 92.7129 848.431 92.8809C848.346 93.0489 848.198 93.1769 848.019 93.2376C847.84 93.2982 847.644 93.2865 847.474 93.2051C847.303 93.1237 847.172 92.979 847.107 92.8021C826.811 33.3019 789.964 26.9928 775.289 26.9928L774.807 27.0014C791.191 30.5397 836.74 46.256 846.02 112.293C846.134 112.957 857.142 181.562 787.403 230.866C759.164 250.827 728.513 251.326 728.207 251.326L728.201 251.328Z" fill="black"/>
<path d="M815.674 38.1319C815.482 38.1301 815.298 38.0552 815.159 37.9225C788.981 12.0373 770.128 26.6704 769.34 27.3082C769.215 27.4063 769.062 27.4612 768.904 27.4642C768.745 27.4673 768.59 27.4185 768.462 27.3253C768.332 27.2339 768.236 27.1019 768.189 26.95C768.142 26.7981 768.148 26.635 768.205 26.4866C768.345 26.1199 771.724 17.5325 778.581 15.0508C781.853 13.8625 785.344 14.2737 788.957 16.2741C789.04 16.32 789.113 16.3818 789.172 16.4558C789.231 16.5299 789.275 16.6148 789.301 16.7056C789.327 16.7965 789.335 16.8917 789.324 16.9856C789.313 17.0795 789.284 17.1703 789.238 17.253C789.192 17.3356 789.13 17.4084 789.055 17.4671C788.981 17.5259 788.896 17.5695 788.804 17.5955C788.713 17.6214 788.618 17.6292 788.523 17.6184C788.429 17.6076 788.338 17.5784 788.255 17.5325C785.028 15.7501 781.94 15.3662 779.081 16.3972C774.879 17.9172 772.037 22.1634 770.608 24.7922C776.573 21.5248 794.158 15.132 816.184 36.9009C816.319 37.0353 816.394 37.2175 816.394 37.4074C816.394 37.5973 816.319 37.7794 816.184 37.9139C816.119 37.9833 816.04 38.0385 815.952 38.076C815.864 38.1136 815.77 38.1326 815.674 38.1319Z" fill="black"/>
<path d="M768.881 27.4647C768.738 27.4642 768.599 27.4217 768.48 27.3424C768.362 27.2632 768.269 27.1507 768.214 27.0193C767.25 24.7111 763.18 14.5704 763.653 9.47697C760.803 6.77723 756.777 4.9076 751.646 3.89455C751.55 3.87877 751.46 3.8441 751.378 3.79262C751.297 3.74113 751.226 3.67388 751.172 3.59485C751.117 3.51582 751.078 3.42662 751.059 3.33254C751.039 3.23847 751.039 3.14144 751.058 3.04721C751.076 2.95298 751.114 2.86348 751.168 2.78401C751.223 2.70454 751.292 2.63673 751.373 2.5846C751.454 2.53247 751.545 2.49707 751.64 2.48052C751.735 2.46398 751.832 2.46661 751.926 2.48827C756.99 3.48421 761.04 5.28375 764.039 7.87833C764.143 7.6318 764.288 7.40439 764.468 7.20554C764.843 6.82987 765.325 6.57684 765.848 6.48004C766.371 6.38323 766.911 6.44723 767.397 6.66354C767.581 6.72022 767.735 6.84731 767.824 7.01685C767.914 7.18639 767.933 7.3845 767.876 7.56758C767.819 7.75067 767.691 7.90373 767.521 7.99311C767.351 8.08249 767.152 8.10087 766.968 8.04418C765.951 7.72958 765.635 8.07068 765.538 8.17498C765.354 8.39532 765.225 8.65568 765.161 8.93498C766.034 9.82537 766.805 10.8097 767.46 11.8698C771.766 18.8235 769.67 26.6081 769.574 26.9312C769.535 27.0765 769.452 27.2061 769.336 27.3016C769.219 27.3972 769.076 27.4539 768.925 27.4638L768.881 27.4647ZM765.048 10.9705C765.276 14.3165 766.952 19.7331 768.591 24.0656C769.071 20.0924 768.24 16.0715 766.223 12.6101C765.87 12.0369 765.478 11.489 765.048 10.9705Z" fill="black"/>
<path d="M833.646 60.8634C833.531 60.8631 833.417 60.8351 833.315 60.7818C833.213 60.7286 833.125 60.6516 833.058 60.5574C822.015 45.0249 769.188 27.6049 768.652 27.4296C768.483 27.3719 768.341 27.255 768.252 27.1007C768.164 26.9464 768.134 26.7652 768.17 26.591C768.206 26.4168 768.306 26.2624 768.45 26.1575C768.594 26.0526 768.772 26.0048 768.95 26.0233C770.652 26.1943 810.7 30.3653 818.173 38.9321C818.286 39.0783 818.338 39.2621 818.319 39.4456C818.301 39.6291 818.212 39.7985 818.072 39.9189C817.931 40.0393 817.75 40.1016 817.565 40.093C817.38 40.0843 817.205 40.0054 817.077 39.8725C811.761 33.7746 787.527 29.8609 775.546 28.2708C790.202 33.4856 825.173 46.9664 834.242 59.7213C834.319 59.8296 834.364 59.9568 834.373 60.089C834.382 60.2212 834.354 60.3533 834.292 60.4707C834.23 60.5882 834.137 60.6864 834.023 60.7546C833.909 60.8228 833.779 60.8584 833.646 60.8574L833.646 60.8634Z" fill="black"/>
<path d="M768.881 27.4647C768.731 27.4636 768.585 27.4171 768.463 27.3312C768.34 27.2454 768.246 27.1243 768.195 26.9842C768.14 26.8273 768.141 26.6563 768.199 26.5004C768.256 26.3445 768.367 26.2133 768.51 26.1293C771.642 24.2682 779.72 18.6166 779.51 14.7636C779.448 13.6018 778.606 12.6666 776.922 11.898C776.747 11.8178 776.612 11.6717 776.545 11.4919C776.478 11.3121 776.486 11.1133 776.567 10.9393C776.648 10.7652 776.794 10.6302 776.975 10.564C777.155 10.4977 777.355 10.5055 777.53 10.5858C779.713 11.5817 780.862 12.9624 780.963 14.6832C781.173 18.5798 775.657 23.0526 772.086 25.5335L797.417 21.707C797.604 21.6835 797.793 21.7337 797.944 21.8469C798.094 21.9601 798.194 22.1273 798.223 22.313C798.251 22.4986 798.206 22.6881 798.096 22.8409C797.987 22.9937 797.822 23.0979 797.636 23.1313L768.99 27.4553L768.881 27.4647Z" fill="black"/>
<path d="M613.283 179.456C613.136 179.456 612.993 179.411 612.873 179.328C612.752 179.246 612.66 179.129 612.607 178.993L612.441 178.574C610.599 173.848 606.283 162.796 631.176 144.704C641.692 137.06 654.946 129.346 668.979 121.186C689.055 109.506 711.808 96.2703 734.174 79.04C765.741 54.727 768.276 34.5209 768.268 28.6153C765.75 31.5946 760.8 36.8359 745.884 47.0484C732.587 56.1513 710.835 65.9013 687.811 76.2274C671.251 83.6445 654.13 91.3239 638.088 99.5967C600.205 119.139 602.846 139.293 602.881 139.494C602.91 139.683 602.862 139.876 602.749 140.03C602.636 140.184 602.465 140.287 602.276 140.316C602.182 140.333 602.086 140.332 601.993 140.311C601.9 140.29 601.812 140.251 601.735 140.195C601.658 140.14 601.593 140.069 601.544 139.987C601.495 139.906 601.464 139.816 601.451 139.722C601.311 138.867 598.513 118.388 637.43 98.3126C653.498 90.0202 670.637 82.3433 687.212 74.9084C710.183 64.6172 731.875 54.8937 745.057 45.861C761.424 34.6525 765.634 29.5506 767.888 26.8072L768.327 26.2832C768.414 26.1781 768.53 26.1002 768.661 26.0585C768.792 26.0169 768.932 26.0133 769.064 26.0481C769.197 26.083 769.317 26.1548 769.41 26.2552C769.503 26.3556 769.565 26.4804 769.589 26.6149C769.761 27.5843 773.317 50.7176 735.058 80.1847C712.613 97.4646 689.817 110.726 669.705 122.424C655.706 130.566 642.48 138.262 632.025 145.863C608.037 163.309 612.071 173.635 613.791 178.047L613.957 178.475C614.026 178.653 614.021 178.851 613.944 179.026C613.867 179.202 613.724 179.339 613.545 179.41C613.46 179.438 613.372 179.453 613.283 179.456Z" fill="black"/>
<path d="M604.941 96.8208L604.818 96.8123C604.629 96.7796 604.461 96.6743 604.349 96.5189C604.237 96.3636 604.192 96.1708 604.221 95.9822C604.379 95.0469 608.554 72.9541 656.777 58.5304C678.056 52.1709 700.352 45.9678 720.026 40.4991C740.734 34.7508 757.777 30.0156 765.363 27.3509C752.839 27.198 740.316 27.6776 727.841 28.788C723.175 29.1727 718.167 29.4873 712.861 29.819C679.057 31.9502 636.982 34.6064 621.615 58.945C621.564 59.0254 621.498 59.0949 621.42 59.1498C621.343 59.2047 621.255 59.2438 621.162 59.2649C621.069 59.2859 620.973 59.2886 620.879 59.2727C620.785 59.2567 620.695 59.2225 620.615 59.172C620.534 59.1215 620.464 59.0556 620.409 58.9782C620.354 58.9008 620.315 58.8133 620.294 58.7208C620.272 58.6283 620.27 58.5325 620.286 58.439C620.302 58.3454 620.336 58.256 620.387 58.1756C636.149 33.2078 678.636 30.5345 712.772 28.3853C718.07 28.0536 723.072 27.739 727.726 27.3458C753.54 25.2146 768.766 26.0182 768.925 26.0267C769.085 26.0353 769.237 26.0966 769.357 26.201C769.478 26.3053 769.56 26.4468 769.591 26.6029C769.623 26.7602 769.601 26.9236 769.53 27.0674C769.458 27.2112 769.341 27.3274 769.196 27.3979C764.469 29.6514 745.032 35.0509 720.412 41.8909C700.747 47.3621 678.46 53.5532 657.19 59.9136C609.958 74.0483 605.687 96.0027 605.651 96.2207C605.622 96.3875 605.534 96.5387 605.405 96.6483C605.275 96.7578 605.111 96.8189 604.941 96.8208Z" fill="black"/>
<path d="M768.885 27.4646L768.735 27.4475C735.317 20.5281 715.872 17.4274 689.48 17.4274H689.112C662.685 17.4539 652.826 25.6395 652.729 25.7198C652.585 25.8448 652.397 25.9077 652.206 25.8946C652.016 25.8814 651.838 25.7933 651.712 25.6497C651.586 25.5041 651.522 25.3145 651.535 25.1223C651.548 24.9301 651.637 24.7509 651.783 24.6239C652.195 24.2742 662.063 16.0186 689.112 15.9835H689.489C714.092 15.9835 732.662 18.6653 761.991 24.5973C745.642 17.8531 703.417 1.77868 686.709 8.04245C686.62 8.07638 686.526 8.09246 686.431 8.08973C686.336 8.087 686.243 8.06552 686.156 8.02655C686.07 7.98758 685.992 7.93189 685.927 7.86271C685.862 7.79352 685.812 7.71224 685.779 7.62355C685.744 7.53539 685.727 7.44101 685.729 7.34608C685.731 7.25115 685.753 7.15763 685.792 7.07115C685.831 6.98467 685.888 6.90701 685.958 6.84283C686.028 6.77866 686.111 6.7293 686.201 6.69771C707.558 -1.33054 766.675 24.9564 769.183 26.0832C769.345 26.1574 769.474 26.2883 769.545 26.451C769.616 26.6137 769.625 26.7968 769.57 26.9654C769.524 27.1107 769.433 27.2377 769.31 27.3275C769.187 27.4174 769.037 27.4655 768.885 27.4646Z" fill="black"/>
<path d="M768.881 27.4647C768.729 27.4665 768.58 27.4171 768.46 27.3245C768.1 27.068 732.578 1.77099 718.736 1.77099C718.664 1.7797 718.59 1.7797 718.518 1.77099C718.326 1.77337 718.141 1.69973 718.003 1.56626C717.866 1.43279 717.787 1.25043 717.785 1.0593C717.783 0.868165 717.857 0.683914 717.991 0.547078C718.125 0.410243 718.308 0.332033 718.5 0.329652C718.798 0.321103 719.105 0.329649 719.421 0.346747C719.7 0.172573 720.033 0.104302 720.359 0.154398C762.995 0.154398 769.521 26.3191 769.582 26.5816C769.615 26.7234 769.604 26.8719 769.551 27.0076C769.498 27.1432 769.405 27.2597 769.284 27.3415C769.164 27.42 769.024 27.4628 768.881 27.4647ZM726.178 1.77185C740.246 6.34123 761.111 20.4409 767.455 24.8615C765.083 19.1842 755.883 3.58849 726.178 1.77185Z" fill="black"/>
<path d="M768.88 27.4637C768.775 27.4624 768.672 27.4388 768.576 27.3946C768.481 27.3504 768.396 27.2865 768.328 27.2073C760.276 17.8035 746.426 2.79853 743.532 2.51898C743.342 2.50142 743.168 2.40962 743.046 2.26375C742.924 2.11788 742.866 1.92987 742.883 1.74103C742.908 1.55279 743.003 1.3807 743.149 1.25926C743.295 1.13782 743.483 1.07599 743.673 1.08618C748.103 1.50593 767.258 23.7407 769.433 26.2729C769.556 26.4187 769.617 26.6072 769.6 26.7971C769.584 26.987 769.493 27.1628 769.347 27.2859C769.218 27.3994 769.052 27.4625 768.88 27.4637Z" fill="black"/>
<path d="M646.963 222.753C646.805 222.753 646.65 222.701 646.525 222.604C646.279 222.412 622.045 203.525 613.589 162.858C604.932 121.186 614.447 95.441 624.948 72.6394C634.938 50.9253 658.593 24.9923 688.906 16.0202C717.316 7.60727 742.006 9.83511 764.153 22.8593C756.604 15.9818 747.522 10.9903 737.655 8.29631C718.569 3.21229 688.474 3.98938 661.207 21.453C642.153 33.6574 634.771 42.4021 628.306 51.0159C621.64 59.8922 613.992 71.0827 607.554 91.5427C601.02 112.309 602.8 137.766 602.818 138.019C602.825 138.113 602.812 138.208 602.782 138.298C602.751 138.388 602.703 138.471 602.64 138.543C602.578 138.614 602.501 138.673 602.416 138.715C602.331 138.757 602.238 138.782 602.143 138.788C601.953 138.799 601.766 138.735 601.622 138.611C601.478 138.487 601.387 138.313 601.37 138.124C601.352 137.861 599.555 112.135 606.168 91.1144C612.677 70.4364 620.416 59.1228 627.148 50.1508C633.691 41.4232 641.165 32.5734 660.426 20.2382C688.09 2.53009 718.648 1.73504 738.032 6.90199C750.198 10.1867 761.139 16.93 769.52 26.3079C769.627 26.4428 769.682 26.6114 769.675 26.7831C769.668 26.9548 769.599 27.1183 769.481 27.244C769.364 27.3697 769.205 27.4492 769.033 27.4682C768.862 27.4872 768.689 27.4444 768.547 27.3475C745.452 11.7099 719.542 8.45959 689.317 17.406C659.435 26.2472 636.112 51.8178 626.253 73.2387C615.868 95.8214 606.439 121.323 615.009 162.566C623.342 202.682 647.164 221.281 647.401 221.468C647.476 221.525 647.54 221.596 647.587 221.678C647.634 221.759 647.665 221.849 647.677 221.943C647.69 222.036 647.683 222.131 647.658 222.222C647.633 222.313 647.591 222.398 647.532 222.472C647.465 222.559 647.379 222.629 647.28 222.677C647.181 222.726 647.073 222.752 646.963 222.753Z" fill="black"/>
<path d="M693.477 246.821C693.334 246.823 693.194 246.783 693.073 246.707C692.722 246.471 684.233 240.575 672.505 210.417C661.638 182.479 654.472 124.105 672.584 81.8124C689.933 41.2907 724.447 19.5236 761.9 24.7127C748.761 20.2314 718.317 13.3641 687.846 31.6493C646.139 56.6607 631.817 106.745 632.325 145.28C632.816 183.265 649.062 222.385 670.102 236.285C670.181 236.337 670.249 236.404 670.302 236.482C670.355 236.561 670.392 236.649 670.41 236.741C670.429 236.834 670.429 236.929 670.411 237.021C670.393 237.114 670.356 237.202 670.304 237.281C670.252 237.359 670.184 237.427 670.106 237.479C670.027 237.532 669.939 237.569 669.846 237.587C669.753 237.606 669.657 237.606 669.564 237.588C669.471 237.57 669.383 237.534 669.304 237.481C647.903 223.347 631.378 183.709 630.878 145.298C630.369 106.37 644.868 55.7434 687.097 30.4088C728.014 5.86929 768.869 25.901 769.282 26.1019C769.439 26.183 769.561 26.318 769.625 26.4817C769.69 26.6455 769.693 26.8271 769.633 26.9927C769.573 27.1581 769.454 27.2958 769.299 27.3795C769.144 27.4632 768.963 27.4871 768.791 27.4467C729.33 18.396 692.079 39.9477 673.906 82.3792C655.963 124.293 663.067 182.182 673.851 209.893C685.353 239.473 693.797 245.449 693.876 245.511C694.005 245.595 694.104 245.72 694.157 245.865C694.209 246.01 694.213 246.169 694.168 246.317C694.122 246.464 694.03 246.593 693.904 246.684C693.779 246.775 693.627 246.823 693.472 246.821H693.477Z" fill="black"/>
<path d="M716.975 250.944C716.823 250.944 716.671 250.935 716.52 250.918C716.329 250.896 716.155 250.8 716.035 250.652C715.915 250.503 715.859 250.313 715.879 250.123C715.889 250.028 715.917 249.937 715.962 249.853C716.008 249.77 716.069 249.696 716.144 249.637C716.218 249.577 716.304 249.533 716.395 249.507C716.487 249.481 716.583 249.474 716.677 249.485C716.897 249.545 717.13 249.545 717.349 249.483C717.569 249.421 717.767 249.301 717.923 249.135C719.703 247.056 717.028 237.289 713.318 223.774C710.976 215.213 708.056 204.563 705.231 192.272C692.89 138.414 694.793 96.5849 711.046 64.3916C731.43 23.9955 768.638 25.996 769.005 26.031C769.17 26.0398 769.327 26.1057 769.449 26.2172C769.57 26.3288 769.649 26.4791 769.672 26.6423C769.696 26.8065 769.662 26.9739 769.578 27.1169C769.493 27.2598 769.362 27.3698 769.207 27.4288C742.104 37.3181 730.693 68.8293 735.289 121.08C736.648 136.43 741.885 162.489 746.507 185.474C750.848 207.036 754.594 225.661 754.747 232.938C755.063 248.558 745.88 249.895 745.493 249.95C745.304 249.968 745.114 249.913 744.964 249.796C744.814 249.679 744.714 249.509 744.687 249.321C744.662 249.132 744.714 248.941 744.831 248.791C744.948 248.64 745.12 248.542 745.31 248.517C745.643 248.474 753.59 247.225 753.3 232.967C753.151 225.821 749.239 206.357 745.091 185.757C740.456 162.737 735.214 136.642 733.855 121.205C729.399 70.5792 739.915 39.1023 765.106 27.5536C755.236 28.2375 728.457 33.1103 712.34 65.0404C696.245 96.9277 694.386 138.441 706.647 191.95C709.463 204.216 712.375 214.848 714.715 223.401C718.961 238.89 721.302 247.416 719.022 250.073C718.77 250.363 718.454 250.593 718.1 250.744C717.745 250.895 717.36 250.963 716.975 250.944Z" fill="black"/>
<path d="M778.205 240.346C778.043 240.348 777.885 240.296 777.757 240.197C777.628 240.099 777.537 239.96 777.497 239.804C777.458 239.648 777.472 239.482 777.538 239.335C777.604 239.188 777.718 239.067 777.862 238.992C796.132 229.332 787.352 194.91 781.546 172.125C779.502 164.132 777.625 157.658 775.818 151.394C771.739 137.32 767.521 122.766 761.337 90.3023C752.46 43.7109 767.774 26.9388 768.424 26.249C768.53 26.1396 768.668 26.0663 768.818 26.0394C768.969 26.0125 769.124 26.0334 769.261 26.0991C769.399 26.1648 769.513 26.272 769.586 26.4056C769.659 26.5391 769.688 26.6922 769.669 26.8431C769.661 26.9047 768.923 33.6053 775.634 57.6122C779.484 71.3802 786.992 89.7611 794.939 109.217C803.227 129.511 811.796 150.495 817.296 168.754C828.102 204.677 812.849 217.676 812.19 218.217C812.041 218.336 811.851 218.391 811.662 218.371C811.472 218.35 811.298 218.257 811.177 218.11C811.056 217.963 810.998 217.775 811.015 217.586C811.033 217.397 811.124 217.222 811.27 217.099C811.427 216.977 826.417 204.091 815.909 169.173C810.427 150.975 801.876 130.026 793.594 109.758C785.638 90.2587 778.112 71.8427 774.245 58.0046C769.455 40.8821 768.403 32.4948 768.219 28.9136C764.719 34.1644 755.553 52.2521 762.755 90.0313C768.929 122.432 772.947 136.306 777.201 151.001C779.016 157.265 780.892 163.747 782.937 171.767C788.866 194.988 797.813 230.071 778.542 240.268C778.437 240.318 778.322 240.345 778.205 240.346Z" fill="black"/>
<path d="M838.058 183.946C837.929 183.949 837.801 183.917 837.688 183.854C837.575 183.791 837.482 183.698 837.418 183.586C837.354 183.474 837.322 183.347 837.325 183.218C837.328 183.089 837.366 182.963 837.435 182.854C850.987 160.385 826.322 120.731 809.999 94.4973L809.42 93.5714C792.834 66.8989 768.582 27.5176 768.336 27.1244C768.247 26.9771 768.213 26.8029 768.241 26.633C768.269 26.4632 768.358 26.309 768.49 26.1982C768.622 26.0875 768.79 26.0275 768.963 26.0291C769.136 26.0308 769.302 26.0939 769.432 26.2071C769.73 26.4695 799.377 52.8352 826.322 84.8353C848.969 111.716 853.073 126.096 852.258 139.419C852.257 139.515 852.236 139.609 852.196 139.696C852.156 139.783 852.098 139.861 852.026 139.924C851.954 139.988 851.87 140.035 851.778 140.064C851.687 140.093 851.59 140.103 851.495 140.092C851.4 140.086 851.308 140.062 851.223 140.021C851.137 139.98 851.061 139.922 850.998 139.852C850.936 139.781 850.887 139.699 850.857 139.61C850.826 139.52 850.813 139.426 850.819 139.332C851.609 126.35 847.558 112.276 825.217 85.762C803.991 60.5582 781.09 38.8663 772.248 30.7243C779.038 41.7404 797.325 71.3819 810.648 92.8123L811.227 93.7381C827.734 120.278 852.683 160.377 838.68 183.606C838.614 183.711 838.522 183.796 838.413 183.856C838.304 183.915 838.182 183.946 838.058 183.946Z" fill="black"/>
<path d="M848.162 94.6717C847.999 94.6702 847.841 94.6143 847.714 94.513C847.587 94.4116 847.497 94.2706 847.46 94.1126C847.443 94.0271 845.302 85.4902 832.207 72.4207C819.138 59.3597 785.063 36.4299 768.468 27.333C768.384 27.2873 768.311 27.2257 768.252 27.1517C768.193 27.0777 768.149 26.9928 768.123 26.9018C768.097 26.8108 768.089 26.7155 768.1 26.6216C768.111 26.5276 768.14 26.4367 768.187 26.3542C768.281 26.1883 768.437 26.066 768.621 26.0137C768.805 25.9614 769.002 25.9832 769.17 26.0746C783.756 34.0678 819.165 57.3498 833.234 71.3973C846.662 84.8071 848.784 93.421 848.872 93.7877C848.893 93.8795 848.896 93.9745 848.88 94.0673C848.864 94.1601 848.83 94.2489 848.779 94.3284C848.728 94.4079 848.663 94.4767 848.585 94.5306C848.508 94.5845 848.42 94.6226 848.328 94.6426L848.162 94.6717Z" fill="black"/>
<defs>
<radialGradient id="paint0_radial_32_399" cx="0" cy="0" r="1" gradientUnits="userSpaceOnUse" gradientTransform="translate(100.204 173.546) scale(359.166)">
<stop stop-color="#0008FF" stop-opacity="0"/>
<stop offset="1" stop-color="#0000CA" stop-opacity="0.38"/>
</radialGradient>
<radialGradient id="paint1_radial_32_399" cx="0" cy="0" r="1" gradientUnits="userSpaceOnUse" gradientTransform="translate(229.834 425.085) rotate(-141) scale(108.179)">
<stop stop-color="#7145FF" stop-opacity="0.878"/>
<stop offset="1" stop-color="#0008FF" stop-opacity="0"/>
</radialGradient>
<radialGradient id="paint2_radial_32_399" cx="0" cy="0" r="1" gradientUnits="userSpaceOnUse" gradientTransform="translate(837.973 396.411) scale(416.152 416.608)">
<stop stop-color="#FF7305" stop-opacity="0"/>
<stop offset="1" stop-color="#C44300" stop-opacity="0.38"/>
</radialGradient>
<radialGradient id="paint3_radial_32_399" cx="0" cy="0" r="1" gradientUnits="userSpaceOnUse" gradientTransform="translate(889.639 670.196) rotate(-87.9929) scale(138.868 138.715)">
<stop stop-color="#FFA443" stop-opacity="0.749"/>
<stop offset="1" stop-color="#FF7305" stop-opacity="0"/>
</radialGradient>
</defs>
</svg>
