<svg width="825" height="821" viewBox="0 0 825 821" fill="none" xmlns="http://www.w3.org/2000/svg">
<path d="M213.214 60.968L210.153 61.1884L208.856 64.8759L39.7125 545.136L38.2116 549.397L40.8644 552.171L120.198 635.194L124.666 639.873L127.501 632.853L359.005 59.3628L362.704 50.1977L354.912 50.7573L213.214 60.968Z" fill="black" stroke="black" stroke-width="6"/>
<path d="M205.878 49.38L202.817 49.5999L201.52 53.2833L32.2532 533.515L30.7512 537.776L33.3998 540.554L112.712 623.591L117.183 628.271L120.016 621.251L351.671 47.7956L355.371 38.635L347.579 39.1933L205.878 49.38Z" fill="#0006F6" stroke="black" stroke-width="6"/>
<path d="M405.735 114.41L401.749 112.801L399.815 117.877L186.721 677.026L182.398 688.371L191.788 685.31L308.529 647.265L310.794 646.524L311.866 643.806L502.781 160.843L505.266 154.553L500.294 152.548L405.735 114.41Z" fill="black" stroke="black" stroke-width="6"/>
<path d="M398.406 102.833L394.42 101.223L392.485 106.298L179.245 665.412L174.919 676.756L184.313 673.697L301.061 635.667L303.326 634.931L304.401 632.213L495.44 149.282L497.927 142.992L492.956 140.983L398.406 102.833Z" fill="#9747FF" stroke="black" stroke-width="6"/>
<path d="M560.035 206.405L555.977 204.772L554.074 209.968L377.359 692.226L375.493 697.322L379.104 699.897L465.002 761.13L469.31 764.203L471.696 758.212L670.669 258.323L673.177 252.018L668.187 250.006L560.035 206.405Z" fill="black" stroke="black" stroke-width="6"/>
<path d="M552.699 194.825L548.646 193.188L546.739 198.384L369.901 680.612L368.032 685.712L371.644 688.284L457.525 749.536L461.832 752.609L464.221 746.615L663.321 246.758L665.83 240.457L660.84 238.444L552.699 194.825Z" fill="#0006F6" stroke="black" stroke-width="6"/>
<path d="M733.64 274.914L729.085 268.065L725.802 276.701L541.457 761.605L539.092 767.823L543.957 769.794L629.732 804.526L633.745 806.151L635.636 800.985L793.35 370.269L794.669 366.667L792.783 363.83L733.64 274.914Z" fill="black" stroke="black" stroke-width="6"/>
<path d="M726.307 263.333L721.756 256.489L718.471 265.119L533.999 749.993L531.631 756.214L536.496 758.182L622.259 792.929L626.274 794.555L628.167 789.389L785.995 358.7L787.315 355.102L785.426 352.264L726.307 263.333Z" fill="#9747FF" stroke="black" stroke-width="6"/>
</svg>
