<svg width="1512" height="509" viewBox="0 0 1512 509" fill="none" xmlns="http://www.w3.org/2000/svg">
<path d="M945.398 1.91906C627.131 -18.1784 -15 298 -15 298C-15 298 397.75 112.213 694.69 49.0443C829.039 20.4639 887.726 13.1593 945.398 18.2449C1035.61 26.1997 1117.86 47.8828 1196.1 93.1187C1322.17 166.01 1419 268.199 1419 268.199C1419 268.199 1233.18 20.0915 945.398 1.91906Z" fill="black" stroke="black"/>
<mask id="path-2-inside-1_84_104" fill="white">
<path d="M1433.01 179.273L1438.56 204.799C1438.75 205.651 1439.2 206.423 1439.85 207.003C1440.5 207.583 1441.31 207.942 1442.18 208.027C1443.05 208.112 1443.92 207.92 1444.67 207.477C1445.42 207.034 1446.01 206.364 1446.36 205.564L1456.79 181.617C1457.16 180.753 1457.82 180.042 1458.66 179.605C1459.49 179.168 1460.45 179.029 1461.37 179.213C1462.29 179.397 1463.13 179.892 1463.73 180.616C1464.33 181.339 1464.67 182.247 1464.68 183.188L1465.15 209.303C1465.16 210.174 1465.46 211.017 1465.98 211.711C1466.51 212.406 1467.24 212.916 1468.07 213.169C1468.91 213.421 1469.8 213.403 1470.62 213.117C1471.44 212.831 1472.15 212.292 1472.65 211.577L1487.54 190.128C1488.08 189.356 1488.86 188.791 1489.77 188.525C1490.67 188.26 1491.63 188.312 1492.5 188.67C1493.37 189.029 1494.09 189.674 1494.54 190.498C1494.99 191.322 1495.15 192.276 1494.98 193.201L1490.34 218.909C1490.19 219.766 1490.31 220.65 1490.69 221.434C1491.07 222.218 1491.69 222.862 1492.45 223.273C1493.22 223.683 1494.1 223.84 1494.96 223.721C1495.83 223.601 1496.63 223.211 1497.26 222.606L1516.06 204.469C1516.73 203.812 1517.61 203.407 1518.55 203.321C1519.49 203.236 1520.43 203.474 1521.21 203.998C1521.99 204.521 1522.57 205.297 1522.85 206.196C1523.13 207.096 1523.09 208.064 1522.75 208.939L1513.18 233.243C1512.86 234.054 1512.81 234.946 1513.03 235.79C1513.25 236.634 1513.73 237.387 1514.4 237.94C1515.07 238.493 1515.91 238.818 1516.78 238.868C1517.65 238.918 1518.51 238.69 1519.24 238.218L1541.22 224.101C1542.01 223.594 1542.95 223.372 1543.89 223.473C1544.82 223.574 1545.69 223.991 1546.36 224.656C1547.02 225.32 1547.44 226.192 1547.54 227.126C1547.64 228.06 1547.42 229 1546.91 229.791L1532.79 251.76C1532.32 252.493 1532.1 253.356 1532.15 254.224C1532.2 255.092 1532.52 255.922 1533.08 256.594C1533.63 257.266 1534.38 257.747 1535.22 257.968C1536.06 258.188 1536.95 258.137 1537.76 257.822L1562.07 248.259C1562.94 247.915 1563.91 247.881 1564.8 248.162C1565.7 248.443 1566.48 249.023 1567 249.805C1567.52 250.587 1567.76 251.524 1567.67 252.46C1567.59 253.396 1567.19 254.276 1566.54 254.952L1548.43 273.756C1547.83 274.383 1547.44 275.185 1547.32 276.046C1547.2 276.908 1547.36 277.785 1547.77 278.553C1548.18 279.32 1548.82 279.938 1549.6 280.318C1550.38 280.698 1551.27 280.82 1552.12 280.667L1577.83 276.029C1578.76 275.862 1579.71 276.016 1580.54 276.467C1581.36 276.918 1582.01 277.637 1582.37 278.506C1582.73 279.375 1582.78 280.342 1582.52 281.244C1582.25 282.146 1581.69 282.931 1580.91 283.467L1559.46 298.363C1558.74 298.859 1558.2 299.57 1557.92 300.392C1557.63 301.215 1557.61 302.107 1557.86 302.94C1558.12 303.773 1558.63 304.505 1559.32 305.03C1560.02 305.555 1560.86 305.847 1561.73 305.863L1587.84 306.333C1588.78 306.35 1589.69 306.688 1590.41 307.291C1591.13 307.894 1591.63 308.725 1591.81 309.647C1591.99 310.569 1591.86 311.526 1591.42 312.359C1590.99 313.192 1590.28 313.851 1589.42 314.227L1565.47 324.653C1564.67 325.002 1564.01 325.593 1563.57 326.343C1563.13 327.093 1562.94 327.963 1563.02 328.828C1563.11 329.694 1563.46 330.51 1564.04 331.16C1564.62 331.81 1565.38 332.261 1566.23 332.448L1591.76 338.005C1592.68 338.206 1593.5 338.714 1594.09 339.446C1594.68 340.178 1595 341.09 1595 342.029C1595 342.969 1594.68 343.881 1594.09 344.612C1593.5 345.344 1592.68 345.853 1591.76 346.053L1566.23 351.603C1565.38 351.788 1564.61 352.239 1564.03 352.89C1563.45 353.541 1563.1 354.359 1563.01 355.226C1562.93 356.093 1563.12 356.965 1563.56 357.716C1564 358.467 1564.67 359.058 1565.47 359.405L1589.42 369.832C1590.28 370.207 1590.99 370.866 1591.42 371.7C1591.86 372.533 1591.99 373.49 1591.81 374.412C1591.63 375.333 1591.13 376.165 1590.41 376.768C1589.69 377.37 1588.78 377.708 1587.84 377.725L1561.73 378.195C1560.86 378.209 1560.01 378.499 1559.32 379.023C1558.62 379.548 1558.11 380.279 1557.86 381.113C1557.61 381.946 1557.62 382.839 1557.91 383.661C1558.2 384.484 1558.74 385.194 1559.46 385.689L1580.91 400.592C1581.68 401.129 1582.24 401.913 1582.51 402.814C1582.77 403.714 1582.72 404.678 1582.36 405.544C1582 406.411 1581.35 407.128 1580.53 407.579C1579.71 408.03 1578.76 408.186 1577.83 408.022L1552.12 403.391C1551.27 403.238 1550.38 403.361 1549.6 403.741C1548.82 404.12 1548.18 404.738 1547.77 405.506C1547.36 406.273 1547.2 407.151 1547.32 408.012C1547.44 408.874 1547.83 409.676 1548.43 410.302L1566.56 429.099C1567.22 429.776 1567.62 430.655 1567.7 431.592C1567.79 432.528 1567.55 433.465 1567.03 434.247C1566.5 435.029 1565.73 435.608 1564.83 435.89C1563.94 436.171 1562.97 436.137 1562.09 435.793L1537.76 426.251C1536.95 425.932 1536.06 425.879 1535.22 426.098C1534.38 426.317 1533.62 426.797 1533.07 427.469C1532.52 428.142 1532.19 428.972 1532.14 429.841C1532.09 430.71 1532.32 431.573 1532.79 432.306L1546.91 454.281C1547.42 455.072 1547.64 456.013 1547.54 456.947C1547.44 457.881 1547.02 458.752 1546.36 459.417C1545.69 460.081 1544.82 460.499 1543.89 460.599C1542.95 460.7 1542.01 460.479 1541.22 459.972L1519.24 445.855C1518.51 445.384 1517.65 445.157 1516.78 445.207C1515.91 445.257 1515.08 445.581 1514.41 446.133C1513.73 446.685 1513.25 447.436 1513.03 448.279C1512.81 449.121 1512.86 450.012 1513.18 450.822L1522.75 475.134C1523.09 476.008 1523.12 476.972 1522.84 477.866C1522.56 478.761 1521.98 479.532 1521.2 480.053C1520.42 480.574 1519.48 480.814 1518.55 480.732C1517.62 480.65 1516.74 480.252 1516.06 479.603L1497.26 461.466C1496.63 460.862 1495.83 460.472 1494.96 460.352C1494.1 460.232 1493.22 460.389 1492.45 460.8C1491.69 461.211 1491.07 461.855 1490.69 462.639C1490.31 463.423 1490.19 464.307 1490.34 465.164L1494.98 490.865C1495.15 491.79 1495 492.746 1494.54 493.571C1494.09 494.397 1493.37 495.043 1492.51 495.403C1491.64 495.763 1490.67 495.815 1489.77 495.55C1488.87 495.284 1488.08 494.718 1487.54 493.945L1472.66 472.468C1472.16 471.752 1471.45 471.213 1470.62 470.927C1469.8 470.641 1468.91 470.624 1468.08 470.877C1467.24 471.131 1466.51 471.642 1465.99 472.337C1465.46 473.033 1465.17 473.877 1465.16 474.748L1464.69 500.863C1464.67 501.804 1464.34 502.712 1463.73 503.436C1463.13 504.159 1462.3 504.654 1461.38 504.838C1460.45 505.022 1459.5 504.884 1458.66 504.447C1457.83 504.009 1457.17 503.299 1456.8 502.435L1446.37 478.481C1446.02 477.681 1445.43 477.011 1444.68 476.569C1443.93 476.126 1443.05 475.934 1442.19 476.02C1441.32 476.106 1440.5 476.465 1439.85 477.046C1439.2 477.627 1438.75 478.4 1438.57 479.253L1433.01 504.771C1432.81 505.69 1432.3 506.511 1431.57 507.101C1430.84 507.69 1429.93 508.012 1428.99 508.012C1428.05 508.012 1427.14 507.69 1426.41 507.101C1425.67 506.511 1425.17 505.69 1424.97 504.771L1419.42 479.253C1419.23 478.401 1418.78 477.629 1418.13 477.05C1417.48 476.47 1416.66 476.111 1415.8 476.025C1414.93 475.939 1414.06 476.131 1413.3 476.572C1412.55 477.013 1411.96 477.682 1411.61 478.481L1401.19 502.435C1400.81 503.297 1400.15 504.004 1399.32 504.439C1398.49 504.875 1397.53 505.012 1396.61 504.828C1395.69 504.645 1394.85 504.151 1394.25 503.43C1393.65 502.709 1393.31 501.803 1393.29 500.863L1392.83 474.748C1392.82 473.877 1392.53 473.033 1392 472.337C1391.48 471.642 1390.74 471.131 1389.91 470.877C1389.08 470.624 1388.18 470.641 1387.36 470.927C1386.54 471.213 1385.83 471.752 1385.33 472.468L1370.43 493.924C1369.89 494.693 1369.11 495.255 1368.2 495.517C1367.3 495.78 1366.34 495.727 1365.47 495.368C1364.61 495.009 1363.89 494.365 1363.44 493.542C1362.99 492.719 1362.83 491.767 1363 490.844L1367.63 465.143C1367.78 464.286 1367.66 463.402 1367.28 462.618C1366.9 461.834 1366.29 461.19 1365.52 460.779C1364.75 460.368 1363.87 460.211 1363.01 460.331C1362.15 460.451 1361.34 460.841 1360.72 461.445L1341.91 479.575C1341.24 480.224 1340.36 480.622 1339.42 480.704C1338.49 480.786 1337.55 480.546 1336.77 480.025C1335.99 479.504 1335.42 478.733 1335.13 477.838C1334.85 476.944 1334.89 475.98 1335.23 475.106L1344.78 450.794C1345.1 449.984 1345.16 449.093 1344.94 448.249C1344.72 447.405 1344.24 446.653 1343.57 446.1C1342.89 445.547 1342.06 445.223 1341.19 445.174C1340.32 445.125 1339.46 445.353 1338.73 445.827L1316.75 459.929C1315.96 460.437 1315.02 460.658 1314.09 460.557C1313.15 460.456 1312.28 460.039 1311.62 459.375C1310.95 458.71 1310.53 457.839 1310.43 456.905C1310.33 455.971 1310.55 455.03 1311.06 454.239L1325.18 432.264C1325.65 431.532 1325.88 430.669 1325.83 429.799C1325.78 428.929 1325.46 428.097 1324.9 427.423C1324.35 426.749 1323.6 426.269 1322.76 426.05C1321.91 425.832 1321.02 425.887 1320.21 426.209L1295.91 435.772C1295.03 436.119 1294.06 436.155 1293.16 435.875C1292.26 435.595 1291.49 435.015 1290.96 434.233C1290.44 433.45 1290.2 432.511 1290.29 431.573C1290.37 430.635 1290.77 429.755 1291.43 429.078L1309.57 410.281C1310.17 409.655 1310.56 408.853 1310.68 407.991C1310.8 407.13 1310.64 406.252 1310.23 405.485C1309.82 404.717 1309.18 404.099 1308.4 403.72C1307.62 403.34 1306.73 403.217 1305.88 403.37L1280.17 408.001C1279.24 408.165 1278.29 408.009 1277.47 407.558C1276.65 407.108 1276 406.39 1275.64 405.523C1275.28 404.656 1275.23 403.693 1275.49 402.793C1275.76 401.892 1276.32 401.108 1277.09 400.571L1298.54 385.668C1299.26 385.173 1299.8 384.463 1300.09 383.64C1300.38 382.818 1300.39 381.925 1300.14 381.092C1299.89 380.258 1299.38 379.526 1298.68 379.002C1297.99 378.478 1297.14 378.188 1296.27 378.174L1270.15 377.704C1269.21 377.686 1268.3 377.347 1267.58 376.743C1266.86 376.14 1266.37 375.309 1266.19 374.387C1266.01 373.466 1266.14 372.509 1266.58 371.677C1267.02 370.845 1267.72 370.186 1268.58 369.811L1292.53 359.384C1293.33 359.037 1294 358.445 1294.44 357.693C1294.88 356.942 1295.07 356.069 1294.99 355.202C1294.9 354.335 1294.54 353.517 1293.96 352.867C1293.38 352.216 1292.61 351.766 1291.76 351.582L1266.24 346.032C1265.32 345.832 1264.5 345.323 1263.91 344.592C1263.32 343.86 1263 342.948 1263 342.008C1263 341.068 1263.32 340.157 1263.91 339.425C1264.5 338.693 1265.32 338.185 1266.24 337.984L1291.76 332.427C1292.61 332.245 1293.38 331.797 1293.97 331.147C1294.55 330.497 1294.91 329.679 1294.99 328.812C1295.08 327.944 1294.89 327.072 1294.44 326.32C1294 325.569 1293.33 324.978 1292.53 324.632L1268.58 314.206C1267.72 313.83 1267.02 313.172 1266.58 312.339C1266.14 311.507 1266.01 310.551 1266.19 309.629C1266.37 308.708 1266.86 307.876 1267.58 307.273C1268.3 306.67 1269.21 306.331 1270.15 306.312L1296.27 305.842C1297.14 305.826 1297.98 305.534 1298.68 305.009C1299.37 304.484 1299.88 303.752 1300.14 302.919C1300.39 302.086 1300.37 301.194 1300.08 300.371C1299.8 299.549 1299.26 298.838 1298.54 298.342L1277.09 283.446C1276.31 282.91 1275.75 282.125 1275.48 281.223C1275.22 280.32 1275.27 279.354 1275.63 278.485C1275.99 277.616 1276.64 276.897 1277.46 276.446C1278.29 275.995 1279.24 275.841 1280.17 276.008L1305.88 280.646C1306.73 280.799 1307.62 280.677 1308.4 280.297C1309.18 279.917 1309.82 279.299 1310.23 278.532C1310.64 277.764 1310.8 276.887 1310.68 276.025C1310.56 275.164 1310.17 274.362 1309.57 273.735L1291.43 254.938C1290.77 254.262 1290.37 253.381 1290.29 252.443C1290.2 251.505 1290.44 250.567 1290.96 249.784C1291.49 249.001 1292.26 248.421 1293.16 248.141C1294.06 247.861 1295.03 247.898 1295.91 248.244L1320.21 257.808C1321.02 258.126 1321.91 258.178 1322.75 257.959C1323.6 257.739 1324.35 257.257 1324.9 256.584C1325.45 255.91 1325.78 255.079 1325.83 254.21C1325.88 253.341 1325.65 252.478 1325.18 251.746L1311.06 229.791C1310.55 229 1310.33 228.06 1310.43 227.126C1310.53 226.192 1310.95 225.32 1311.62 224.656C1312.28 223.991 1313.15 223.574 1314.09 223.473C1315.02 223.372 1315.96 223.594 1316.75 224.101L1338.73 238.218C1339.46 238.688 1340.32 238.913 1341.19 238.862C1342.06 238.81 1342.89 238.485 1343.56 237.933C1344.24 237.38 1344.72 236.629 1344.94 235.786C1345.15 234.944 1345.1 234.054 1344.78 233.243L1335.23 208.939C1334.88 208.064 1334.84 207.096 1335.12 206.196C1335.4 205.297 1335.98 204.521 1336.76 203.998C1337.54 203.474 1338.48 203.236 1339.42 203.321C1340.36 203.407 1341.24 203.812 1341.91 204.469L1360.71 222.606C1361.34 223.211 1362.14 223.601 1363 223.721C1363.86 223.84 1364.74 223.683 1365.51 223.273C1366.28 222.862 1366.9 222.218 1367.28 221.434C1367.65 220.65 1367.78 219.766 1367.62 218.909L1362.99 193.201C1362.82 192.275 1362.97 191.32 1363.42 190.493C1363.87 189.667 1364.59 189.02 1365.46 188.66C1366.33 188.301 1367.3 188.25 1368.2 188.517C1369.1 188.784 1369.89 189.353 1370.42 190.128L1385.32 211.577C1385.82 212.292 1386.53 212.831 1387.35 213.117C1388.17 213.403 1389.07 213.421 1389.9 213.169C1390.73 212.916 1391.47 212.406 1391.99 211.711C1392.52 211.017 1392.81 210.174 1392.82 209.303L1393.29 183.188C1393.3 182.248 1393.64 181.343 1394.24 180.621C1394.85 179.9 1395.68 179.407 1396.6 179.223C1397.52 179.04 1398.48 179.177 1399.31 179.612C1400.15 180.048 1400.8 180.755 1401.18 181.617L1411.61 205.571C1411.96 206.37 1412.55 207.038 1413.3 207.48C1414.05 207.922 1414.93 208.114 1415.79 208.029C1416.66 207.944 1417.48 207.586 1418.13 207.007C1418.78 206.428 1419.23 205.657 1419.42 204.806L1424.94 179.273C1425.14 178.348 1425.65 177.517 1426.38 176.921C1427.11 176.325 1428.03 176 1428.98 176C1429.92 176 1430.84 176.325 1431.57 176.921C1432.31 177.517 1432.81 178.348 1433.01 179.273Z"/>
</mask>
<path d="M1433.01 179.273L1438.56 204.799C1438.75 205.651 1439.2 206.423 1439.85 207.003C1440.5 207.583 1441.31 207.942 1442.18 208.027C1443.05 208.112 1443.92 207.92 1444.67 207.477C1445.42 207.034 1446.01 206.364 1446.36 205.564L1456.79 181.617C1457.16 180.753 1457.82 180.042 1458.66 179.605C1459.49 179.168 1460.45 179.029 1461.37 179.213C1462.29 179.397 1463.13 179.892 1463.73 180.616C1464.33 181.339 1464.67 182.247 1464.68 183.188L1465.15 209.303C1465.16 210.174 1465.46 211.017 1465.98 211.711C1466.51 212.406 1467.24 212.916 1468.07 213.169C1468.91 213.421 1469.8 213.403 1470.62 213.117C1471.44 212.831 1472.15 212.292 1472.65 211.577L1487.54 190.128C1488.08 189.356 1488.86 188.791 1489.77 188.525C1490.67 188.26 1491.63 188.312 1492.5 188.67C1493.37 189.029 1494.09 189.674 1494.54 190.498C1494.99 191.322 1495.15 192.276 1494.98 193.201L1490.34 218.909C1490.19 219.766 1490.31 220.65 1490.69 221.434C1491.07 222.218 1491.69 222.862 1492.45 223.273C1493.22 223.683 1494.1 223.84 1494.96 223.721C1495.83 223.601 1496.63 223.211 1497.26 222.606L1516.06 204.469C1516.73 203.812 1517.61 203.407 1518.55 203.321C1519.49 203.236 1520.43 203.474 1521.21 203.998C1521.99 204.521 1522.57 205.297 1522.85 206.196C1523.13 207.096 1523.09 208.064 1522.75 208.939L1513.18 233.243C1512.86 234.054 1512.81 234.946 1513.03 235.79C1513.25 236.634 1513.73 237.387 1514.4 237.94C1515.07 238.493 1515.91 238.818 1516.78 238.868C1517.65 238.918 1518.51 238.69 1519.24 238.218L1541.22 224.101C1542.01 223.594 1542.95 223.372 1543.89 223.473C1544.82 223.574 1545.69 223.991 1546.36 224.656C1547.02 225.32 1547.44 226.192 1547.54 227.126C1547.64 228.06 1547.42 229 1546.91 229.791L1532.79 251.76C1532.32 252.493 1532.1 253.356 1532.15 254.224C1532.2 255.092 1532.52 255.922 1533.08 256.594C1533.63 257.266 1534.38 257.747 1535.22 257.968C1536.06 258.188 1536.95 258.137 1537.76 257.822L1562.07 248.259C1562.94 247.915 1563.91 247.881 1564.8 248.162C1565.7 248.443 1566.48 249.023 1567 249.805C1567.52 250.587 1567.76 251.524 1567.67 252.46C1567.59 253.396 1567.19 254.276 1566.54 254.952L1548.43 273.756C1547.83 274.383 1547.44 275.185 1547.32 276.046C1547.2 276.908 1547.36 277.785 1547.77 278.553C1548.18 279.32 1548.82 279.938 1549.6 280.318C1550.38 280.698 1551.27 280.82 1552.12 280.667L1577.83 276.029C1578.76 275.862 1579.71 276.016 1580.54 276.467C1581.36 276.918 1582.01 277.637 1582.37 278.506C1582.73 279.375 1582.78 280.342 1582.52 281.244C1582.25 282.146 1581.69 282.931 1580.91 283.467L1559.46 298.363C1558.74 298.859 1558.2 299.57 1557.92 300.392C1557.63 301.215 1557.61 302.107 1557.86 302.94C1558.12 303.773 1558.63 304.505 1559.32 305.03C1560.02 305.555 1560.86 305.847 1561.73 305.863L1587.84 306.333C1588.78 306.35 1589.69 306.688 1590.41 307.291C1591.13 307.894 1591.63 308.725 1591.81 309.647C1591.99 310.569 1591.86 311.526 1591.42 312.359C1590.99 313.192 1590.28 313.851 1589.42 314.227L1565.47 324.653C1564.67 325.002 1564.01 325.593 1563.57 326.343C1563.13 327.093 1562.94 327.963 1563.02 328.828C1563.11 329.694 1563.46 330.51 1564.04 331.16C1564.62 331.81 1565.38 332.261 1566.23 332.448L1591.76 338.005C1592.68 338.206 1593.5 338.714 1594.09 339.446C1594.68 340.178 1595 341.09 1595 342.029C1595 342.969 1594.68 343.881 1594.09 344.612C1593.5 345.344 1592.68 345.853 1591.76 346.053L1566.23 351.603C1565.38 351.788 1564.61 352.239 1564.03 352.89C1563.45 353.541 1563.1 354.359 1563.01 355.226C1562.93 356.093 1563.12 356.965 1563.56 357.716C1564 358.467 1564.67 359.058 1565.47 359.405L1589.42 369.832C1590.28 370.207 1590.99 370.866 1591.42 371.7C1591.86 372.533 1591.99 373.49 1591.81 374.412C1591.63 375.333 1591.13 376.165 1590.41 376.768C1589.69 377.37 1588.78 377.708 1587.84 377.725L1561.73 378.195C1560.86 378.209 1560.01 378.499 1559.32 379.023C1558.62 379.548 1558.11 380.279 1557.86 381.113C1557.61 381.946 1557.62 382.839 1557.91 383.661C1558.2 384.484 1558.74 385.194 1559.46 385.689L1580.91 400.592C1581.68 401.129 1582.24 401.913 1582.51 402.814C1582.77 403.714 1582.72 404.678 1582.36 405.544C1582 406.411 1581.35 407.128 1580.53 407.579C1579.71 408.03 1578.76 408.186 1577.83 408.022L1552.12 403.391C1551.27 403.238 1550.38 403.361 1549.6 403.741C1548.82 404.12 1548.18 404.738 1547.77 405.506C1547.36 406.273 1547.2 407.151 1547.32 408.012C1547.44 408.874 1547.83 409.676 1548.43 410.302L1566.56 429.099C1567.22 429.776 1567.62 430.655 1567.7 431.592C1567.79 432.528 1567.55 433.465 1567.03 434.247C1566.5 435.029 1565.73 435.608 1564.83 435.89C1563.94 436.171 1562.97 436.137 1562.09 435.793L1537.76 426.251C1536.95 425.932 1536.06 425.879 1535.22 426.098C1534.38 426.317 1533.62 426.797 1533.07 427.469C1532.52 428.142 1532.19 428.972 1532.14 429.841C1532.09 430.71 1532.32 431.573 1532.79 432.306L1546.91 454.281C1547.42 455.072 1547.64 456.013 1547.54 456.947C1547.44 457.881 1547.02 458.752 1546.36 459.417C1545.69 460.081 1544.82 460.499 1543.89 460.599C1542.95 460.7 1542.01 460.479 1541.22 459.972L1519.24 445.855C1518.51 445.384 1517.65 445.157 1516.78 445.207C1515.91 445.257 1515.08 445.581 1514.41 446.133C1513.73 446.685 1513.25 447.436 1513.03 448.279C1512.81 449.121 1512.86 450.012 1513.18 450.822L1522.75 475.134C1523.09 476.008 1523.12 476.972 1522.84 477.866C1522.56 478.761 1521.98 479.532 1521.2 480.053C1520.42 480.574 1519.48 480.814 1518.55 480.732C1517.62 480.65 1516.74 480.252 1516.06 479.603L1497.26 461.466C1496.63 460.862 1495.83 460.472 1494.96 460.352C1494.1 460.232 1493.22 460.389 1492.45 460.8C1491.69 461.211 1491.07 461.855 1490.69 462.639C1490.31 463.423 1490.19 464.307 1490.34 465.164L1494.98 490.865C1495.15 491.79 1495 492.746 1494.54 493.571C1494.09 494.397 1493.37 495.043 1492.51 495.403C1491.64 495.763 1490.67 495.815 1489.77 495.55C1488.87 495.284 1488.08 494.718 1487.54 493.945L1472.66 472.468C1472.16 471.752 1471.45 471.213 1470.62 470.927C1469.8 470.641 1468.91 470.624 1468.08 470.877C1467.24 471.131 1466.51 471.642 1465.99 472.337C1465.46 473.033 1465.17 473.877 1465.16 474.748L1464.69 500.863C1464.67 501.804 1464.34 502.712 1463.73 503.436C1463.13 504.159 1462.3 504.654 1461.38 504.838C1460.45 505.022 1459.5 504.884 1458.66 504.447C1457.83 504.009 1457.17 503.299 1456.8 502.435L1446.37 478.481C1446.02 477.681 1445.43 477.011 1444.68 476.569C1443.93 476.126 1443.05 475.934 1442.19 476.02C1441.32 476.106 1440.5 476.465 1439.85 477.046C1439.2 477.627 1438.75 478.4 1438.57 479.253L1433.01 504.771C1432.81 505.69 1432.3 506.511 1431.57 507.101C1430.84 507.69 1429.93 508.012 1428.99 508.012C1428.05 508.012 1427.14 507.69 1426.41 507.101C1425.67 506.511 1425.17 505.69 1424.97 504.771L1419.42 479.253C1419.23 478.401 1418.78 477.629 1418.13 477.05C1417.48 476.47 1416.66 476.111 1415.8 476.025C1414.93 475.939 1414.06 476.131 1413.3 476.572C1412.55 477.013 1411.96 477.682 1411.61 478.481L1401.19 502.435C1400.81 503.297 1400.15 504.004 1399.32 504.439C1398.49 504.875 1397.53 505.012 1396.61 504.828C1395.69 504.645 1394.85 504.151 1394.25 503.43C1393.65 502.709 1393.31 501.803 1393.29 500.863L1392.83 474.748C1392.82 473.877 1392.53 473.033 1392 472.337C1391.48 471.642 1390.74 471.131 1389.91 470.877C1389.08 470.624 1388.18 470.641 1387.36 470.927C1386.54 471.213 1385.83 471.752 1385.33 472.468L1370.43 493.924C1369.89 494.693 1369.11 495.255 1368.2 495.517C1367.3 495.78 1366.34 495.727 1365.47 495.368C1364.61 495.009 1363.89 494.365 1363.44 493.542C1362.99 492.719 1362.83 491.767 1363 490.844L1367.63 465.143C1367.78 464.286 1367.66 463.402 1367.28 462.618C1366.9 461.834 1366.29 461.19 1365.52 460.779C1364.75 460.368 1363.87 460.211 1363.01 460.331C1362.15 460.451 1361.34 460.841 1360.72 461.445L1341.91 479.575C1341.24 480.224 1340.36 480.622 1339.42 480.704C1338.49 480.786 1337.55 480.546 1336.77 480.025C1335.99 479.504 1335.42 478.733 1335.13 477.838C1334.85 476.944 1334.89 475.98 1335.23 475.106L1344.78 450.794C1345.1 449.984 1345.16 449.093 1344.94 448.249C1344.72 447.405 1344.24 446.653 1343.57 446.1C1342.89 445.547 1342.06 445.223 1341.19 445.174C1340.32 445.125 1339.46 445.353 1338.73 445.827L1316.75 459.929C1315.96 460.437 1315.02 460.658 1314.09 460.557C1313.15 460.456 1312.28 460.039 1311.62 459.375C1310.95 458.71 1310.53 457.839 1310.43 456.905C1310.33 455.971 1310.55 455.03 1311.06 454.239L1325.18 432.264C1325.65 431.532 1325.88 430.669 1325.83 429.799C1325.78 428.929 1325.46 428.097 1324.9 427.423C1324.35 426.749 1323.6 426.269 1322.76 426.05C1321.91 425.832 1321.02 425.887 1320.21 426.209L1295.91 435.772C1295.03 436.119 1294.06 436.155 1293.16 435.875C1292.26 435.595 1291.49 435.015 1290.96 434.233C1290.44 433.45 1290.2 432.511 1290.29 431.573C1290.37 430.635 1290.77 429.755 1291.43 429.078L1309.57 410.281C1310.17 409.655 1310.56 408.853 1310.68 407.991C1310.8 407.13 1310.64 406.252 1310.23 405.485C1309.82 404.717 1309.18 404.099 1308.4 403.72C1307.62 403.34 1306.73 403.217 1305.88 403.37L1280.17 408.001C1279.24 408.165 1278.29 408.009 1277.47 407.558C1276.65 407.108 1276 406.39 1275.64 405.523C1275.28 404.656 1275.23 403.693 1275.49 402.793C1275.76 401.892 1276.32 401.108 1277.09 400.571L1298.54 385.668C1299.26 385.173 1299.8 384.463 1300.09 383.64C1300.38 382.818 1300.39 381.925 1300.14 381.092C1299.89 380.258 1299.38 379.526 1298.68 379.002C1297.99 378.478 1297.14 378.188 1296.27 378.174L1270.15 377.704C1269.21 377.686 1268.3 377.347 1267.58 376.743C1266.86 376.14 1266.37 375.309 1266.19 374.387C1266.01 373.466 1266.14 372.509 1266.58 371.677C1267.02 370.845 1267.72 370.186 1268.58 369.811L1292.53 359.384C1293.33 359.037 1294 358.445 1294.44 357.693C1294.88 356.942 1295.07 356.069 1294.99 355.202C1294.9 354.335 1294.54 353.517 1293.96 352.867C1293.38 352.216 1292.61 351.766 1291.76 351.582L1266.24 346.032C1265.32 345.832 1264.5 345.323 1263.91 344.592C1263.32 343.86 1263 342.948 1263 342.008C1263 341.068 1263.32 340.157 1263.91 339.425C1264.5 338.693 1265.32 338.185 1266.24 337.984L1291.76 332.427C1292.61 332.245 1293.38 331.797 1293.97 331.147C1294.55 330.497 1294.91 329.679 1294.99 328.812C1295.08 327.944 1294.89 327.072 1294.44 326.32C1294 325.569 1293.33 324.978 1292.53 324.632L1268.58 314.206C1267.72 313.83 1267.02 313.172 1266.58 312.339C1266.14 311.507 1266.01 310.551 1266.19 309.629C1266.37 308.708 1266.86 307.876 1267.58 307.273C1268.3 306.67 1269.21 306.331 1270.15 306.312L1296.27 305.842C1297.14 305.826 1297.98 305.534 1298.68 305.009C1299.37 304.484 1299.88 303.752 1300.14 302.919C1300.39 302.086 1300.37 301.194 1300.08 300.371C1299.8 299.549 1299.26 298.838 1298.54 298.342L1277.09 283.446C1276.31 282.91 1275.75 282.125 1275.48 281.223C1275.22 280.32 1275.27 279.354 1275.63 278.485C1275.99 277.616 1276.64 276.897 1277.46 276.446C1278.29 275.995 1279.24 275.841 1280.17 276.008L1305.88 280.646C1306.73 280.799 1307.62 280.677 1308.4 280.297C1309.18 279.917 1309.82 279.299 1310.23 278.532C1310.64 277.764 1310.8 276.887 1310.68 276.025C1310.56 275.164 1310.17 274.362 1309.57 273.735L1291.43 254.938C1290.77 254.262 1290.37 253.381 1290.29 252.443C1290.2 251.505 1290.44 250.567 1290.96 249.784C1291.49 249.001 1292.26 248.421 1293.16 248.141C1294.06 247.861 1295.03 247.898 1295.91 248.244L1320.21 257.808C1321.02 258.126 1321.91 258.178 1322.75 257.959C1323.6 257.739 1324.35 257.257 1324.9 256.584C1325.45 255.91 1325.78 255.079 1325.83 254.21C1325.88 253.341 1325.65 252.478 1325.18 251.746L1311.06 229.791C1310.55 229 1310.33 228.06 1310.43 227.126C1310.53 226.192 1310.95 225.32 1311.62 224.656C1312.28 223.991 1313.15 223.574 1314.09 223.473C1315.02 223.372 1315.96 223.594 1316.75 224.101L1338.73 238.218C1339.46 238.688 1340.32 238.913 1341.19 238.862C1342.06 238.81 1342.89 238.485 1343.56 237.933C1344.24 237.38 1344.72 236.629 1344.94 235.786C1345.15 234.944 1345.1 234.054 1344.78 233.243L1335.23 208.939C1334.88 208.064 1334.84 207.096 1335.12 206.196C1335.4 205.297 1335.98 204.521 1336.76 203.998C1337.54 203.474 1338.48 203.236 1339.42 203.321C1340.36 203.407 1341.24 203.812 1341.91 204.469L1360.71 222.606C1361.34 223.211 1362.14 223.601 1363 223.721C1363.86 223.84 1364.74 223.683 1365.51 223.273C1366.28 222.862 1366.9 222.218 1367.28 221.434C1367.65 220.65 1367.78 219.766 1367.62 218.909L1362.99 193.201C1362.82 192.275 1362.97 191.32 1363.42 190.493C1363.87 189.667 1364.59 189.02 1365.46 188.66C1366.33 188.301 1367.3 188.25 1368.2 188.517C1369.1 188.784 1369.89 189.353 1370.42 190.128L1385.32 211.577C1385.82 212.292 1386.53 212.831 1387.35 213.117C1388.17 213.403 1389.07 213.421 1389.9 213.169C1390.73 212.916 1391.47 212.406 1391.99 211.711C1392.52 211.017 1392.81 210.174 1392.82 209.303L1393.29 183.188C1393.3 182.248 1393.64 181.343 1394.24 180.621C1394.85 179.9 1395.68 179.407 1396.6 179.223C1397.52 179.04 1398.48 179.177 1399.31 179.612C1400.15 180.048 1400.8 180.755 1401.18 181.617L1411.61 205.571C1411.96 206.37 1412.55 207.038 1413.3 207.48C1414.05 207.922 1414.93 208.114 1415.79 208.029C1416.66 207.944 1417.48 207.586 1418.13 207.007C1418.78 206.428 1419.23 205.657 1419.42 204.806L1424.94 179.273C1425.14 178.348 1425.65 177.517 1426.38 176.921C1427.11 176.325 1428.03 176 1428.98 176C1429.92 176 1430.84 176.325 1431.57 176.921C1432.31 177.517 1432.81 178.348 1433.01 179.273Z" fill="#00FF46" stroke="black" stroke-width="6" mask="url(#path-2-inside-1_84_104)"/>
<path d="M-2.94461 239.119L-2.91217 239.088L-2.88116 239.055C11.1313 224.401 20.9355 206.323 25.6084 186.724C30.2796 206.317 40.0788 224.39 54.0842 239.042L54.1153 239.074L54.1479 239.105C68.6878 253.004 86.5963 262.762 106.017 267.476C86.4335 271.91 68.4177 281.801 54.1159 296.107C39.9294 310.298 30.088 328.142 25.6084 347.544C21.1267 328.135 11.2778 310.286 -2.91938 296.095C-17.2245 281.796 -35.2418 271.913 -54.8242 267.489C-35.3993 262.778 -17.4864 253.021 -2.94461 239.119Z" fill="#9747FF" stroke="black" stroke-width="4"/>
</svg>
