<svg width="32" height="33" viewBox="0 0 32 33" fill="none" xmlns="http://www.w3.org/2000/svg">
<g clip-path="url(#clip0_84_83)">
<path d="M9.13756 11.7538C9.3833 11.7538 9.58252 11.5539 9.58252 11.3074C9.58252 11.0609 9.3833 10.861 9.13756 10.861C8.89181 10.861 8.6926 11.0609 8.6926 11.3074C8.6926 11.5539 8.89181 11.7538 9.13756 11.7538Z" fill="black"/>
<path d="M13.6033 11.7527H11.2091C10.9639 11.7527 10.7652 11.5534 10.7652 11.3074C10.7652 11.0614 10.9639 10.8621 11.2091 10.8621H13.6033C13.8485 10.8621 14.0472 11.0614 14.0472 11.3074C14.0472 11.5534 13.8485 11.7527 13.6033 11.7527Z" fill="black"/>
<path d="M13.6033 13.4298H9.13247C8.88726 13.4298 8.68857 13.2304 8.68857 12.9844C8.68857 12.7385 8.88726 12.5391 9.13247 12.5391H13.6033C13.8485 12.5391 14.0472 12.7385 14.0472 12.9844C14.0472 13.2304 13.8485 13.4298 13.6033 13.4298Z" fill="black"/>
<path d="M14.7955 17.4282H7.71999C6.8657 17.4282 6.17073 16.731 6.17073 15.874V8.77594C6.17073 7.91892 6.8657 7.22174 7.71999 7.22174C7.9652 7.22174 8.16389 7.42106 8.16389 7.66705C8.16389 7.91305 7.9652 8.11237 7.71999 8.11237C7.35529 8.11237 7.05853 8.41007 7.05853 8.77594V15.874C7.05853 16.2399 7.35529 16.5376 7.71999 16.5376H14.7956C15.1603 16.5376 15.457 16.2399 15.457 15.874V8.77594C15.457 8.41007 15.1603 8.11237 14.7956 8.11237H9.90787C9.66266 8.11237 9.46397 7.91305 9.46397 7.66705C9.46397 7.42106 9.66266 7.22174 9.90787 7.22174H14.7956C15.6499 7.22174 16.3448 7.91892 16.3448 8.77594V15.874C16.3448 16.731 15.6498 17.4282 14.7955 17.4282Z" fill="black"/>
<path d="M12.1425 3.79343H10.373C10.1278 3.79343 9.92912 3.59411 9.92912 3.34812C9.92912 3.10213 10.1278 2.9028 10.373 2.9028H12.1425C12.3877 2.9028 12.5864 3.10213 12.5864 3.34812C12.5864 3.59411 12.3877 3.79343 12.1425 3.79343Z" fill="black"/>
<path d="M17.7924 4.22497C18.0338 4.22497 18.2294 4.02868 18.2294 3.78654C18.2294 3.54441 18.0338 3.34812 17.7924 3.34812C17.5511 3.34812 17.3554 3.54441 17.3554 3.78654C17.3554 4.02868 17.5511 4.22497 17.7924 4.22497Z" fill="black"/>
<path d="M18.4451 21.3989C18.2922 21.3989 18.1435 21.3197 18.0611 21.1775C17.8724 20.8523 17.7728 20.4808 17.7728 20.1029V20.0444C17.7728 19.7984 17.9715 19.5991 18.2167 19.5991C18.4619 19.5991 18.6606 19.7984 18.6606 20.0444V20.103C18.6606 20.3237 18.7186 20.5403 18.8284 20.7296C18.9517 20.9421 18.8799 21.2147 18.668 21.3384C18.5978 21.3795 18.521 21.3989 18.4451 21.3989Z" fill="black"/>
<path d="M29.3525 25.4265L26.1811 22.2449H26.7446C27.5115 22.2449 28.1354 21.619 28.1354 20.8496C28.1354 20.0802 27.5115 19.4543 26.7446 19.4543H26.3096V19.1989C26.3096 18.9529 26.1109 18.7536 25.8657 18.7536C25.6205 18.7536 25.4218 18.9529 25.4218 19.1989V19.4543H22.825C22.4572 19.4509 22.0915 19.6093 21.8226 19.8836C21.5648 20.1465 21.4263 20.4908 21.4323 20.8537V21.3512H20.1516C19.9064 21.3512 19.7077 21.5505 19.7077 21.7965C19.7077 21.8121 19.7086 21.8276 19.7102 21.8428C19.7086 21.858 19.7077 21.8735 19.7077 21.8891V29.4333C19.7077 30.2803 19.0209 30.9694 18.1766 30.9694H4.33886C3.49457 30.9694 2.80771 30.2803 2.80771 29.4333V3.88665C2.80771 3.03966 3.49457 2.35062 4.33886 2.35062H6.0671L6.26744 3.39983C6.45518 4.38273 7.31528 5.09612 8.31268 5.09612H14.2029C15.2004 5.09612 16.0605 4.38267 16.2482 3.39977L16.4484 2.35062H18.1766C19.0209 2.35062 19.7077 3.03966 19.7077 3.88665V12.9915C19.7077 13.2375 19.9064 13.4368 20.1516 13.4368C20.3968 13.4368 20.5955 13.2375 20.5955 12.9915V3.88665C20.5955 2.54857 19.5104 1.45999 18.1766 1.45999H4.33886C3.00504 1.45999 1.91992 2.54857 1.91992 3.88665V29.4333C1.91992 30.7714 3.00504 31.86 4.33886 31.86H18.1766C19.5104 31.86 20.5955 30.7714 20.5955 29.4333V22.2418H21.4323V24.7834C21.4323 25.5528 22.0562 26.1788 22.8232 26.1788C23.5901 26.1788 24.2141 25.5528 24.2141 24.7834V24.2181L27.3855 27.3997C27.3871 27.4013 27.3887 27.4029 27.3903 27.4045C27.6448 27.6521 28.0068 27.8044 28.3822 27.8044C28.7152 27.8044 29.0587 27.6845 29.3471 27.405C29.3489 27.4032 29.3508 27.4015 29.3525 27.3997C29.6152 27.1362 29.7599 26.7857 29.7599 26.413C29.7599 26.0404 29.6152 25.69 29.3525 25.4265ZM15.5445 2.35062L15.3761 3.23228C15.2685 3.79622 14.775 4.20555 14.2029 4.20555H8.31262C7.74047 4.20555 7.24703 3.79622 7.13937 3.23228L6.97105 2.35062H15.5445ZM28.7274 26.7673C28.482 27.0022 28.156 26.9068 28.0105 26.7671L24.0841 22.8282C23.9571 22.7007 23.7661 22.6626 23.6003 22.7317C23.4344 22.8006 23.3263 22.963 23.3263 23.1431V24.7834C23.3263 25.0617 23.1006 25.2881 22.8232 25.2881C22.5458 25.2881 22.3201 25.0617 22.3201 24.7834V20.8496C22.3201 20.8466 22.32 20.8436 22.32 20.8406C22.3168 20.6833 22.3919 20.573 22.4555 20.5081C22.5543 20.4074 22.6938 20.3449 22.8217 20.3449H26.7445C27.0219 20.3449 27.2476 20.5713 27.2476 20.8496C27.2476 21.1279 27.0219 21.3543 26.7445 21.3543H25.1094C24.9299 21.3543 24.7679 21.4628 24.6993 21.6292C24.6306 21.7956 24.6685 21.9871 24.7954 22.1145L28.7247 26.0563C28.8197 26.1516 28.8721 26.2783 28.8721 26.4132C28.8721 26.5466 28.8207 26.6723 28.7274 26.7673Z" fill="black"/>
<path d="M18.2167 18.4116C17.9715 18.4116 17.7728 18.2123 17.7728 17.9663V17.0163C17.7728 16.7703 17.9715 16.571 18.2167 16.571C18.4619 16.571 18.6606 16.7703 18.6606 17.0163V17.9663C18.6606 18.2122 18.4619 18.4116 18.2167 18.4116Z" fill="black"/>
<path d="M25.8656 17.5661C25.6204 17.5661 25.4218 17.3668 25.4218 17.1208V16.1708C25.4218 15.9248 25.6204 15.7255 25.8656 15.7255C26.1109 15.7255 26.3095 15.9248 26.3095 16.1708V17.1208C26.3095 17.3667 26.1109 17.5661 25.8656 17.5661Z" fill="black"/>
<path d="M18.4379 15.4226C18.3631 15.4226 18.2875 15.4037 18.218 15.3638C18.0051 15.2417 17.9313 14.9696 18.053 14.7562C18.2522 14.4065 18.5445 14.1212 18.8981 13.9309C19.1143 13.8147 19.3832 13.8963 19.499 14.1129C19.6149 14.3296 19.5337 14.5996 19.3177 14.7158C19.111 14.827 18.9402 14.9938 18.8236 15.1982C18.7417 15.342 18.592 15.4226 18.4379 15.4226Z" fill="black"/>
<path d="M25.0641 14.8209C24.9844 14.8209 24.9038 14.7994 24.8311 14.7542C24.6352 14.6327 24.4093 14.5684 24.1776 14.5684H24.1648C23.9195 14.5684 23.7209 14.3691 23.7209 14.1231C23.7209 13.8771 23.9195 13.6778 24.1648 13.6778H24.1776C24.5744 13.6778 24.9619 13.7881 25.2981 13.9968C25.5066 14.1262 25.5711 14.4006 25.4421 14.6097C25.3581 14.7459 25.2128 14.8209 25.0641 14.8209Z" fill="black"/>
<path d="M22.0932 14.5684H21.1463C20.9011 14.5684 20.7024 14.3691 20.7024 14.1231C20.7024 13.8771 20.9011 13.6778 21.1463 13.6778H22.0932C22.3384 13.6778 22.5371 13.8771 22.5371 14.1231C22.5371 14.3691 22.3384 14.5684 22.0932 14.5684Z" fill="black"/>
<path d="M9.13756 11.7538C9.3833 11.7538 9.58252 11.5539 9.58252 11.3074C9.58252 11.0609 9.3833 10.861 9.13756 10.861C8.89181 10.861 8.6926 11.0609 8.6926 11.3074C8.6926 11.5539 8.89181 11.7538 9.13756 11.7538Z" stroke="black" stroke-width="0.5"/>
<path d="M13.6033 11.7527H11.2091C10.9639 11.7527 10.7652 11.5534 10.7652 11.3074C10.7652 11.0614 10.9639 10.8621 11.2091 10.8621H13.6033C13.8485 10.8621 14.0472 11.0614 14.0472 11.3074C14.0472 11.5534 13.8485 11.7527 13.6033 11.7527Z" stroke="black" stroke-width="0.5"/>
<path d="M13.6033 13.4298H9.13247C8.88726 13.4298 8.68857 13.2304 8.68857 12.9844C8.68857 12.7385 8.88726 12.5391 9.13247 12.5391H13.6033C13.8485 12.5391 14.0472 12.7385 14.0472 12.9844C14.0472 13.2304 13.8485 13.4298 13.6033 13.4298Z" stroke="black" stroke-width="0.5"/>
<path d="M14.7955 17.4282H7.71999C6.8657 17.4282 6.17073 16.731 6.17073 15.874V8.77594C6.17073 7.91892 6.8657 7.22174 7.71999 7.22174C7.9652 7.22174 8.16389 7.42106 8.16389 7.66705C8.16389 7.91305 7.9652 8.11237 7.71999 8.11237C7.35529 8.11237 7.05853 8.41007 7.05853 8.77594V15.874C7.05853 16.2399 7.35529 16.5376 7.71999 16.5376H14.7956C15.1603 16.5376 15.457 16.2399 15.457 15.874V8.77594C15.457 8.41007 15.1603 8.11237 14.7956 8.11237H9.90787C9.66266 8.11237 9.46397 7.91305 9.46397 7.66705C9.46397 7.42106 9.66266 7.22174 9.90787 7.22174H14.7956C15.6499 7.22174 16.3448 7.91892 16.3448 8.77594V15.874C16.3448 16.731 15.6498 17.4282 14.7955 17.4282Z" stroke="black" stroke-width="0.5"/>
<path d="M12.1425 3.79343H10.373C10.1278 3.79343 9.92912 3.59411 9.92912 3.34812C9.92912 3.10213 10.1278 2.9028 10.373 2.9028H12.1425C12.3877 2.9028 12.5864 3.10213 12.5864 3.34812C12.5864 3.59411 12.3877 3.79343 12.1425 3.79343Z" stroke="black" stroke-width="0.5"/>
<path d="M17.7924 4.22497C18.0338 4.22497 18.2294 4.02868 18.2294 3.78654C18.2294 3.54441 18.0338 3.34812 17.7924 3.34812C17.5511 3.34812 17.3554 3.54441 17.3554 3.78654C17.3554 4.02868 17.5511 4.22497 17.7924 4.22497Z" stroke="black" stroke-width="0.5"/>
<path d="M18.4451 21.3989C18.2922 21.3989 18.1435 21.3197 18.0611 21.1775C17.8724 20.8523 17.7728 20.4808 17.7728 20.1029V20.0444C17.7728 19.7984 17.9715 19.5991 18.2167 19.5991C18.4619 19.5991 18.6606 19.7984 18.6606 20.0444V20.103C18.6606 20.3237 18.7186 20.5403 18.8284 20.7296C18.9517 20.9421 18.8799 21.2147 18.668 21.3384C18.5978 21.3795 18.521 21.3989 18.4451 21.3989Z" stroke="black" stroke-width="0.5"/>
<path d="M29.3525 25.4265L26.1811 22.2449H26.7446C27.5115 22.2449 28.1354 21.619 28.1354 20.8496C28.1354 20.0802 27.5115 19.4543 26.7446 19.4543H26.3096V19.1989C26.3096 18.9529 26.1109 18.7536 25.8657 18.7536C25.6205 18.7536 25.4218 18.9529 25.4218 19.1989V19.4543H22.825C22.4572 19.4509 22.0915 19.6093 21.8226 19.8836C21.5648 20.1465 21.4263 20.4908 21.4323 20.8537V21.3512H20.1516C19.9064 21.3512 19.7077 21.5505 19.7077 21.7965C19.7077 21.8121 19.7086 21.8276 19.7102 21.8428C19.7086 21.858 19.7077 21.8735 19.7077 21.8891V29.4333C19.7077 30.2803 19.0209 30.9694 18.1766 30.9694H4.33886C3.49457 30.9694 2.80771 30.2803 2.80771 29.4333V3.88665C2.80771 3.03966 3.49457 2.35062 4.33886 2.35062H6.0671L6.26744 3.39983C6.45518 4.38273 7.31528 5.09612 8.31268 5.09612H14.2029C15.2004 5.09612 16.0605 4.38267 16.2482 3.39977L16.4484 2.35062H18.1766C19.0209 2.35062 19.7077 3.03966 19.7077 3.88665V12.9915C19.7077 13.2375 19.9064 13.4368 20.1516 13.4368C20.3968 13.4368 20.5955 13.2375 20.5955 12.9915V3.88665C20.5955 2.54857 19.5104 1.45999 18.1766 1.45999H4.33886C3.00504 1.45999 1.91992 2.54857 1.91992 3.88665V29.4333C1.91992 30.7714 3.00504 31.86 4.33886 31.86H18.1766C19.5104 31.86 20.5955 30.7714 20.5955 29.4333V22.2418H21.4323V24.7834C21.4323 25.5528 22.0562 26.1788 22.8232 26.1788C23.5901 26.1788 24.2141 25.5528 24.2141 24.7834V24.2181L27.3855 27.3997C27.3871 27.4013 27.3887 27.4029 27.3903 27.4045C27.6448 27.6521 28.0068 27.8044 28.3822 27.8044C28.7152 27.8044 29.0587 27.6845 29.3471 27.405C29.3489 27.4032 29.3508 27.4015 29.3525 27.3997C29.6152 27.1362 29.7599 26.7857 29.7599 26.413C29.7599 26.0404 29.6152 25.69 29.3525 25.4265ZM15.5445 2.35062L15.3761 3.23228C15.2685 3.79622 14.775 4.20555 14.2029 4.20555H8.31262C7.74047 4.20555 7.24703 3.79622 7.13937 3.23228L6.97105 2.35062H15.5445ZM28.7274 26.7673C28.482 27.0022 28.156 26.9068 28.0105 26.7671L24.0841 22.8282C23.9571 22.7007 23.7661 22.6626 23.6003 22.7317C23.4344 22.8006 23.3263 22.963 23.3263 23.1431V24.7834C23.3263 25.0617 23.1006 25.2881 22.8232 25.2881C22.5458 25.2881 22.3201 25.0617 22.3201 24.7834V20.8496C22.3201 20.8466 22.32 20.8436 22.32 20.8406C22.3168 20.6833 22.3919 20.573 22.4555 20.5081C22.5543 20.4074 22.6938 20.3449 22.8217 20.3449H26.7445C27.0219 20.3449 27.2476 20.5713 27.2476 20.8496C27.2476 21.1279 27.0219 21.3543 26.7445 21.3543H25.1094C24.9299 21.3543 24.7679 21.4628 24.6993 21.6292C24.6306 21.7956 24.6685 21.9871 24.7954 22.1145L28.7247 26.0563C28.8197 26.1516 28.8721 26.2783 28.8721 26.4132C28.8721 26.5466 28.8207 26.6723 28.7274 26.7673Z" stroke="black" stroke-width="0.5"/>
<path d="M18.2167 18.4116C17.9715 18.4116 17.7728 18.2123 17.7728 17.9663V17.0163C17.7728 16.7703 17.9715 16.571 18.2167 16.571C18.4619 16.571 18.6606 16.7703 18.6606 17.0163V17.9663C18.6606 18.2122 18.4619 18.4116 18.2167 18.4116Z" stroke="black" stroke-width="0.5"/>
<path d="M25.8656 17.5661C25.6204 17.5661 25.4218 17.3668 25.4218 17.1208V16.1708C25.4218 15.9248 25.6204 15.7255 25.8656 15.7255C26.1109 15.7255 26.3095 15.9248 26.3095 16.1708V17.1208C26.3095 17.3667 26.1109 17.5661 25.8656 17.5661Z" stroke="black" stroke-width="0.5"/>
<path d="M18.4379 15.4226C18.3631 15.4226 18.2875 15.4037 18.218 15.3638C18.0051 15.2417 17.9313 14.9696 18.053 14.7562C18.2522 14.4065 18.5445 14.1212 18.8981 13.9309C19.1143 13.8147 19.3832 13.8963 19.499 14.1129C19.6149 14.3296 19.5337 14.5996 19.3177 14.7158C19.111 14.827 18.9402 14.9938 18.8236 15.1982C18.7417 15.342 18.592 15.4226 18.4379 15.4226Z" stroke="black" stroke-width="0.5"/>
<path d="M25.0641 14.8209C24.9844 14.8209 24.9038 14.7994 24.8311 14.7542C24.6352 14.6327 24.4093 14.5684 24.1776 14.5684H24.1648C23.9195 14.5684 23.7209 14.3691 23.7209 14.1231C23.7209 13.8771 23.9195 13.6778 24.1648 13.6778H24.1776C24.5744 13.6778 24.9619 13.7881 25.2981 13.9968C25.5066 14.1262 25.5711 14.4006 25.4421 14.6097C25.3581 14.7459 25.2128 14.8209 25.0641 14.8209Z" stroke="black" stroke-width="0.5"/>
<path d="M22.0932 14.5684H21.1463C20.9011 14.5684 20.7024 14.3691 20.7024 14.1231C20.7024 13.8771 20.9011 13.6778 21.1463 13.6778H22.0932C22.3384 13.6778 22.5371 13.8771 22.5371 14.1231C22.5371 14.3691 22.3384 14.5684 22.0932 14.5684Z" stroke="black" stroke-width="0.5"/>
</g>
<defs>
<clipPath id="clip0_84_83">
<rect width="32" height="32" fill="white" transform="translate(0 0.5)"/>
</clipPath>
</defs>
</svg>
