<svg width="51" height="50" viewBox="0 0 51 50" fill="none" xmlns="http://www.w3.org/2000/svg">
<g clip-path="url(#clip0_32_390)">
<path d="M27.568 44.3945L49.28 22.6825C50.325 21.6375 50.325 19.9433 49.28 18.8985C48.235 17.8535 46.5408 17.8535 45.4958 18.8985L25.6758 38.7183L5.8558 18.8983C4.8108 17.8533 3.11664 17.8533 2.0718 18.8983C1.5493 19.4208 1.28797 20.1055 1.28797 20.7903C1.28797 21.4752 1.5493 22.1598 2.0718 22.6823L23.7838 44.3945C24.2855 44.8963 24.9661 45.1783 25.6758 45.1783C26.3855 45.1783 27.0661 44.8965 27.568 44.3945Z" fill="white"/>
<path d="M23.7838 5.60544C22.7389 6.65035 22.7389 8.34449 23.7838 9.3894C24.8287 10.4343 26.5228 10.4343 27.5677 9.3894C28.6126 8.34449 28.6126 6.65035 27.5677 5.60544C26.5228 4.56052 24.8287 4.56052 23.7838 5.60544Z" fill="white"/>
<path d="M23.0082 16.1319C22.9059 17.6061 24.0181 18.8841 25.4922 18.9864C26.9664 19.0887 28.2444 17.9766 28.3467 16.5024C28.449 15.0283 27.3369 13.7503 25.8627 13.6479C24.3886 13.5456 23.1106 14.6578 23.0082 16.1319Z" fill="white"/>
<path d="M25.6759 22.4565C24.1982 22.4565 23.0002 23.6544 23.0002 25.1322C23.0002 26.6099 24.1982 27.8078 25.6759 27.8078C27.1536 27.8078 28.3516 26.6099 28.3516 25.1322C28.3516 23.6544 27.1536 22.4565 25.6759 22.4565Z" fill="white"/>
</g>
<defs>
<clipPath id="clip0_32_390">
<rect width="50" height="50" fill="white" transform="matrix(-1 0 0 -1 50.6758 50)"/>
</clipPath>
</defs>
</svg>
