<svg width="32" height="33" viewBox="0 0 32 33" fill="none" xmlns="http://www.w3.org/2000/svg">
<path d="M18.295 2.10001L19.0336 2.23059C19.0722 2.01222 19.0122 1.78796 18.8697 1.61805C18.7272 1.44814 18.5168 1.35001 18.295 1.35001V2.10001ZM18.0489 3.49214L18.7874 3.62274L18.7874 3.62272L18.0489 3.49214ZM9.72519 3.49214L8.98664 3.62269L8.98665 3.62274L9.72519 3.49214ZM9.4791 2.10001V1.35001C9.25735 1.35001 9.04696 1.44814 8.90446 1.61804C8.76196 1.78794 8.70195 2.01219 8.74055 2.23056L9.4791 2.10001ZM22.7646 24.6566C22.7646 24.2424 22.4288 23.9066 22.0146 23.9066C21.6004 23.9066 21.2646 24.2424 21.2646 24.6566H22.7646ZM21.2646 16.9201C21.2646 17.3343 21.6004 17.6701 22.0146 17.6701C22.4288 17.6701 22.7646 17.3343 22.7646 16.9201H21.2646ZM21.2646 22.6287C21.2646 23.0429 21.6004 23.3787 22.0146 23.3787C22.4288 23.3787 22.7646 23.0429 22.7646 22.6287H21.2646ZM22.7646 21.1329C22.7646 20.7187 22.4288 20.3829 22.0146 20.3829C21.6004 20.3829 21.2646 20.7187 21.2646 21.1329H22.7646ZM13.0786 2.77379C12.6644 2.77379 12.3286 3.10957 12.3286 3.52379C12.3286 3.938 12.6644 4.27379 13.0786 4.27379V2.77379ZM14.6955 4.27379C15.1097 4.27379 15.4455 3.938 15.4455 3.52379C15.4455 3.10957 15.1097 2.77379 14.6955 2.77379V4.27379ZM18.1193 21.0258C18.5336 21.0258 18.8693 20.69 18.8693 20.2758C18.8693 19.8616 18.5336 19.5258 18.1193 19.5258V21.0258ZM13.5416 23.7599V24.5099C13.9558 24.5099 14.2916 24.1741 14.2916 23.7599H13.5416ZM18.1193 24.5099C18.5336 24.5099 18.8693 24.1741 18.8693 23.7599C18.8693 23.3457 18.5336 23.0099 18.1193 23.0099V24.5099ZM9.91773 24.7738C9.91773 24.3596 9.58195 24.0238 9.16773 24.0238C8.75352 24.0238 8.41773 24.3596 8.41773 24.7738H9.91773ZM11.525 28.1506C11.9393 28.1506 12.275 27.8149 12.275 27.4006C12.275 26.9864 11.9393 26.6506 11.525 26.6506V28.1506ZM17.5565 1.96942L17.3103 3.36156L18.7874 3.62272L19.0336 2.23059L17.5565 1.96942ZM17.3103 3.36154C17.231 3.81045 16.8912 4.05927 16.5784 4.05927V5.55927C17.702 5.55927 18.5964 4.70306 18.7874 3.62274L17.3103 3.36154ZM16.5784 4.05927H11.1957V5.55927H16.5784V4.05927ZM11.1957 4.05927C10.8829 4.05927 10.5431 3.81043 10.4637 3.36154L8.98665 3.62274C9.17769 4.70308 10.0721 5.55927 11.1957 5.55927V4.05927ZM10.4637 3.36158L10.2176 1.96945L8.74055 2.23056L8.98664 3.62269L10.4637 3.36158ZM9.4791 2.85001H18.295V1.35001H9.4791V2.85001ZM21.2646 24.6566V29.2648H22.7646V24.6566H21.2646ZM21.2646 29.2648C21.2646 29.9881 20.737 30.47 20.2098 30.47V31.97C21.6763 31.97 22.7646 30.7011 22.7646 29.2648H21.2646ZM20.2098 30.47H7.5646V31.97H20.2098V30.47ZM7.5646 30.47C7.03742 30.47 6.50977 29.988 6.50977 29.2648H5.00977C5.00977 30.7011 6.09818 31.97 7.5646 31.97V30.47ZM6.50977 29.2648V4.05525H5.00977V29.2648H6.50977ZM6.50977 4.05525C6.50977 3.33199 7.0374 2.85006 7.5646 2.85006V1.35006C6.09821 1.35006 5.00977 2.61884 5.00977 4.05525H6.50977ZM7.5646 2.85006H20.2098V1.35006H7.5646V2.85006ZM20.2098 2.85006C20.737 2.85006 21.2646 3.33197 21.2646 4.05525H22.7646C22.7646 2.61886 21.6762 1.35006 20.2098 1.35006V2.85006ZM21.2646 4.05525V16.9201H22.7646V4.05525H21.2646ZM22.7646 22.6287V21.1329H21.2646V22.6287H22.7646ZM13.0786 4.27379H14.6955V2.77379H13.0786V4.27379ZM19.5079 3.95646C19.5079 3.83876 19.6096 3.6391 19.8585 3.6391V5.1391C20.5487 5.1391 21.0079 4.55204 21.0079 3.95646H19.5079ZM19.8585 3.6391C20.1076 3.6391 20.2092 3.83883 20.2092 3.95646H18.7092C18.7092 4.55197 19.1684 5.1391 19.8585 5.1391V3.6391ZM20.2092 3.95646C20.2092 4.07397 20.1077 4.27377 19.8585 4.27377V2.77377C19.1682 2.77377 18.7092 3.36109 18.7092 3.95646H20.2092ZM19.8585 4.27377C19.6095 4.27377 19.5079 4.07403 19.5079 3.95646H21.0079C21.0079 3.36102 20.5488 2.77377 19.8585 2.77377V4.27377ZM18.1193 19.5258H14.388V21.0258H18.1193V19.5258ZM14.388 19.5258C13.4511 19.5258 12.7916 20.3296 12.7916 21.1926H14.2916C14.2916 21.1275 14.3157 21.0801 14.3406 21.0531C14.3646 21.0271 14.3818 21.0258 14.388 21.0258V19.5258ZM12.7916 21.1926V23.7599H14.2916V21.1926H12.7916ZM13.5416 23.0099H10.7204V24.5099H13.5416V23.0099ZM18.1193 23.0099H10.7204V24.5099H18.1193V23.0099ZM24.9838 20.3831H19.0553V21.8831H24.9838V20.3831ZM19.0553 20.3831C19.0243 20.3831 18.9847 20.3709 18.9446 20.3274C18.9035 20.2829 18.8693 20.2112 18.8693 20.1192H17.3693C17.3693 21.0357 18.0688 21.8831 19.0553 21.8831V20.3831ZM18.8693 20.1192C18.8693 20.0272 18.9034 19.9555 18.9446 19.911C18.9847 19.8674 19.0243 19.8553 19.0553 19.8553V18.3553C18.0688 18.3553 17.3693 19.2026 17.3693 20.1192H18.8693ZM19.0553 19.8553H24.9838V18.3553H19.0553V19.8553ZM24.9838 19.8553C25.0148 19.8553 25.0544 19.8674 25.0946 19.911C25.1357 19.9555 25.1698 20.0272 25.1698 20.1192H26.6698C26.6698 19.2025 25.9702 18.3553 24.9838 18.3553V19.8553ZM25.1698 20.1192C25.1698 20.2111 25.1357 20.2828 25.0945 20.3274C25.0544 20.3709 25.0148 20.3831 24.9838 20.3831V21.8831C25.9702 21.8831 26.6698 21.0358 26.6698 20.1192H25.1698ZM24.9838 23.9066H19.0553V25.4066H24.9838V23.9066ZM19.0553 23.9066C19.0243 23.9066 18.9847 23.8945 18.9446 23.851C18.9035 23.8064 18.8693 23.7347 18.8693 23.6427H17.3693C17.3693 24.5593 18.0688 25.4066 19.0553 25.4066V23.9066ZM18.8693 23.6427C18.8693 23.5507 18.9034 23.4791 18.9446 23.4345C18.9847 23.391 19.0243 23.3788 19.0553 23.3788V21.8788C18.0688 21.8788 17.3693 22.7261 17.3693 23.6427H18.8693ZM19.0553 23.3788H24.9838V21.8788H19.0553V23.3788ZM24.9838 23.3788C25.0148 23.3788 25.0544 23.391 25.0946 23.4345C25.1357 23.4791 25.1698 23.5508 25.1698 23.6427H26.6698C26.6698 22.7261 25.9702 21.8788 24.9838 21.8788V23.3788ZM25.1698 23.6427C25.1698 23.7347 25.1357 23.8064 25.0945 23.8509C25.0544 23.8945 25.0148 23.9066 24.9838 23.9066V25.4066C25.9702 25.4066 26.6698 24.5594 26.6698 23.6427H25.1698ZM17.8179 27.6646H14.3857V29.1646H17.8179V27.6646ZM14.3857 27.6646C14.3547 27.6646 14.3151 27.6525 14.2749 27.6089C14.2338 27.5644 14.1997 27.4926 14.1997 27.4006H12.6997C12.6997 28.3172 13.3991 29.1646 14.3857 29.1646V27.6646ZM14.1997 27.4006C14.1997 27.3087 14.2338 27.237 14.2749 27.1924C14.3151 27.1489 14.3546 27.1368 14.3857 27.1368V25.6368C13.3991 25.6368 12.6997 26.4841 12.6997 27.4006H14.1997ZM14.3857 27.1368H17.8179V25.6368H14.3857V27.1368ZM17.8179 27.1368C17.8489 27.1368 17.8884 27.1489 17.9286 27.1924C17.9697 27.237 18.0038 27.3087 18.0038 27.4006H19.5038C19.5038 26.4841 18.8044 25.6368 17.8179 25.6368V27.1368ZM18.0038 27.4006C18.0038 27.4926 17.9697 27.5644 17.9286 27.6089C17.8884 27.6525 17.8489 27.6646 17.8179 27.6646V29.1646C18.8045 29.1646 19.5038 28.3172 19.5038 27.4006H18.0038ZM9.78444 24.0238H8.55097V25.5238H9.78444V24.0238ZM8.55097 24.0238C8.52004 24.0238 8.4805 24.0117 8.4403 23.9681C8.39917 23.9236 8.36507 23.8519 8.36507 23.7599H6.86507C6.86507 24.6765 7.56453 25.5238 8.55097 25.5238V24.0238ZM8.36507 23.7599C8.36507 23.668 8.39916 23.5963 8.44029 23.5517C8.4805 23.5081 8.52004 23.496 8.55097 23.496V21.996C7.56456 21.996 6.86507 22.8433 6.86507 23.7599H8.36507ZM8.55097 23.496H9.78444V21.996H8.55097V23.496ZM9.78444 23.496C9.81545 23.496 9.855 23.5082 9.89519 23.5517C9.93631 23.5963 9.97041 23.668 9.97041 23.7599H11.4704C11.4704 22.8434 10.771 21.996 9.78444 21.996V23.496ZM9.97041 23.7599C9.97041 23.8519 9.93631 23.9236 9.8952 23.9681C9.85503 24.0117 9.81548 24.0238 9.78444 24.0238V25.5238C10.7709 25.5238 11.4704 24.6766 11.4704 23.7599H9.97041ZM8.41773 24.7738V26.4838H9.91773V24.7738H8.41773ZM8.41773 26.4838C8.41773 27.3467 9.07706 28.1506 10.0141 28.1506V26.6506C10.0079 26.6506 9.99071 26.6494 9.96672 26.6234C9.94181 26.5964 9.91773 26.5489 9.91773 26.4838H8.41773ZM10.0141 28.1506H11.525V26.6506H10.0141V28.1506Z" fill="black"/>
</svg>
