<svg width="32" height="33" viewBox="0 0 32 33" fill="none" xmlns="http://www.w3.org/2000/svg">
<g clip-path="url(#clip0_84_88)">
<path d="M8.46165 22.5831C8.46165 22.3242 8.25394 22.1144 7.99759 22.1144H4.82C4.56365 22.1144 4.35594 22.3242 4.35594 22.5831C4.35594 22.842 4.56365 23.0519 4.82 23.0519H7.99753C8.25388 23.0519 8.46165 22.842 8.46165 22.5831Z" fill="black"/>
<path d="M5.85443 23.8634C5.59808 23.8634 5.39036 24.0733 5.39036 24.3322C5.39036 24.5911 5.59808 24.8009 5.85443 24.8009H7.09131C7.34766 24.8009 7.55537 24.5911 7.55537 24.3322C7.55537 24.0733 7.34766 23.8634 7.09131 23.8634H5.85443Z" fill="black"/>
<path d="M15.9573 22.1144H12.7798C12.5234 22.1144 12.3157 22.3242 12.3157 22.5831C12.3157 22.842 12.5234 23.0519 12.7798 23.0519H15.9573C16.2137 23.0519 16.4214 22.842 16.4214 22.5831C16.4214 22.3242 16.2136 22.1144 15.9573 22.1144Z" fill="black"/>
<path d="M13.8142 23.8634C13.5579 23.8634 13.3501 24.0733 13.3501 24.3322C13.3501 24.5911 13.5579 24.8009 13.8142 24.8009H15.051C15.3074 24.8009 15.5151 24.5911 15.5151 24.3322C15.5151 24.0733 15.3074 23.8634 15.051 23.8634H13.8142Z" fill="black"/>
<path d="M27.7704 19.0427H20.7922C20.5359 19.0427 20.3282 19.2526 20.3282 19.5114C20.3282 19.7703 20.5359 19.9802 20.7922 19.9802H27.7704C28.0268 19.9802 28.2345 19.7703 28.2345 19.5114C28.2345 19.2526 28.0268 19.0427 27.7704 19.0427Z" fill="black"/>
<path d="M20.7922 21.7292H25.5532C25.8095 21.7292 26.0173 21.5194 26.0173 21.2605C26.0173 21.0016 25.8095 20.7917 25.5532 20.7917H20.7922C20.5359 20.7917 20.3282 21.0016 20.3282 21.2605C20.3282 21.5194 20.5359 21.7292 20.7922 21.7292Z" fill="black"/>
<path d="M26.888 8.25155C26.7067 8.06849 26.413 8.06849 26.2317 8.25155C26.0505 8.43462 26.0505 8.73143 26.2317 8.91443L28.8199 11.5287L26.2317 14.1431C26.0505 14.3261 26.0505 14.6229 26.2317 14.8059C26.3769 14.9411 26.647 15.0185 26.888 14.8059L29.8043 11.8602C29.9856 11.6771 29.9856 11.3803 29.8043 11.1973L26.888 8.25155Z" fill="black"/>
<path d="M22.1151 14.9432C22.2338 14.9432 22.3526 14.8974 22.4432 14.8059C22.6245 14.6228 22.6245 14.326 22.4432 14.143L19.8551 11.5287L22.4432 8.91437C22.6245 8.7313 22.6245 8.43449 22.4432 8.25149C22.2619 8.06843 21.9682 8.06843 21.7869 8.25149L18.8707 11.1972C18.6895 11.3803 18.6895 11.6771 18.8707 11.8601L21.7869 14.8059C21.8775 14.8975 21.9963 14.9432 22.1151 14.9432Z" fill="black"/>
<path d="M23.2886 13.9504C23.3513 13.9794 23.417 13.9932 23.4817 13.9932C23.6576 13.9932 23.8258 13.8917 23.9039 13.7197L25.7542 9.6448C25.861 9.40949 25.7587 9.13124 25.5259 9.0233C25.2926 8.9153 25.0174 9.01868 24.9106 9.25393L23.0603 13.3289C22.9534 13.5641 23.0556 13.8424 23.2886 13.9504Z" fill="black"/>
<path d="M15.6143 8.61337H13.4042C13.1478 8.61337 12.9401 8.82324 12.9401 9.08212C12.9401 9.34099 13.1478 9.55087 13.4042 9.55087H15.6143C15.8706 9.55087 16.0783 9.34099 16.0783 9.08212C16.0783 8.82324 15.8706 8.61337 15.6143 8.61337Z" fill="black"/>
<path d="M28.8704 1.45999H19.5404C17.9911 1.45999 16.7308 2.73312 16.7308 4.29799V6.84749H2.80974C1.26046 6.84749 0 8.12068 0 9.68562V24.2031C0 25.8256 1.3068 27.1456 2.91307 27.1456H14.9955C15.2519 27.1456 15.4596 26.9357 15.4596 26.6769C15.4596 26.418 15.2519 26.2081 14.9955 26.2081H2.91307C1.81857 26.2081 0.928125 25.3087 0.928125 24.2031V11.2419H16.7308V13.2408C16.5162 13.1363 16.2759 13.0777 16.0223 13.0777H12.7149C11.8124 13.0777 11.0782 13.8194 11.0782 14.7309V19.0145C11.0782 19.9261 11.8124 20.6677 12.7149 20.6677H16.0223C16.2759 20.6677 16.5163 20.6091 16.7308 20.5046V28.3402C16.7308 29.9627 18.0376 31.2828 19.6439 31.2828H28.7669C30.3732 31.2828 31.68 29.9627 31.68 28.3402V4.29805C31.68 2.73318 30.4196 1.45999 28.8704 1.45999ZM17.6589 4.29805C17.6589 3.25012 18.5029 2.39755 19.5404 2.39755H28.8704C29.9079 2.39755 30.7519 3.25012 30.7519 4.29805V4.91724H17.6589V4.29805ZM0.928125 10.3044V9.68568C0.928125 8.63768 1.77222 7.78505 2.80974 7.78505H16.7307V10.3044H0.928125ZM16.0222 19.7302H12.7148C12.3241 19.7302 12.0063 19.4091 12.0063 19.0145V14.7309C12.0063 14.3363 12.3241 14.0152 12.7148 14.0152H16.0222C16.4128 14.0152 16.7307 14.3363 16.7307 14.7309V19.0145C16.7308 19.4091 16.4129 19.7302 16.0222 19.7302ZM28.7669 30.3454H19.6439C18.5494 30.3454 17.6589 29.4459 17.6589 28.3403V10.7792C17.6589 10.7772 17.6592 10.7752 17.6592 10.7732C17.6592 10.7711 17.6589 10.7692 17.6589 10.7671V7.3223C17.6589 7.32024 17.6592 7.3183 17.6592 7.31624C17.6592 7.31418 17.6589 7.31224 17.6589 7.31018V5.85468H30.7519V28.3402C30.7519 29.4459 29.8614 30.3454 28.7669 30.3454Z" fill="black"/>
<path d="M22.5234 3.22599H20.3133C20.0569 3.22599 19.8492 3.43587 19.8492 3.69474C19.8492 3.95362 20.0569 4.16349 20.3133 4.16349H22.5234C22.7797 4.16349 22.9874 3.95362 22.9874 3.69474C22.9874 3.43587 22.7797 3.22599 22.5234 3.22599Z" fill="black"/>
<path d="M28.7059 4.15593C28.9581 4.15593 29.1625 3.94945 29.1625 3.69474C29.1625 3.44003 28.9581 3.23355 28.7059 3.23355C28.4538 3.23355 28.2493 3.44003 28.2493 3.69474C28.2493 3.94945 28.4538 4.15593 28.7059 4.15593Z" fill="black"/>
<path d="M9.69915 19.0145V14.7309C9.69915 13.8194 8.96494 13.0777 8.0625 13.0777H4.75516C3.85271 13.0777 3.1185 13.8194 3.1185 14.7309V19.0145C3.1185 19.9261 3.85271 20.6677 4.75516 20.6677H8.0625C8.96494 20.6677 9.69915 19.9261 9.69915 19.0145ZM8.77103 19.0145C8.77103 19.4091 8.45318 19.7302 8.0625 19.7302H4.75516C4.36448 19.7302 4.04662 19.4091 4.04662 19.0145V14.7309C4.04662 14.3363 4.36448 14.0152 4.75516 14.0152H8.0625C8.45318 14.0152 8.77103 14.3363 8.77103 14.7309V19.0145Z" fill="black"/>
<path d="M28.227 21.2605C28.227 21.0058 28.0226 20.7993 27.7704 20.7993C27.5183 20.7993 27.3139 21.0058 27.3139 21.2605C27.3139 21.5152 27.5182 21.7217 27.7704 21.7217C28.0226 21.7217 28.227 21.5152 28.227 21.2605Z" fill="black"/>
<path d="M27.7704 24.1464H20.7922C20.5359 24.1464 20.3282 24.3563 20.3282 24.6152C20.3282 24.8741 20.5359 25.0839 20.7922 25.0839H27.7704C28.0268 25.0839 28.2345 24.8741 28.2345 24.6152C28.2345 24.3563 28.0268 24.1464 27.7704 24.1464Z" fill="black"/>
<path d="M20.7922 26.8955H22.2491C22.5055 26.8955 22.7132 26.6856 22.7132 26.4267C22.7132 26.1679 22.5055 25.958 22.2491 25.958H20.7922C20.5359 25.958 20.3282 26.1679 20.3282 26.4267C20.3282 26.6856 20.5359 26.8955 20.7922 26.8955Z" fill="black"/>
<path d="M27.7704 25.958H26.5844C26.3281 25.958 26.1203 26.1679 26.1203 26.4267C26.1203 26.6856 26.3281 26.8955 26.5844 26.8955H27.7704C28.0268 26.8955 28.2345 26.6856 28.2345 26.4267C28.2345 26.1679 28.0268 25.958 27.7704 25.958Z" fill="black"/>
<path d="M25.8522 27.7071H20.7923C20.5359 27.7071 20.3282 27.9169 20.3282 28.1758C20.3282 28.4347 20.5359 28.6446 20.7923 28.6446H25.8522C26.1085 28.6446 26.3162 28.4347 26.3162 28.1758C26.3162 27.9169 26.1085 27.7071 25.8522 27.7071Z" fill="black"/>
<path d="M24.4389 26.8879C24.691 26.8879 24.8955 26.6814 24.8955 26.4267C24.8955 26.172 24.691 25.9656 24.4389 25.9656C24.1867 25.9656 23.9823 26.172 23.9823 26.4267C23.9823 26.6814 24.1867 26.8879 24.4389 26.8879Z" fill="black"/>
<path d="M8.46165 22.5831C8.46165 22.3242 8.25394 22.1144 7.99759 22.1144H4.82C4.56365 22.1144 4.35594 22.3242 4.35594 22.5831C4.35594 22.842 4.56365 23.0519 4.82 23.0519H7.99753C8.25388 23.0519 8.46165 22.842 8.46165 22.5831Z" stroke="black" stroke-width="0.5"/>
<path d="M5.85443 23.8634C5.59808 23.8634 5.39036 24.0733 5.39036 24.3322C5.39036 24.5911 5.59808 24.8009 5.85443 24.8009H7.09131C7.34766 24.8009 7.55537 24.5911 7.55537 24.3322C7.55537 24.0733 7.34766 23.8634 7.09131 23.8634H5.85443Z" stroke="black" stroke-width="0.5"/>
<path d="M15.9573 22.1144H12.7798C12.5234 22.1144 12.3157 22.3242 12.3157 22.5831C12.3157 22.842 12.5234 23.0519 12.7798 23.0519H15.9573C16.2137 23.0519 16.4214 22.842 16.4214 22.5831C16.4214 22.3242 16.2136 22.1144 15.9573 22.1144Z" stroke="black" stroke-width="0.5"/>
<path d="M13.8142 23.8634C13.5579 23.8634 13.3501 24.0733 13.3501 24.3322C13.3501 24.5911 13.5579 24.8009 13.8142 24.8009H15.051C15.3074 24.8009 15.5151 24.5911 15.5151 24.3322C15.5151 24.0733 15.3074 23.8634 15.051 23.8634H13.8142Z" stroke="black" stroke-width="0.5"/>
<path d="M27.7704 19.0427H20.7922C20.5359 19.0427 20.3282 19.2526 20.3282 19.5114C20.3282 19.7703 20.5359 19.9802 20.7922 19.9802H27.7704C28.0268 19.9802 28.2345 19.7703 28.2345 19.5114C28.2345 19.2526 28.0268 19.0427 27.7704 19.0427Z" stroke="black" stroke-width="0.5"/>
<path d="M20.7922 21.7292H25.5532C25.8095 21.7292 26.0173 21.5194 26.0173 21.2605C26.0173 21.0016 25.8095 20.7917 25.5532 20.7917H20.7922C20.5359 20.7917 20.3282 21.0016 20.3282 21.2605C20.3282 21.5194 20.5359 21.7292 20.7922 21.7292Z" stroke="black" stroke-width="0.5"/>
<path d="M26.888 8.25155C26.7067 8.06849 26.413 8.06849 26.2317 8.25155C26.0505 8.43462 26.0505 8.73143 26.2317 8.91443L28.8199 11.5287L26.2317 14.1431C26.0505 14.3261 26.0505 14.6229 26.2317 14.8059C26.3769 14.9411 26.647 15.0185 26.888 14.8059L29.8043 11.8602C29.9856 11.6771 29.9856 11.3803 29.8043 11.1973L26.888 8.25155Z" stroke="black" stroke-width="0.5"/>
<path d="M22.1151 14.9432C22.2338 14.9432 22.3526 14.8974 22.4432 14.8059C22.6245 14.6228 22.6245 14.326 22.4432 14.143L19.8551 11.5287L22.4432 8.91437C22.6245 8.7313 22.6245 8.43449 22.4432 8.25149C22.2619 8.06843 21.9682 8.06843 21.7869 8.25149L18.8707 11.1972C18.6895 11.3803 18.6895 11.6771 18.8707 11.8601L21.7869 14.8059C21.8775 14.8975 21.9963 14.9432 22.1151 14.9432Z" stroke="black" stroke-width="0.5"/>
<path d="M23.2886 13.9504C23.3513 13.9794 23.417 13.9932 23.4817 13.9932C23.6576 13.9932 23.8258 13.8917 23.9039 13.7197L25.7542 9.6448C25.861 9.40949 25.7587 9.13124 25.5259 9.0233C25.2926 8.9153 25.0174 9.01868 24.9106 9.25393L23.0603 13.3289C22.9534 13.5641 23.0556 13.8424 23.2886 13.9504Z" stroke="black" stroke-width="0.5"/>
<path d="M15.6143 8.61337H13.4042C13.1478 8.61337 12.9401 8.82324 12.9401 9.08212C12.9401 9.34099 13.1478 9.55087 13.4042 9.55087H15.6143C15.8706 9.55087 16.0783 9.34099 16.0783 9.08212C16.0783 8.82324 15.8706 8.61337 15.6143 8.61337Z" stroke="black" stroke-width="0.5"/>
<path d="M28.8704 1.45999H19.5404C17.9911 1.45999 16.7308 2.73312 16.7308 4.29799V6.84749H2.80974C1.26046 6.84749 0 8.12068 0 9.68562V24.2031C0 25.8256 1.3068 27.1456 2.91307 27.1456H14.9955C15.2519 27.1456 15.4596 26.9357 15.4596 26.6769C15.4596 26.418 15.2519 26.2081 14.9955 26.2081H2.91307C1.81857 26.2081 0.928125 25.3087 0.928125 24.2031V11.2419H16.7308V13.2408C16.5162 13.1363 16.2759 13.0777 16.0223 13.0777H12.7149C11.8124 13.0777 11.0782 13.8194 11.0782 14.7309V19.0145C11.0782 19.9261 11.8124 20.6677 12.7149 20.6677H16.0223C16.2759 20.6677 16.5163 20.6091 16.7308 20.5046V28.3402C16.7308 29.9627 18.0376 31.2828 19.6439 31.2828H28.7669C30.3732 31.2828 31.68 29.9627 31.68 28.3402V4.29805C31.68 2.73318 30.4196 1.45999 28.8704 1.45999ZM17.6589 4.29805C17.6589 3.25012 18.5029 2.39755 19.5404 2.39755H28.8704C29.9079 2.39755 30.7519 3.25012 30.7519 4.29805V4.91724H17.6589V4.29805ZM0.928125 10.3044V9.68568C0.928125 8.63768 1.77222 7.78505 2.80974 7.78505H16.7307V10.3044H0.928125ZM16.0222 19.7302H12.7148C12.3241 19.7302 12.0063 19.4091 12.0063 19.0145V14.7309C12.0063 14.3363 12.3241 14.0152 12.7148 14.0152H16.0222C16.4128 14.0152 16.7307 14.3363 16.7307 14.7309V19.0145C16.7308 19.4091 16.4129 19.7302 16.0222 19.7302ZM28.7669 30.3454H19.6439C18.5494 30.3454 17.6589 29.4459 17.6589 28.3403V10.7792C17.6589 10.7772 17.6592 10.7752 17.6592 10.7732C17.6592 10.7711 17.6589 10.7692 17.6589 10.7671V7.3223C17.6589 7.32024 17.6592 7.3183 17.6592 7.31624C17.6592 7.31418 17.6589 7.31224 17.6589 7.31018V5.85468H30.7519V28.3402C30.7519 29.4459 29.8614 30.3454 28.7669 30.3454Z" stroke="black" stroke-width="0.5"/>
<path d="M22.5234 3.22599H20.3133C20.0569 3.22599 19.8492 3.43587 19.8492 3.69474C19.8492 3.95362 20.0569 4.16349 20.3133 4.16349H22.5234C22.7797 4.16349 22.9874 3.95362 22.9874 3.69474C22.9874 3.43587 22.7797 3.22599 22.5234 3.22599Z" stroke="black" stroke-width="0.5"/>
<path d="M28.7059 4.15593C28.9581 4.15593 29.1625 3.94945 29.1625 3.69474C29.1625 3.44003 28.9581 3.23355 28.7059 3.23355C28.4538 3.23355 28.2493 3.44003 28.2493 3.69474C28.2493 3.94945 28.4538 4.15593 28.7059 4.15593Z" stroke="black" stroke-width="0.5"/>
<path d="M9.69915 19.0145V14.7309C9.69915 13.8194 8.96494 13.0777 8.0625 13.0777H4.75516C3.85271 13.0777 3.1185 13.8194 3.1185 14.7309V19.0145C3.1185 19.9261 3.85271 20.6677 4.75516 20.6677H8.0625C8.96494 20.6677 9.69915 19.9261 9.69915 19.0145ZM8.77103 19.0145C8.77103 19.4091 8.45318 19.7302 8.0625 19.7302H4.75516C4.36448 19.7302 4.04662 19.4091 4.04662 19.0145V14.7309C4.04662 14.3363 4.36448 14.0152 4.75516 14.0152H8.0625C8.45318 14.0152 8.77103 14.3363 8.77103 14.7309V19.0145Z" stroke="black" stroke-width="0.5"/>
<path d="M28.227 21.2605C28.227 21.0058 28.0226 20.7993 27.7704 20.7993C27.5183 20.7993 27.3139 21.0058 27.3139 21.2605C27.3139 21.5152 27.5182 21.7217 27.7704 21.7217C28.0226 21.7217 28.227 21.5152 28.227 21.2605Z" stroke="black" stroke-width="0.5"/>
<path d="M27.7704 24.1464H20.7922C20.5359 24.1464 20.3282 24.3563 20.3282 24.6152C20.3282 24.8741 20.5359 25.0839 20.7922 25.0839H27.7704C28.0268 25.0839 28.2345 24.8741 28.2345 24.6152C28.2345 24.3563 28.0268 24.1464 27.7704 24.1464Z" stroke="black" stroke-width="0.5"/>
<path d="M20.7922 26.8955H22.2491C22.5055 26.8955 22.7132 26.6856 22.7132 26.4267C22.7132 26.1679 22.5055 25.958 22.2491 25.958H20.7922C20.5359 25.958 20.3282 26.1679 20.3282 26.4267C20.3282 26.6856 20.5359 26.8955 20.7922 26.8955Z" stroke="black" stroke-width="0.5"/>
<path d="M27.7704 25.958H26.5844C26.3281 25.958 26.1203 26.1679 26.1203 26.4267C26.1203 26.6856 26.3281 26.8955 26.5844 26.8955H27.7704C28.0268 26.8955 28.2345 26.6856 28.2345 26.4267C28.2345 26.1679 28.0268 25.958 27.7704 25.958Z" stroke="black" stroke-width="0.5"/>
<path d="M25.8522 27.7071H20.7923C20.5359 27.7071 20.3282 27.9169 20.3282 28.1758C20.3282 28.4347 20.5359 28.6446 20.7923 28.6446H25.8522C26.1085 28.6446 26.3162 28.4347 26.3162 28.1758C26.3162 27.9169 26.1085 27.7071 25.8522 27.7071Z" stroke="black" stroke-width="0.5"/>
<path d="M24.4389 26.8879C24.691 26.8879 24.8955 26.6814 24.8955 26.4267C24.8955 26.172 24.691 25.9656 24.4389 25.9656C24.1867 25.9656 23.9823 26.172 23.9823 26.4267C23.9823 26.6814 24.1867 26.8879 24.4389 26.8879Z" stroke="black" stroke-width="0.5"/>
</g>
<defs>
<clipPath id="clip0_84_88">
<rect width="32" height="32" fill="white" transform="translate(0 0.5)"/>
</clipPath>
</defs>
</svg>
