<svg width="434" height="434" viewBox="0 0 434 434" fill="none" xmlns="http://www.w3.org/2000/svg">
<path d="M353.199 48.2234C260.337 -26.9748 124.097 -12.6555 48.8992 80.2066C-26.2991 173.069 -11.9797 309.309 80.8824 384.507C173.745 459.705 309.984 445.386 385.183 352.524C460.381 259.661 446.061 123.422 353.199 48.2234Z" fill="#0006F6"/>
<path d="M353.199 48.2234C260.337 -26.9748 124.097 -12.6555 48.8992 80.2066C-26.2991 173.069 -11.9797 309.309 80.8824 384.507C173.745 459.705 309.984 445.386 385.183 352.524C460.381 259.661 446.061 123.422 353.199 48.2234Z" fill="url(#paint0_radial_1_4188)"/>
<path d="M353.199 48.2234C260.337 -26.9748 124.097 -12.6555 48.8992 80.2066C-26.2991 173.069 -11.9797 309.309 80.8824 384.507C173.745 459.705 309.984 445.386 385.183 352.524C460.381 259.661 446.061 123.422 353.199 48.2234Z" fill="url(#paint1_radial_1_4188)"/>
<path d="M217.314 433.165C216.515 433.165 215.732 433.165 214.934 433.158C172.119 432.695 130.403 419.548 95.0591 395.379C59.7156 371.209 32.332 337.103 16.3706 297.372C0.409203 257.641 -3.41327 214.069 5.38646 172.166C14.1862 130.263 35.213 91.9093 65.8083 61.9552C96.4085 32.0035 135.203 11.7984 177.286 3.89465C219.37 -4.00905 262.852 0.743713 302.234 17.5519C341.616 34.3601 375.13 62.4689 398.537 98.3238C421.944 134.179 434.193 176.169 433.736 218.986C433.127 275.989 410.059 330.452 369.54 370.551C329.02 410.651 274.32 433.15 217.314 433.165ZM217.183 1.44184C174.816 1.45629 133.396 13.9738 98.1123 37.426C62.8286 60.8781 35.2509 94.2217 18.8347 133.279C2.41844 172.336 -2.10606 215.369 5.82808 256.986C13.7622 298.603 33.8021 336.953 63.4367 367.231C83.1614 387.492 106.709 403.639 132.716 414.739C158.723 425.838 186.674 431.669 214.95 431.894C215.741 431.902 216.531 431.909 217.314 431.909C259.681 431.897 301.102 419.38 336.387 395.929C371.671 372.478 399.25 339.134 415.666 300.077C432.083 261.019 436.607 217.986 428.673 176.368C420.738 134.751 400.697 96.4007 371.061 66.1238C351.338 45.8624 327.792 29.7145 301.786 18.615C275.78 7.51543 247.83 1.6848 219.555 1.46062C218.767 1.44485 217.974 1.44485 217.184 1.44485L217.183 1.44184Z" fill="black"/>
<path d="M215.337 405.363H215.229C212.097 405.333 209.745 403.959 209.763 402.17C209.778 401.249 210.408 400.427 211.559 399.852C212.737 399.336 214.01 399.077 215.296 399.091C216.581 399.106 217.848 399.394 219.014 399.936C220.141 400.537 220.764 401.371 220.757 402.285C220.734 404.047 218.416 405.363 215.337 405.363ZM215.187 400.358C214.134 400.333 213.089 400.549 212.132 400.987C211.44 401.333 211.042 401.77 211.034 402.185C211.027 403.068 212.823 404.074 215.241 404.096C217.698 404.127 219.486 403.152 219.494 402.269C219.501 401.862 219.11 401.417 218.427 401.056C217.448 400.585 216.373 400.346 215.287 400.357L215.187 400.358Z" fill="black"/>
<path d="M215.263 402.883C215.203 402.883 215.144 402.875 215.086 402.86C214.442 402.676 150.404 383.478 139.314 306.261C127.768 225.844 176.355 140.292 206.349 96.4485C223.446 71.4599 242.915 50.2794 257.133 34.8098C268.41 22.536 277.323 12.845 276.463 10.0902C276.394 9.88282 276.225 9.58383 275.511 9.42231C275.348 9.38578 275.206 9.28648 275.115 9.1459C275.025 9.00531 274.993 8.83474 275.027 8.67107C275.065 8.50715 275.166 8.36472 275.308 8.27429C275.45 8.18386 275.622 8.15262 275.787 8.18727C276.211 8.24285 276.611 8.41518 276.942 8.68501C277.274 8.95483 277.524 9.31154 277.665 9.71529C278.702 13.0163 272.031 20.4708 258.057 35.6715C243.87 51.1103 224.432 72.245 207.389 97.1645C177.507 140.852 129.08 226.091 140.573 306.077C149.963 371.462 197.621 394.784 211.592 400.274C201.159 391.652 170.659 360.246 183.871 296.289C198.059 227.625 243.144 164.774 276.065 118.874C280.057 113.315 283.896 107.965 287.519 102.829C314.242 64.9812 326.58 45.9117 324.261 34.6956C323.555 31.2947 321.428 28.5467 317.75 26.305C317.608 26.2153 317.507 26.0734 317.468 25.9097C317.429 25.7461 317.456 25.5738 317.543 25.4298C317.586 25.3589 317.643 25.2973 317.71 25.2485C317.777 25.1996 317.853 25.1646 317.934 25.1453C318.014 25.126 318.098 25.1229 318.18 25.1361C318.262 25.1494 318.34 25.1787 318.411 25.2224C322.403 27.664 324.721 30.6727 325.496 34.4349C327.915 46.1423 315.485 65.4042 288.555 103.558C284.923 108.695 281.085 114.052 277.093 119.618C244.235 165.422 199.24 228.14 185.112 296.55C169.55 371.853 215.137 401.423 215.597 401.717C215.726 401.797 215.822 401.922 215.866 402.067C215.909 402.213 215.899 402.37 215.835 402.508C215.788 402.62 215.708 402.715 215.606 402.782C215.504 402.849 215.385 402.884 215.263 402.883Z" fill="black"/>
<path d="M205.026 403.394C182.985 403.394 129.751 397.529 85.7711 346.293C19.8721 269.53 48.6785 167.503 64.1143 127.199C89.3335 61.3903 150.842 8.32098 190.278 1.834C190.443 1.81002 190.612 1.85097 190.748 1.94829C190.884 2.04561 190.977 2.19175 191.007 2.35611C191.033 2.52184 190.993 2.69105 190.895 2.82743C190.798 2.96381 190.651 3.05649 190.485 3.08557C170.51 6.37151 145.452 21.4106 121.73 44.3416C96.6183 68.6315 76.5737 98.2185 65.2967 127.654C49.9353 167.744 21.2739 269.218 86.7312 345.466C133.431 399.865 190.539 402.729 209.072 402.061C190.425 398.921 134.075 384.534 105.551 323.241C71.3803 249.826 94.78 162.354 128.075 104.969C161.674 47.0438 212.265 3.71436 236.647 1.05045C236.73 1.04138 236.813 1.04867 236.893 1.07192C236.973 1.09518 237.048 1.13393 237.112 1.18597C237.177 1.23801 237.231 1.30232 237.271 1.37522C237.311 1.44813 237.337 1.52821 237.346 1.61088C237.355 1.69355 237.347 1.7772 237.324 1.85706C237.301 1.93691 237.262 2.0114 237.21 2.07628C237.158 2.14115 237.094 2.19514 237.021 2.23517C236.948 2.27519 236.868 2.30046 236.785 2.30954C212.745 4.93513 161.62 49.6686 129.169 105.596C96.0353 162.705 72.7273 249.731 106.691 322.701C140.706 395.779 214.56 401.568 215.304 401.613C215.461 401.625 215.608 401.694 215.717 401.807C215.826 401.921 215.89 402.07 215.895 402.228C215.9 402.383 215.847 402.535 215.746 402.654C215.645 402.773 215.504 402.851 215.35 402.872C211.922 403.257 208.475 403.432 205.026 403.394Z" fill="black"/>
<path d="M166.098 415.595H165.3C137.133 415.38 93.566 403.672 45.9455 349.081C45.8346 348.953 45.7788 348.786 45.7903 348.618C45.8019 348.449 45.8798 348.291 46.0071 348.179C46.07 348.124 46.1434 348.081 46.223 348.054C46.3026 348.027 46.3868 348.016 46.4707 348.022C46.5546 348.027 46.6365 348.05 46.7117 348.087C46.7869 348.125 46.8538 348.177 46.9086 348.241C94.2143 402.481 137.405 414.118 165.311 414.325H166.102C187.666 414.325 203.527 407.761 210.689 404.108C191.672 408.263 172.017 408.587 152.874 405.06C120.277 399.095 73.6851 378.743 36.8209 315.669C36.6751 315.431 20.7683 289.759 14.7802 249.109C9.26003 211.607 11.2794 153.292 52.2589 88.4523C83.9854 38.255 132.281 17.4877 132.765 17.2811C132.919 17.2223 133.089 17.2255 133.24 17.29C133.391 17.3545 133.511 17.4752 133.575 17.6267C133.639 17.7782 133.641 17.9485 133.582 18.1017C133.522 18.2549 133.406 18.379 133.256 18.4478C132.78 18.6551 84.8373 39.2752 53.3242 89.1397C12.5595 153.641 10.5401 211.634 16.0295 248.929C21.9793 289.317 37.7404 314.767 37.9012 315.013C74.5205 377.667 120.728 397.875 153.04 403.81C188.063 410.228 214.802 401.73 215.063 401.645C215.209 401.599 215.367 401.607 215.508 401.667C215.649 401.728 215.763 401.837 215.831 401.975C215.898 402.111 215.913 402.267 215.873 402.414C215.834 402.561 215.742 402.688 215.616 402.773C215.424 402.904 196.2 415.595 166.098 415.595Z" fill="black"/>
<path d="M193.668 431.712C192.527 431.709 191.386 431.64 190.252 431.504C190.089 431.48 189.942 431.394 189.842 431.263C189.742 431.132 189.696 430.968 189.715 430.804C189.734 430.64 189.816 430.491 189.943 430.386C190.071 430.282 190.234 430.231 190.398 430.245C196.901 431.005 202.229 429.547 206.236 425.908C212.938 419.804 214.297 409.072 214.566 404.466C209.184 411.989 185.885 438.021 133.543 416.395C133.388 416.33 133.265 416.207 133.201 416.053C133.136 415.898 133.135 415.724 133.197 415.569C133.265 415.417 133.388 415.296 133.542 415.232C133.695 415.168 133.868 415.165 134.023 415.223C193.296 439.728 214.501 402.334 214.707 401.95C214.775 401.828 214.881 401.733 215.008 401.677C215.136 401.622 215.278 401.609 215.413 401.643C215.548 401.676 215.668 401.752 215.756 401.86C215.843 401.968 215.893 402.102 215.897 402.241C215.904 402.901 216.166 418.57 207.083 426.838C203.535 430.076 199.028 431.712 193.668 431.712Z" fill="black"/>
<path d="M230.691 432.763C230.529 432.761 230.373 432.697 230.257 432.584C230.14 432.471 230.071 432.317 230.064 432.155C230.057 431.993 230.113 431.834 230.219 431.711C230.326 431.589 230.475 431.512 230.637 431.496C232.134 431.358 233.017 430.851 233.347 429.945C233.553 429.262 233.571 428.535 233.4 427.842C231.361 426.988 229.428 425.898 227.643 424.594C216.442 416.449 214.699 402.899 214.63 402.331C214.615 402.199 214.641 402.066 214.704 401.949C214.767 401.832 214.865 401.738 214.983 401.678C215.104 401.625 215.238 401.608 215.368 401.632C215.498 401.655 215.618 401.717 215.713 401.809C217.601 403.705 232.09 418.46 234.437 426.905C240.909 429.469 248.739 429.876 257.821 428.088C257.985 428.06 258.154 428.096 258.292 428.189C258.431 428.281 258.529 428.424 258.565 428.587C258.597 428.751 258.562 428.922 258.469 429.061C258.375 429.201 258.231 429.298 258.066 429.331C249.092 431.096 241.269 430.774 234.728 428.372C234.818 429.045 234.752 429.731 234.537 430.375C234.03 431.773 232.756 432.579 230.752 432.763H230.691ZM216.274 404.197C217.203 408.265 220.143 417.585 228.396 423.579C229.818 424.609 231.334 425.501 232.925 426.243C230.545 419.949 221.487 409.624 216.274 404.197Z" fill="black"/>
<path d="M212.156 433.103H212.132C208.248 432.953 205.684 431.622 204.509 429.149C201.392 422.586 209.307 409.757 212.998 404.345L172.834 428.428C172.69 428.514 172.519 428.54 172.356 428.499C172.193 428.459 172.053 428.356 171.966 428.213C171.923 428.142 171.894 428.063 171.881 427.981C171.869 427.899 171.872 427.815 171.892 427.734C171.912 427.654 171.948 427.578 171.998 427.511C172.047 427.444 172.11 427.388 172.181 427.345L214.942 401.704C215.068 401.63 215.215 401.602 215.359 401.624C215.503 401.646 215.635 401.718 215.733 401.826C215.83 401.935 215.887 402.073 215.893 402.219C215.9 402.365 215.856 402.508 215.768 402.625C215.63 402.809 202.05 421.019 205.65 428.604C206.609 430.623 208.805 431.705 212.175 431.844C212.342 431.847 212.501 431.916 212.617 432.037C212.733 432.157 212.796 432.318 212.793 432.485C212.79 432.652 212.721 432.811 212.601 432.927C212.48 433.043 212.319 433.106 212.152 433.103H212.156Z" fill="black"/>
<path d="M142.692 416.696C136.983 416.696 132.22 416.043 129.073 414.462C128.998 414.425 128.932 414.374 128.878 414.312C128.823 414.249 128.782 414.177 128.756 414.098C128.73 414.019 128.721 413.936 128.728 413.853C128.735 413.771 128.758 413.691 128.796 413.617C128.833 413.543 128.884 413.477 128.946 413.423C129.009 413.368 129.081 413.327 129.16 413.3C129.238 413.274 129.321 413.263 129.403 413.269C129.486 413.275 129.567 413.296 129.641 413.333C143.597 420.35 192.561 407.875 209.374 403.253C187.748 404.474 114.433 407.314 89.897 391.776C89.7544 391.687 89.6533 391.544 89.6159 391.38C89.5785 391.216 89.6078 391.043 89.6975 390.901C89.7872 390.758 89.9298 390.657 90.094 390.62C90.2582 390.582 90.4305 390.612 90.5731 390.701C118.51 408.404 214.249 401.695 215.217 401.618C215.374 401.606 215.529 401.652 215.654 401.748C215.778 401.845 215.863 401.983 215.891 402.138C215.919 402.293 215.888 402.452 215.805 402.586C215.723 402.72 215.593 402.818 215.442 402.862C213.144 403.538 168.371 416.696 142.692 416.696Z" fill="black"/>
<path d="M215.258 402.882C215.152 402.883 215.046 402.856 214.952 402.805C214.858 402.754 214.779 402.68 214.721 402.59C214.506 402.237 193.172 366.816 234.535 295.028C258.894 252.766 286.455 216.674 310.786 184.84C327.729 162.654 343.736 141.696 355.41 122.68C382.387 78.7131 368.96 64.6086 363.223 58.5843L362.67 58.0089C362.555 57.8851 362.494 57.7207 362.5 57.5518C362.505 57.3829 362.578 57.2231 362.701 57.1074C362.761 57.0502 362.832 57.0055 362.91 56.9761C362.987 56.9466 363.07 56.9329 363.153 56.9358C363.236 56.9386 363.317 56.958 363.392 56.9928C363.468 57.0275 363.535 57.077 363.591 57.1382L364.137 57.7061C370.072 63.9415 383.974 78.5411 356.483 123.337C344.783 142.414 328.754 163.395 311.784 185.605C287.491 217.421 259.943 253.473 235.634 295.658C199.068 359.123 211.781 393.646 215.105 400.602C216.955 394.56 220.571 383.367 239.049 355.077C254.196 331.892 282.409 302.097 312.272 270.553C333.758 247.859 355.97 224.399 376.076 200.669C423.904 144.243 406.178 113.459 405.994 113.159C405.948 113.089 405.916 113.009 405.901 112.926C405.886 112.843 405.888 112.758 405.907 112.676C405.925 112.594 405.96 112.516 406.009 112.448C406.058 112.379 406.12 112.321 406.192 112.277C406.264 112.233 406.344 112.204 406.427 112.191C406.51 112.178 406.596 112.182 406.677 112.203C406.759 112.224 406.836 112.26 406.903 112.311C406.97 112.362 407.027 112.426 407.069 112.499C407.26 112.806 425.525 144.289 377.044 201.49C356.915 225.243 334.689 248.719 313.194 271.42C283.37 302.919 255.194 332.675 240.109 355.775C221.361 384.464 218.006 395.426 216.21 401.314L215.865 402.441C215.828 402.555 215.76 402.657 215.667 402.733C215.575 402.809 215.462 402.857 215.343 402.871L215.258 402.882Z" fill="black"/>
<path d="M215.267 402.879C215.162 402.879 215.058 402.853 214.966 402.804C214.874 402.754 214.795 402.683 214.737 402.595C214.662 402.477 214.628 402.337 214.639 402.197C214.65 402.057 214.706 401.925 214.799 401.82C220.802 395.171 248.194 373.829 282.87 346.806C310.584 325.211 341.993 300.737 371.663 276.662C437.954 222.885 430.161 184.699 430.077 184.323C430.039 184.16 430.068 183.989 430.156 183.847C430.245 183.705 430.386 183.604 430.549 183.567C430.712 183.529 430.883 183.558 431.025 183.646C431.167 183.735 431.268 183.876 431.305 184.039C431.398 184.423 439.443 223.306 372.461 277.644C342.782 301.726 311.36 326.209 283.646 347.804C251.963 372.493 226.368 392.438 217.709 400.683C225.064 397.919 247.383 389.137 279.532 372.693C286.702 369.023 294.463 365.245 302.686 361.246C355.227 335.666 420.62 303.837 429.157 254.574C429.17 254.492 429.199 254.413 429.243 254.343C429.288 254.272 429.345 254.211 429.413 254.163C429.481 254.115 429.558 254.081 429.639 254.063C429.72 254.046 429.804 254.044 429.886 254.059C430.051 254.088 430.198 254.181 430.294 254.318C430.391 254.454 430.429 254.624 430.401 254.789C421.753 304.698 356.038 336.68 303.237 362.383C295.023 366.382 287.269 370.159 280.106 373.821C240.455 394.104 215.72 402.763 215.474 402.847C215.407 402.869 215.337 402.88 215.267 402.879Z" fill="black"/>
<path d="M231.073 403.094C222.144 403.094 216.248 402.917 215.235 402.879C215.079 402.874 214.931 402.811 214.819 402.704C214.706 402.596 214.638 402.45 214.626 402.295C214.615 402.139 214.661 401.985 214.756 401.862C214.852 401.739 214.989 401.655 215.143 401.627C273.196 390.764 306.238 382.98 348.592 365.53C390.915 348.08 401.271 328.389 401.371 328.19C401.452 328.049 401.583 327.945 401.738 327.898C401.893 327.851 402.06 327.866 402.204 327.939C402.349 328.012 402.46 328.137 402.515 328.289C402.569 328.442 402.563 328.609 402.498 328.758C402.083 329.579 391.897 349.048 349.066 366.695C308.113 383.58 275.853 391.441 221.415 401.735C245.621 402.042 334.367 401.566 358.764 378.835C358.888 378.724 359.051 378.665 359.217 378.673C359.383 378.68 359.54 378.752 359.653 378.874C359.767 378.995 359.828 379.156 359.824 379.323C359.82 379.489 359.751 379.647 359.632 379.763C337.177 400.676 263.789 403.094 231.073 403.094Z" fill="black"/>
<path d="M263.461 422.685C229.482 422.685 214.943 402.886 214.751 402.609C214.676 402.505 214.636 402.381 214.635 402.254C214.633 402.126 214.671 402.001 214.743 401.896C214.813 401.787 214.915 401.704 215.035 401.657C215.155 401.61 215.286 401.602 215.411 401.635C216.155 401.811 290.231 419.23 312.057 409.788C312.133 409.753 312.216 409.734 312.299 409.731C312.383 409.729 312.467 409.743 312.545 409.773C312.624 409.803 312.695 409.848 312.756 409.906C312.817 409.964 312.865 410.034 312.899 410.11C312.932 410.187 312.95 410.27 312.952 410.354C312.953 410.438 312.938 410.521 312.906 410.599C312.875 410.677 312.829 410.748 312.77 410.808C312.711 410.867 312.641 410.915 312.563 410.947C312.018 411.185 311.442 411.398 310.835 411.608C310.826 411.722 310.785 411.831 310.717 411.923C310.649 412.015 310.557 412.087 310.451 412.13C291.843 419.868 276.268 422.685 263.461 422.685ZM216.946 403.285C222.589 409.603 249.036 434.093 304.733 413.043C279.238 417.027 227.556 405.722 216.946 403.285Z" fill="black"/>
<path d="M270.909 426.312C260.829 426.312 216.916 403.811 214.967 402.813C214.827 402.73 214.724 402.597 214.68 402.441C214.635 402.285 214.652 402.118 214.726 401.974C214.801 401.829 214.928 401.719 215.081 401.666C215.234 401.612 215.402 401.62 215.551 401.686C229.269 408.741 266.103 426.682 271.685 424.962C271.765 424.938 271.849 424.929 271.932 424.937C272.015 424.945 272.095 424.969 272.169 425.009C272.243 425.048 272.308 425.101 272.361 425.165C272.414 425.23 272.454 425.304 272.478 425.384C272.502 425.464 272.511 425.548 272.503 425.631C272.494 425.714 272.47 425.794 272.43 425.868C272.391 425.942 272.337 426.007 272.273 426.059C272.208 426.112 272.134 426.152 272.054 426.176C271.681 426.276 271.295 426.322 270.909 426.312Z" fill="black"/>
<path d="M263.628 414.042C235.253 414.042 215.063 402.972 214.833 402.841C214.701 402.767 214.6 402.649 214.548 402.507C214.496 402.365 214.496 402.209 214.549 402.067C214.602 401.925 214.704 401.807 214.836 401.734C214.968 401.661 215.122 401.637 215.27 401.667C262.491 411.602 306.051 399.809 348.436 365.624C390.337 331.822 410.742 275.503 412.367 234.682C414.086 191.699 412.351 144.67 371.517 84.2085C331.769 25.3381 281.446 11.1622 280.94 11.0239C280.782 10.9763 280.649 10.8693 280.57 10.7254C280.49 10.5816 280.469 10.4123 280.512 10.2535C280.555 10.0947 280.658 9.95883 280.799 9.87476C280.941 9.79069 281.109 9.76502 281.269 9.80318C281.776 9.94141 332.536 24.2203 372.572 83.5001C413.613 144.276 415.363 191.539 413.636 234.737C411.993 275.839 391.442 332.557 349.234 366.604C308.001 399.863 265.655 412.078 219.938 403.871C237.978 411.523 257.712 414.297 277.162 411.916C311.003 407.548 358.584 386.529 390.629 340.635C413.007 308.584 419.034 289.729 423.683 271.671C428.474 253.07 433.318 230.123 430.124 193.121C426.877 155.55 407.287 115.921 407.086 115.529C407.043 115.455 407.017 115.373 407.007 115.287C406.997 115.202 407.005 115.116 407.03 115.034C407.055 114.952 407.096 114.876 407.151 114.81C407.206 114.744 407.274 114.691 407.35 114.652C407.427 114.613 407.511 114.591 407.596 114.586C407.682 114.58 407.767 114.593 407.848 114.621C407.929 114.65 408.003 114.695 408.065 114.754C408.128 114.812 408.178 114.883 408.213 114.961C408.413 115.36 428.121 155.196 431.382 193.016C434.591 230.219 429.724 253.288 424.91 271.988C420.227 290.159 414.162 309.137 391.668 341.357C359.379 387.596 311.428 408.769 277.319 413.176C272.779 413.756 268.206 414.045 263.628 414.042Z" fill="black"/>
<path d="M219.804 403.045C216.874 403.045 215.198 402.93 215.091 402.922C214.936 402.91 214.791 402.842 214.683 402.73C214.575 402.618 214.513 402.471 214.507 402.316C214.501 402.161 214.552 402.01 214.649 401.89C214.747 401.77 214.884 401.689 215.037 401.663C284.122 390.293 329.451 331.249 330.514 251.232C331.566 172.329 282.141 84.2882 246.705 46.9694C208.741 6.98903 191.291 3.01271 191.122 2.98191C190.958 2.94858 190.814 2.85158 190.721 2.71213C190.628 2.57268 190.594 2.4021 190.626 2.23769C190.659 2.07328 190.755 1.92842 190.894 1.83475C191.033 1.74109 191.203 1.70625 191.368 1.73784C192.082 1.88359 209.286 5.71418 247.625 46.0957C283.2 83.567 332.832 171.991 331.78 251.256C331.265 289.779 320.661 324.256 301.118 350.957C281.718 377.458 254.258 394.931 221.4 401.771C240.769 401.51 301.164 396.121 341.529 341.783C391.645 274.317 381.535 184.665 355.364 123.265C329.562 62.7125 277.826 10.6513 235.027 2.16831C234.863 2.13498 234.719 2.03799 234.626 1.89853C234.533 1.75908 234.499 1.5885 234.531 1.4241C234.564 1.25969 234.66 1.11482 234.799 1.02116C234.938 0.927494 235.108 0.89265 235.273 0.924249C278.448 9.48391 330.575 61.8643 356.531 122.766C382.84 184.489 392.981 274.64 342.544 342.535C300.681 398.894 237.461 403.045 219.804 403.045Z" fill="black"/>
<path d="M215.141 402.922H215.11C214.977 402.914 214.85 402.865 214.747 402.781C214.643 402.697 214.569 402.582 214.535 402.454C214.504 402.339 211.334 391.145 184.717 356.953C169.532 337.453 145.496 312.971 120.054 287.054C93.5532 260.054 66.1464 232.133 45.4263 206.568C4.88403 156.552 20.9591 125.178 21.1304 124.861C21.2116 124.715 21.3473 124.606 21.5082 124.558C21.669 124.511 21.8421 124.529 21.9898 124.608C22.0629 124.647 22.1276 124.7 22.18 124.764C22.2324 124.828 22.2716 124.902 22.2951 124.981C22.3187 125.06 22.3262 125.144 22.3173 125.226C22.3083 125.308 22.2831 125.388 22.243 125.46C22.0815 125.767 6.4436 156.46 46.4105 205.768C67.0922 231.286 94.4758 259.181 120.962 286.161C146.434 312.109 170.486 336.615 185.719 356.177C206.846 383.315 213.249 395.906 215.083 400.275C217.122 392.095 222.689 356.207 183.965 296.762C152.85 248.996 137.335 229.443 120.907 208.738C113.898 199.909 106.659 190.773 98.1366 179.304C73.5777 146.224 36.467 96.2314 60.1507 67.7113C60.2586 67.5818 60.4135 67.5004 60.5814 67.4851C60.7492 67.4698 60.9163 67.5219 61.0458 67.6298C61.1753 67.7376 61.2567 67.8926 61.272 68.0604C61.2872 68.2283 61.2352 68.3953 61.1273 68.5249C38.0807 96.2773 74.8383 145.786 99.159 178.544C107.665 190.005 114.904 199.128 121.898 207.954C137.621 227.761 153.881 248.251 185.026 296.07C229.575 364.457 215.88 402.146 215.734 402.512C215.689 402.632 215.608 402.736 215.502 402.81C215.396 402.883 215.27 402.922 215.141 402.922Z" fill="black"/>
<path d="M215.14 402.92C215.031 402.919 214.924 402.89 214.828 402.836C214.733 402.783 214.653 402.706 214.595 402.613C214.523 402.487 214.495 402.34 214.518 402.196C214.54 402.052 214.61 401.92 214.717 401.822C251.59 368.074 249.103 310.005 207.332 229.236C195.079 205.552 169.615 167.321 147.152 133.588C126.11 101.99 107.937 74.6986 102.94 63.2286C92.3843 38.977 106.103 30.85 106.241 30.7704C106.313 30.7283 106.392 30.7011 106.475 30.6903C106.557 30.6795 106.641 30.6854 106.721 30.7076C106.802 30.7298 106.877 30.7679 106.942 30.8196C107.007 30.8713 107.061 30.9355 107.101 31.0085C107.142 31.0802 107.169 31.1592 107.18 31.2412C107.191 31.3232 107.185 31.4065 107.164 31.4864C107.143 31.5663 107.106 31.6412 107.055 31.7068C107.005 31.7724 106.942 31.8274 106.87 31.8687C106.341 32.176 94.0242 39.569 104.099 62.7223C109.051 74.0916 128.074 102.65 148.211 132.888C170.689 166.644 196.17 204.906 208.453 228.652C249.594 308.201 252.787 365.97 217.988 400.455C230.263 395.046 275.673 370.63 280.74 304.116C285.43 242.485 261.094 174.79 206.358 97.1675C193.821 79.3953 182.19 64.3021 172.848 52.1726C156.595 31.0762 146.784 18.3403 148.573 12.9126C148.809 12.2578 149.21 11.675 149.737 11.2205C150.264 10.766 150.9 10.4551 151.582 10.3178C151.743 10.272 151.916 10.292 152.062 10.3733C152.208 10.4547 152.316 10.5908 152.362 10.7517C152.407 10.9125 152.387 11.085 152.306 11.2312C152.225 11.3774 152.089 11.4852 151.928 11.5311C151.447 11.6162 150.996 11.8243 150.62 12.1351C150.243 12.4459 149.953 12.8488 149.778 13.3048C148.197 18.1029 158.407 31.3459 173.854 51.398C183.204 63.5351 194.843 78.6433 207.387 96.4388C262.307 174.305 286.713 242.27 281.999 304.207C276.103 381.691 215.954 402.68 215.347 402.887C215.28 402.909 215.211 402.921 215.14 402.92Z" fill="black"/>
<path d="M215.143 402.918C215.072 402.919 215.002 402.909 214.935 402.887C214.291 402.657 149.834 379.925 85.9619 346.438C32.4456 318.387 16.5471 298.196 9.13083 276.509C9.08087 276.351 9.09471 276.18 9.16937 276.032C9.24403 275.885 9.37357 275.772 9.53022 275.719C9.68687 275.666 9.85815 275.676 10.0073 275.747C10.1565 275.819 10.2718 275.946 10.3283 276.101C17.6447 297.497 33.4057 317.457 86.5532 345.317C141.037 373.883 195.934 394.612 211.205 400.193C197.025 389.844 143.708 350.945 105.753 323.484L104.225 322.379C60.6428 290.849 -5.2104 243.214 1.7679 197.305C1.79407 197.139 1.88431 196.99 2.01927 196.889C2.15423 196.789 2.32316 196.745 2.48984 196.768C2.65579 196.794 2.8048 196.884 2.90412 197.019C3.00343 197.155 3.04492 197.324 3.01947 197.49C-3.84389 242.64 61.6337 290.005 104.963 321.35L106.499 322.456C150.411 354.223 214.874 401.307 215.52 401.775C215.642 401.865 215.728 401.996 215.762 402.143C215.795 402.291 215.775 402.447 215.704 402.581C215.651 402.684 215.57 402.77 215.471 402.829C215.372 402.889 215.258 402.919 215.143 402.918Z" fill="black"/>
<path d="M215.383 402.908L215.314 402.9C186.863 399.67 115.305 385.642 83.7382 372.407C53.7133 359.822 44.7773 347.587 44.4084 347.073C44.3113 346.936 44.2721 346.767 44.2994 346.602C44.3267 346.436 44.4183 346.288 44.5542 346.19C44.6215 346.141 44.6979 346.106 44.7789 346.087C44.8599 346.068 44.9439 346.065 45.026 346.078C45.1082 346.092 45.1868 346.122 45.2573 346.166C45.3278 346.21 45.3889 346.268 45.4369 346.336C45.5293 346.458 54.5878 358.819 84.2288 371.24C113.647 383.577 183.039 397.964 215.46 401.641C215.62 401.66 215.768 401.74 215.872 401.864C215.976 401.989 216.028 402.148 216.019 402.31C216.009 402.471 215.938 402.623 215.82 402.734C215.702 402.845 215.547 402.907 215.385 402.908H215.383Z" fill="black"/>
<defs>
<radialGradient id="paint0_radial_1_4188" cx="0" cy="0" r="1" gradientUnits="userSpaceOnUse" gradientTransform="translate(100.204 86.546) scale(359.166)">
<stop stop-color="#0008FF" stop-opacity="0"/>
<stop offset="1" stop-color="#0000CA" stop-opacity="0.38"/>
</radialGradient>
<radialGradient id="paint1_radial_1_4188" cx="0" cy="0" r="1" gradientUnits="userSpaceOnUse" gradientTransform="translate(229.834 338.085) rotate(-141) scale(108.179)">
<stop stop-color="#7145FF" stop-opacity="0.878"/>
<stop offset="1" stop-color="#0008FF" stop-opacity="0"/>
</radialGradient>
</defs>
</svg>
