<svg width="557" height="556" viewBox="0 0 557 556" fill="none" xmlns="http://www.w3.org/2000/svg">
<path d="M555.694 287.765C561.066 134.47 441.287 5.85186 288.161 0.488482C135.034 -4.87489 6.54527 115.048 1.17314 268.343C-4.19899 421.638 115.58 550.256 268.707 555.619C421.833 560.983 550.322 441.06 555.694 287.765Z" fill="#FF6B00"/>
<path d="M555.694 287.765C561.066 134.47 441.287 5.85186 288.161 0.488482C135.034 -4.87489 6.54527 115.048 1.17314 268.343C-4.19899 421.638 115.58 550.256 268.707 555.619C421.833 560.983 550.322 441.06 555.694 287.765Z" fill="url(#paint0_radial_1_4144)"/>
<path d="M555.694 287.765C561.066 134.47 441.287 5.85186 288.161 0.488482C135.034 -4.87489 6.54527 115.048 1.17314 268.343C-4.19899 421.638 115.58 550.256 268.707 555.619C421.833 560.983 550.322 441.06 555.694 287.765Z" fill="url(#paint1_radial_1_4144)"/>
<path d="M278.865 555.647C274.77 555.647 270.69 555.562 266.575 555.384C230.115 553.81 194.323 545.072 161.241 529.669C128.159 514.265 98.4354 492.498 73.7682 465.61C49.101 438.722 29.973 407.24 17.4762 372.962C4.97948 338.683 -0.641193 302.28 0.935151 265.829C7.54526 112.787 137.545 -6.31674 290.567 0.259766C443.65 6.86812 562.816 136.763 556.206 289.813C553.117 361.303 522.557 428.844 470.891 478.366C419.226 527.887 350.44 555.57 278.865 555.645V555.647ZM278.422 1.27563C131.329 1.27563 8.61901 117.574 2.21441 265.884C-0.952137 339.159 25.1267 410.69 74.714 464.742C124.301 518.793 193.335 550.938 266.629 554.105C339.923 557.271 411.474 531.199 465.54 481.625C519.606 432.051 551.76 363.035 554.928 289.76C561.514 137.414 442.891 8.11596 290.512 1.53869C286.475 1.36053 282.43 1.27563 278.422 1.27563Z" fill="black"/>
<path d="M547.094 347.608L546.999 347.603C546.831 347.578 546.681 347.486 546.581 347.35C546.48 347.213 546.438 347.042 546.464 346.875C546.666 345.542 546.898 344.133 547.138 342.645C548.703 333.07 550.843 319.962 550.013 302.702C546.185 223.496 501.953 139.905 434.582 84.5293C387.762 46.0497 342.817 18.6505 275.655 10.0082C246.922 6.30488 223.408 6.94016 201.659 11.9914C201.577 12.0133 201.492 12.0183 201.409 12.0061C201.325 11.994 201.245 11.9649 201.173 11.9207C201.101 11.8764 201.039 11.818 200.991 11.749C200.942 11.6799 200.909 11.6017 200.891 11.5191C200.871 11.4377 200.867 11.353 200.88 11.27C200.893 11.1871 200.922 11.1076 200.966 11.0361C201.01 10.9646 201.068 10.9027 201.136 10.8539C201.205 10.8051 201.282 10.7704 201.364 10.7519C223.27 5.662 246.938 5.02671 275.818 8.73761C343.289 17.4224 388.405 44.924 435.395 83.543C503.036 139.136 547.439 223.091 551.283 302.637C552.128 320.03 549.974 333.215 548.402 342.845C548.161 344.332 547.929 345.742 547.727 347.067C547.703 347.217 547.625 347.354 547.509 347.453C547.393 347.552 547.246 347.607 547.094 347.608Z" fill="black"/>
<path d="M555.694 269.27C555.533 269.269 555.377 269.207 555.26 269.096C555.142 268.985 555.07 268.834 555.059 268.673C550.347 197.95 514.647 128.42 457.102 77.9096C427.764 52.1509 367.856 8.00756 296.23 1.72595C296.145 1.72115 296.061 1.69916 295.984 1.66131C295.907 1.62345 295.839 1.5705 295.783 1.50561C295.727 1.44072 295.684 1.36521 295.658 1.2836C295.632 1.20199 295.622 1.11595 295.63 1.0306C295.638 0.945253 295.663 0.862347 295.703 0.786827C295.744 0.711307 295.799 0.644714 295.866 0.591032C295.933 0.537351 296.01 0.49768 296.092 0.474372C296.175 0.451065 296.261 0.444594 296.346 0.455366C368.328 6.76957 428.492 51.0903 457.946 76.9476C515.739 127.675 551.602 197.522 556.329 268.587C556.335 268.671 556.324 268.755 556.297 268.835C556.27 268.914 556.227 268.988 556.172 269.051C556.117 269.115 556.049 269.167 555.974 269.204C555.898 269.241 555.816 269.263 555.732 269.269L555.694 269.27Z" fill="black"/>
<path d="M513.866 425.062C513.753 425.061 513.643 425.029 513.548 424.969C513.475 424.928 513.411 424.873 513.359 424.806C513.308 424.74 513.271 424.665 513.249 424.584C513.227 424.503 513.222 424.419 513.233 424.336C513.245 424.253 513.272 424.173 513.315 424.101C513.508 423.76 533.067 389.503 532.982 335.963C532.897 286.535 515.585 210.096 433.562 126.583C355.335 46.9443 278.633 27.8091 228.067 25.7789C173.304 23.5804 136.511 40.436 136.146 40.6066C135.992 40.676 135.816 40.6824 135.657 40.6245C135.498 40.5666 135.368 40.4489 135.294 40.2965C135.222 40.1424 135.215 39.9661 135.273 39.8064C135.331 39.6466 135.45 39.5165 135.604 39.4444C135.968 39.2738 172.978 22.2848 228.051 24.5C278.861 26.5294 355.919 45.7267 434.464 125.692C516.828 209.539 534.193 286.359 534.262 336.041C534.331 389.906 514.618 424.396 514.416 424.744C514.36 424.841 514.28 424.921 514.183 424.976C514.086 425.032 513.977 425.062 513.866 425.062Z" fill="black"/>
<path d="M467.688 481.027C467.536 481.028 467.388 480.976 467.27 480.88C467.141 480.767 467.062 480.609 467.051 480.438C467.039 480.268 467.095 480.099 467.207 479.97C500.9 440.995 512.609 388.687 501.056 328.686C482.613 232.889 409.183 139.159 313.993 89.8943C232.108 47.5256 170.378 51.1744 133.005 61.693C92.5235 73.0963 71.1121 94.7962 70.8998 95.013C70.7826 95.1352 70.6217 95.2059 70.4524 95.2095C70.2831 95.2132 70.1193 95.1494 69.997 95.0323C69.8747 94.9152 69.804 94.7543 69.8004 94.585C69.7967 94.4158 69.8605 94.252 69.9777 94.1298C70.1945 93.9024 91.7993 71.9933 132.583 60.4846C170.182 49.8864 232.283 46.1755 314.571 88.7617C362.153 113.383 405.106 149.523 438.808 193.271C471.501 235.709 493.454 282.455 502.311 328.449C513.943 388.845 502.133 441.532 468.176 480.81C468.115 480.879 468.04 480.934 467.956 480.971C467.871 481.009 467.78 481.028 467.688 481.027Z" fill="black"/>
<path d="M399.201 527.974C399.064 527.975 398.93 527.931 398.82 527.849C398.709 527.767 398.628 527.651 398.589 527.52C398.55 527.388 398.554 527.247 398.602 527.118C398.649 526.989 398.737 526.879 398.853 526.804C465.572 483.242 471.78 418.291 465.232 371.47C449.664 260.013 347.306 141.506 237.059 107.303C150.323 80.3832 96.9011 98.9566 67.3532 119.286C35.3802 141.287 23.7335 169.967 23.6174 170.246C23.5891 170.327 23.5447 170.401 23.4871 170.464C23.4294 170.527 23.3596 170.578 23.2818 170.614C23.204 170.65 23.1198 170.669 23.0342 170.672C22.9487 170.674 22.8636 170.659 22.7839 170.628C22.7042 170.597 22.6316 170.55 22.5705 170.49C22.5094 170.43 22.461 170.358 22.4282 170.279C22.3954 170.2 22.3788 170.115 22.3795 170.03C22.3802 169.944 22.3981 169.86 22.4322 169.781C22.5482 169.487 34.3375 140.451 66.6328 118.231C96.4052 97.7475 150.207 79.0072 237.439 106.075C348.112 140.417 450.865 259.389 466.503 371.288C470.966 403.267 468.029 432.606 457.77 458.481C446.623 486.58 427.036 509.921 399.55 527.864C399.448 527.936 399.326 527.975 399.201 527.974Z" fill="black"/>
<path d="M330.013 550.773C329.862 550.774 329.716 550.721 329.6 550.624C329.484 550.527 329.407 550.391 329.382 550.242C329.356 550.093 329.385 549.94 329.463 549.81C329.54 549.681 329.661 549.582 329.804 549.534C390.279 528.539 422.894 481.816 421.646 417.973C419.729 320.229 334.318 190.237 210.209 152.513C148.673 133.804 98.5747 136.112 61.3095 159.369C13.347 189.296 3.99641 244.315 3.9039 244.873C3.87614 245.041 3.78298 245.19 3.64489 245.289C3.50681 245.388 3.33511 245.428 3.16759 245.4C3.00006 245.373 2.85042 245.279 2.75158 245.141C2.65275 245.003 2.61281 244.832 2.64057 244.664C2.73384 244.106 12.1641 188.537 60.6195 158.292C98.2107 134.827 148.665 132.464 210.58 151.289C266.886 168.402 320.222 206.796 360.758 259.394C399.271 309.353 421.929 367.148 422.921 417.945C424.177 482.393 391.258 529.557 330.218 550.745C330.152 550.765 330.083 550.775 330.013 550.773Z" fill="black"/>
<path d="M249.233 551.812C240.854 551.797 232.484 551.253 224.173 550.185C224.09 550.174 224.01 550.147 223.937 550.106C223.865 550.064 223.801 550.009 223.75 549.942C223.699 549.876 223.662 549.801 223.64 549.72C223.618 549.639 223.612 549.555 223.623 549.472C223.648 549.307 223.737 549.157 223.869 549.054C224.002 548.952 224.169 548.904 224.336 548.922C275.969 555.437 318.65 542.073 344.526 511.263C371.876 478.688 377.45 430.028 360.198 374.265C340.733 311.32 288.17 251.074 223.022 217.046C173.838 191.346 124.406 184.306 83.8318 197.206C33.0249 213.367 15.3186 250.986 9.40841 279.704C2.99243 310.87 8.67969 338.558 8.73428 338.83C8.75448 338.913 8.7578 338.999 8.74405 339.083C8.7303 339.167 8.69976 339.248 8.65425 339.32C8.60873 339.393 8.54917 339.455 8.47908 339.504C8.409 339.553 8.32983 339.587 8.24626 339.604C8.1627 339.622 8.07645 339.623 7.99262 339.606C7.9088 339.59 7.8291 339.557 7.75828 339.509C7.68745 339.462 7.62694 339.4 7.58032 339.329C7.53369 339.257 7.50192 339.177 7.48688 339.093C7.4247 338.814 1.68284 310.87 8.15342 279.449C14.1357 250.398 32.052 212.336 83.4527 195.99C124.352 182.99 174.133 190.055 223.627 215.907C289.061 250.097 341.863 310.622 361.429 373.885C378.81 430.082 373.154 479.16 345.505 512.087C323.671 538.084 290.032 551.812 249.233 551.812Z" fill="black"/>
<path d="M218.825 537.38C178.545 537.38 134.578 518.048 93.9248 482.26C24.0095 420.71 0.486232 326.985 42.5401 277.606C59.1074 258.145 82.6724 246.866 110.686 244.975C154.204 242.054 204.923 262.421 246.334 299.522C314.705 360.762 337.867 453.843 296.928 502.781C279.965 523.047 256.183 534.892 228.15 537.023C225.064 537.263 221.956 537.382 218.825 537.38ZM94.7673 481.299C138.317 519.646 185.665 538.976 228.045 535.753C255.732 533.645 279.212 521.963 295.942 501.961C336.454 453.542 313.347 361.274 245.48 300.475C204.316 263.607 153.97 243.333 110.769 246.246C83.1122 248.121 59.8498 259.246 43.5145 278.435C1.90426 327.298 25.3691 420.198 94.7695 481.299H94.7673Z" fill="black"/>
<path d="M189.48 511.31C160.568 511.31 129.043 497.467 99.9245 471.823C49.7568 427.649 32.9567 360.281 63.2553 324.714C75.2198 310.661 92.2292 302.511 112.439 301.148C143.675 299.033 180.058 313.643 209.721 340.216C258.783 384.173 275.314 451.085 245.825 486.326C233.573 500.967 216.409 509.513 196.184 511.054C193.967 511.225 191.727 511.31 189.48 511.31ZM118.475 302.227C116.475 302.227 114.492 302.291 112.524 302.42C92.6706 303.76 75.9629 311.763 64.2199 325.542C34.3732 360.591 51.1112 427.139 100.768 470.863C131.896 498.272 165.754 512.103 196.086 509.784C215.954 508.273 232.817 499.876 244.836 485.505C273.903 450.775 257.428 384.677 208.864 341.169C181.327 316.495 147.991 302.225 118.475 302.225V302.227Z" fill="black"/>
<path d="M164.524 474.915C148.383 474.915 130.769 467.176 114.496 452.844C86.4828 428.185 77.0829 390.597 93.9764 370.756C100.649 362.924 110.128 358.384 121.4 357.625C138.851 356.448 159.164 364.605 175.737 379.459C203.13 404.001 212.383 441.335 195.939 460.988C189.114 469.146 179.55 473.91 168.267 474.771C167.038 474.868 165.783 474.915 164.524 474.915ZM124.774 358.787C123.666 358.787 122.575 358.818 121.488 358.895C110.569 359.631 101.393 364.024 94.9553 371.585C78.5002 390.898 87.8417 427.674 115.343 451.891C132.623 467.099 151.362 474.792 168.177 473.497C179.103 472.663 188.364 468.051 194.965 460.164C210.975 441.029 201.785 404.502 174.887 380.409C159.595 366.712 141.109 358.787 124.774 358.787Z" fill="black"/>
<defs>
<radialGradient id="paint0_radial_1_4144" cx="0" cy="0" r="1" gradientUnits="userSpaceOnUse" gradientTransform="translate(111.973 111.411) scale(416.152 416.608)">
<stop stop-color="#FF7305" stop-opacity="0"/>
<stop offset="1" stop-color="#C44300" stop-opacity="0.38"/>
</radialGradient>
<radialGradient id="paint1_radial_1_4144" cx="0" cy="0" r="1" gradientUnits="userSpaceOnUse" gradientTransform="translate(163.639 385.196) rotate(-87.9929) scale(138.868 138.715)">
<stop stop-color="#FFA443" stop-opacity="0.749"/>
<stop offset="1" stop-color="#FF7305" stop-opacity="0"/>
</radialGradient>
</defs>
</svg>
