<svg width="253" height="253" viewBox="0 0 253 253" fill="none" xmlns="http://www.w3.org/2000/svg">
<path d="M126.857 252.312C196.302 252.312 252.599 196.048 252.599 126.644C252.599 57.2388 196.302 0.975098 126.857 0.975098C57.4117 0.975098 1.11523 57.2388 1.11523 126.644C1.11523 196.048 57.4117 252.312 126.857 252.312Z" fill="#00FF46"/>
<path d="M126.666 251.315C109.82 251.311 93.1479 247.926 77.6443 241.364C13.5804 214.349 -16.4603 140.461 10.6596 76.6609C37.7795 12.8606 111.965 -17.069 176.021 9.94287C240.076 36.9548 270.125 110.845 243.005 174.654C233.308 197.395 217.106 216.79 196.418 230.422C175.73 244.054 151.471 251.32 126.666 251.315ZM126.85 1.37347C95.8608 1.31655 65.9553 12.7286 42.9374 33.3948C19.9195 54.0611 5.43079 82.5077 2.28305 113.214C-0.864697 143.92 7.55304 174.696 25.9026 199.57C44.2522 224.443 71.225 241.639 101.586 247.821C131.948 254.004 163.532 248.731 190.211 233.026C216.889 217.322 236.758 192.306 245.962 162.832C255.167 133.359 253.049 101.531 240.022 73.5255C226.994 45.5195 203.985 23.3329 175.459 11.2714C160.087 4.75693 143.556 1.38968 126.85 1.37006V1.37347Z" fill="black"/>
<path d="M184.958 59.5264C176.52 59.5264 166.916 57.4122 157.531 53.4464C146.866 48.9557 137.729 42.6039 131.807 35.5715C125.763 28.4076 123.764 21.3582 126.158 15.7322C128.553 10.1061 135.025 6.6259 144.392 5.96507C153.584 5.31877 164.513 7.42436 175.187 11.9228C185.844 16.4221 194.983 22.7645 200.904 29.7968C206.947 36.9607 208.947 44.0101 206.552 49.6362C204.158 55.2622 197.684 58.739 188.318 59.4118C187.221 59.4828 186.107 59.5264 184.958 59.5264ZM147.76 7.28416C146.644 7.28416 145.559 7.32776 144.488 7.39786C135.699 8.02706 129.657 11.1893 127.481 16.2887C125.315 21.3992 127.244 27.9152 132.911 34.6431C138.69 41.501 147.637 47.7127 158.092 52.1239C168.547 56.5351 179.248 58.615 188.219 57.9679C197.008 57.3387 203.05 54.185 205.226 49.0771C207.402 43.9691 205.463 37.4506 199.797 30.7226C194.017 23.8647 185.07 17.6625 174.615 13.2504C165.398 9.36154 155.996 7.28416 147.76 7.28416Z" fill="black"/>
<path d="M179.231 208.145C155.724 208.145 127.904 202.247 99.3791 190.219C35.0518 163.085 -4.22513 117.16 8.01944 83.3941C8.08591 83.2144 8.22058 83.0679 8.39446 82.9862C8.56833 82.9045 8.76748 82.8941 8.94898 82.9573C9.03844 82.9897 9.12057 83.0394 9.19063 83.1035C9.26069 83.1677 9.31731 83.2451 9.35721 83.3311C9.39711 83.4172 9.41949 83.5103 9.42308 83.605C9.42668 83.6998 9.4114 83.7943 9.37814 83.8831C-2.60294 116.923 36.3289 162.063 99.9482 188.892C163.231 215.589 222.883 212.008 238.697 180.566C238.737 180.477 238.794 180.396 238.866 180.33C238.938 180.263 239.022 180.212 239.114 180.179C239.206 180.146 239.304 180.132 239.402 180.138C239.5 180.144 239.595 180.17 239.683 180.214C239.77 180.258 239.848 180.319 239.911 180.393C239.974 180.468 240.021 180.555 240.049 180.648C240.077 180.742 240.086 180.84 240.075 180.937C240.064 181.034 240.033 181.127 239.985 181.212C231.033 199.017 208.465 208.145 179.231 208.145Z" fill="black"/>
<path d="M161.514 233.734C139.033 233.734 113.027 228.291 87.7311 217.624C42.4195 198.518 7.64267 166.115 1.16933 137.008C1.12904 136.822 1.1646 136.627 1.26823 136.467C1.37185 136.307 1.53507 136.194 1.72208 136.153C1.81426 136.131 1.91005 136.127 2.00371 136.142C2.09737 136.158 2.18698 136.192 2.26714 136.242C2.34729 136.293 2.41636 136.359 2.47019 136.437C2.52402 136.515 2.56149 136.603 2.58038 136.695C8.95673 165.376 43.4005 197.368 88.3002 216.299C133.157 235.219 180.187 237.604 205.318 222.216C205.483 222.117 205.679 222.086 205.866 222.13C206.053 222.174 206.215 222.29 206.318 222.452C206.415 222.616 206.445 222.812 206.4 222.997C206.356 223.183 206.242 223.344 206.081 223.448C194.818 230.337 179.266 233.734 161.514 233.734Z" fill="black"/>
<path d="M142.419 248.219C122.983 248.219 101.248 243.589 80.4252 234.809C52.7612 223.147 29.2702 205.23 15.9845 185.653C15.9303 185.575 15.8922 185.488 15.8726 185.395C15.8529 185.303 15.8521 185.207 15.8701 185.114C15.8881 185.022 15.9246 184.933 15.9774 184.855C16.0302 184.776 16.0983 184.709 16.1776 184.657C16.2564 184.603 16.3451 184.566 16.4385 184.546C16.532 184.527 16.6284 184.526 16.7222 184.544C16.8159 184.562 16.9052 184.598 16.9849 184.65C17.0645 184.703 17.1329 184.77 17.1862 184.849C30.3182 204.2 53.5783 221.926 80.9865 233.483C108.343 245.024 137.253 249.33 160.33 245.312C160.52 245.28 160.714 245.324 160.871 245.434C161.029 245.545 161.135 245.713 161.168 245.902C161.2 246.091 161.156 246.285 161.045 246.441C160.934 246.598 160.765 246.704 160.575 246.736C154.577 247.749 148.503 248.245 142.419 248.219Z" fill="black"/>
<path d="M190.107 172.711C167.39 172.711 140.726 167.216 113.965 155.929C84.1872 143.366 58.7075 125.606 42.2358 105.906C25.6499 86.0656 20.1327 66.6194 26.7202 51.1391C27.7157 48.6963 29.0278 46.3936 30.6229 44.2898C30.6793 44.2139 30.7501 44.15 30.8313 44.1014C30.9125 44.0529 31.0025 44.0208 31.0962 44.007C31.1899 43.9932 31.2854 43.9979 31.3772 44.0209C31.4691 44.0439 31.5554 44.0847 31.6314 44.141C31.7859 44.2558 31.8884 44.4269 31.9164 44.6168C31.9444 44.8067 31.8956 44.9999 31.7808 45.154C30.2542 47.1621 29.0008 49.3622 28.0532 51.6974C21.694 66.6622 27.1236 85.5851 43.3499 104.979C59.6817 124.505 84.9596 142.125 114.527 154.6C175.416 180.276 235.69 175.899 248.899 144.833C249.836 142.647 250.527 140.365 250.959 138.027C250.975 137.934 251.009 137.845 251.059 137.765C251.11 137.685 251.176 137.616 251.253 137.561C251.331 137.507 251.418 137.468 251.511 137.448C251.604 137.427 251.699 137.425 251.793 137.442C251.887 137.458 251.976 137.493 252.057 137.544C252.137 137.596 252.206 137.662 252.261 137.74C252.316 137.818 252.354 137.906 252.375 137.998C252.395 138.091 252.397 138.187 252.381 138.28C251.934 140.727 251.21 143.115 250.223 145.4C242.584 163.381 219.701 172.702 190.107 172.711Z" fill="black"/>
<path d="M195.913 134.544C175.722 134.544 152.139 129.538 129.279 119.893C103.588 109.06 81.626 93.7022 67.4339 76.6361C53.1371 59.4435 48.4181 42.5475 54.1456 29.0761C56.2914 24.0092 60.1975 19.58 66.0761 15.5176C66.1526 15.4625 66.2395 15.4231 66.3315 15.4018C66.4236 15.3805 66.519 15.3778 66.6121 15.3937C66.7052 15.4096 66.7943 15.4439 66.8739 15.4945C66.9536 15.5452 67.0223 15.6112 67.076 15.6886C67.186 15.8448 67.2297 16.0379 67.1976 16.226C67.1654 16.4141 67.06 16.5819 66.9043 16.6931C61.2644 20.5982 57.5282 24.8265 55.4846 29.631C49.9768 42.5868 54.616 58.9579 68.5531 75.7145C82.6044 92.6011 104.365 107.82 129.846 118.574C166.596 134.073 205.171 137.506 228.108 127.31C237.195 123.275 243.107 117.421 245.703 109.908C247.601 104.374 248.078 98.4542 247.089 92.6892C247.074 92.5962 247.077 92.5012 247.098 92.4093C247.119 92.3175 247.159 92.2308 247.214 92.1541C247.269 92.0774 247.338 92.0123 247.418 91.9624C247.499 91.9125 247.588 91.8789 247.681 91.8634C247.775 91.8479 247.87 91.8509 247.962 91.8721C248.055 91.8934 248.142 91.9325 248.219 91.9873C248.296 92.0421 248.361 92.1114 248.411 92.1914C248.461 92.2713 248.495 92.3603 248.51 92.4533C249.544 98.4547 249.049 104.618 247.072 110.38C244.344 118.286 238.16 124.428 228.697 128.63C219.753 132.599 208.49 134.544 195.913 134.544Z" fill="black"/>
<path d="M193.309 95.6214C178.669 95.6214 161.465 92.0745 144.2 84.7883C104.546 68.059 79.3291 37.855 88.0032 17.459C92.3273 7.29015 103.888 1.27943 121.438 0.0740385C121.629 0.0600946 121.818 0.122199 121.962 0.24669C122.107 0.37118 122.196 0.547856 122.21 0.737856C122.224 0.927856 122.162 1.11562 122.037 1.25983C121.912 1.40404 121.735 1.49289 121.544 1.50683C104.563 2.67717 93.4328 8.39124 89.337 18.0267C80.9779 37.6891 105.844 67.0451 144.77 83.4607C183.696 99.8762 222.166 97.2372 230.525 77.5722C234.524 68.1684 230.954 56.0991 220.483 43.5801C220.361 43.433 220.302 43.2437 220.32 43.0538C220.338 42.8639 220.431 42.6889 220.579 42.5671C220.651 42.5055 220.734 42.4587 220.825 42.4296C220.915 42.4005 221.011 42.3896 221.105 42.3976C221.2 42.4055 221.292 42.4322 221.376 42.476C221.46 42.5197 221.535 42.5798 221.596 42.6526C232.428 55.6084 236.077 68.2137 231.858 78.1304C226.963 89.6577 212.289 95.6155 193.309 95.6214Z" fill="black"/>
<path d="M170.091 29.2027C169.381 29.1898 168.681 29.0354 168.032 28.7487C167.285 28.4514 166.618 27.9848 166.084 27.386C165.822 27.1305 165.638 26.8058 165.554 26.4501C165.47 26.0943 165.49 25.7222 165.61 25.377C166.093 24.2417 167.873 23.9707 169.724 24.7564C171.593 25.5429 172.627 26.9928 172.145 28.1375C171.978 28.4611 171.724 28.7317 171.411 28.9186C171.097 29.1055 170.738 29.2013 170.373 29.195L170.091 29.2027ZM166.942 25.9353C166.916 25.9874 166.96 26.1798 167.188 26.4593C167.575 26.8854 168.055 27.2171 168.591 27.4288C169.115 27.6603 169.685 27.7735 170.258 27.7605C170.626 27.7254 170.793 27.6203 170.811 27.5681C170.881 27.4023 170.407 26.6072 169.162 26.0832C167.917 25.5591 167.016 25.7771 166.943 25.9344L166.942 25.9353Z" fill="black"/>
<path d="M49.5417 224.805C49.3909 224.809 49.2431 224.763 49.1211 224.674C48.8527 224.519 48.6333 224.291 48.4876 224.018C48.3419 223.745 48.2756 223.437 48.2963 223.128C48.4894 220.935 53.489 218.512 64.768 213.257C75.7929 208.12 90.8974 201.079 105.544 191.503C131.208 174.721 175.985 139.803 187.449 94.5665C196.124 60.3035 179.152 38.1439 171.696 30.3909C175.766 39.1886 182.291 61.5704 162.644 90.575C139.813 124.27 101.667 148.024 73.8094 165.378C70.4414 167.475 67.1962 169.492 64.1106 171.447C41.4813 185.775 30.6839 193.227 29.4736 199.604C29.114 201.509 29.623 203.3 31.0615 205.257C31.1726 205.411 31.218 205.602 31.1878 205.79C31.1576 205.977 31.0543 206.145 30.9004 206.257C30.7465 206.368 30.5544 206.415 30.3661 206.386C30.1778 206.358 30.0085 206.256 29.8951 206.104C29.1189 205.174 28.5526 204.089 28.2348 202.922C27.917 201.756 27.855 200.534 28.0532 199.342C29.3775 192.37 39.8119 185.119 63.3389 170.224C66.4177 168.276 69.6715 166.249 73.0489 164.154C100.792 146.875 138.788 123.217 161.454 89.7663C186.294 53.101 168.48 27.4253 168.296 27.1629C168.194 27.0221 168.146 26.8493 168.163 26.6764C168.179 26.5035 168.257 26.3423 168.384 26.2228C168.51 26.1032 168.676 26.0334 168.85 26.0263C169.024 26.0191 169.195 26.0752 169.331 26.184C169.638 26.4285 199.995 50.9339 188.846 94.929C177.269 140.628 132.185 175.808 106.337 192.713C91.6098 202.349 76.4538 209.408 65.3843 214.562C57.402 218.283 49.8687 221.795 49.7365 223.255C49.7365 223.34 49.903 223.464 49.9554 223.499C50.1105 223.611 50.2155 223.778 50.2476 223.966C50.2797 224.154 50.2364 224.347 50.127 224.503C50.0606 224.597 49.9729 224.673 49.8711 224.725C49.7692 224.777 49.6563 224.805 49.5417 224.805Z" fill="black"/>
<path d="M103.87 247.965C100.486 248.001 97.1079 247.657 93.801 246.939C93.615 246.895 93.4542 246.779 93.354 246.617C93.2537 246.455 93.2222 246.259 93.2663 246.074C93.2864 245.982 93.3246 245.895 93.3787 245.818C93.4329 245.741 93.5019 245.675 93.5817 245.624C93.6616 245.574 93.7507 245.54 93.8439 245.524C93.9371 245.508 94.0325 245.511 94.1246 245.532C116.426 250.673 161.557 235.053 188.581 206.487C205.649 188.455 243.374 140.555 225.086 85.5261C213.254 49.9003 187.467 35.0398 175.305 29.8421C186.453 37.5301 209.118 57.4661 210.758 93.1619C212.916 140.11 180.954 181.895 150.316 205.351C119.372 229.027 82.4723 241.109 68.6913 237.16C68.5071 237.107 68.3514 236.984 68.2579 236.817C68.1644 236.65 68.1406 236.453 68.1918 236.269C68.2472 236.085 68.3727 235.93 68.5415 235.837C68.7102 235.744 68.9088 235.721 69.0947 235.772C82.5057 239.625 119.712 226.948 149.432 204.208C179.78 180.979 211.452 139.622 209.321 93.2235C207.19 46.8253 168.954 27.5784 168.565 27.3877C168.404 27.3116 168.277 27.1776 168.21 27.0124C168.144 26.8473 168.142 26.6632 168.206 26.4969C168.263 26.328 168.383 26.1875 168.542 26.1046C168.7 26.0216 168.884 26.0026 169.056 26.0515C169.468 26.1473 210.5 37.0326 226.463 85.073C244.988 140.844 206.878 189.251 189.633 207.475C165.188 233.314 128.099 247.965 103.87 247.965Z" fill="black"/>
<path d="M128.201 251.328C128.107 251.329 128.014 251.311 127.927 251.276C127.84 251.24 127.761 251.188 127.694 251.123C127.627 251.057 127.574 250.979 127.538 250.893C127.501 250.806 127.482 250.714 127.482 250.62C127.479 250.429 127.552 250.245 127.685 250.107C127.818 249.97 128.001 249.89 128.192 249.887C128.5 249.887 158.724 249.389 186.564 229.698C255.54 180.932 244.716 113.193 244.593 112.52C233.455 33.2309 169.469 27.5083 168.825 27.4647C168.651 27.4509 168.489 27.3755 168.367 27.2524C168.245 27.1292 168.171 26.9665 168.16 26.7939C168.148 26.6212 168.199 26.4502 168.304 26.3119C168.408 26.1736 168.559 26.0773 168.728 26.0405C169.263 25.9268 222.452 16.0109 248.475 92.3387C248.532 92.5182 248.517 92.7129 248.431 92.8809C248.346 93.0489 248.198 93.1769 248.019 93.2376C247.84 93.2982 247.644 93.2865 247.474 93.2051C247.303 93.1237 247.172 92.979 247.107 92.8021C226.811 33.3019 189.964 26.9928 175.289 26.9928L174.807 27.0014C191.191 30.5397 236.74 46.256 246.02 112.293C246.134 112.957 257.142 181.562 187.403 230.866C159.164 250.827 128.513 251.326 128.207 251.326L128.201 251.328Z" fill="black"/>
<path d="M215.674 38.1319C215.482 38.1301 215.298 38.0552 215.159 37.9225C188.981 12.0373 170.128 26.6704 169.34 27.3082C169.215 27.4063 169.062 27.4612 168.904 27.4642C168.745 27.4673 168.59 27.4185 168.462 27.3253C168.332 27.2339 168.236 27.1019 168.189 26.95C168.142 26.7981 168.148 26.635 168.205 26.4866C168.345 26.1199 171.724 17.5325 178.581 15.0508C181.853 13.8625 185.344 14.2737 188.957 16.2741C189.04 16.32 189.113 16.3818 189.172 16.4558C189.231 16.5299 189.275 16.6148 189.301 16.7056C189.327 16.7965 189.335 16.8917 189.324 16.9856C189.313 17.0795 189.284 17.1703 189.238 17.253C189.192 17.3356 189.13 17.4084 189.055 17.4671C188.981 17.5259 188.896 17.5695 188.804 17.5955C188.713 17.6214 188.618 17.6292 188.523 17.6184C188.429 17.6076 188.338 17.5784 188.255 17.5325C185.028 15.7501 181.94 15.3662 179.081 16.3972C174.879 17.9172 172.037 22.1634 170.608 24.7922C176.573 21.5248 194.158 15.132 216.184 36.9009C216.319 37.0353 216.394 37.2175 216.394 37.4074C216.394 37.5973 216.319 37.7794 216.184 37.9139C216.119 37.9833 216.04 38.0385 215.952 38.076C215.864 38.1136 215.77 38.1326 215.674 38.1319Z" fill="black"/>
<path d="M168.881 27.4647C168.738 27.4642 168.599 27.4217 168.48 27.3424C168.362 27.2632 168.269 27.1507 168.214 27.0193C167.25 24.7111 163.18 14.5704 163.653 9.47697C160.803 6.77723 156.777 4.9076 151.646 3.89455C151.55 3.87877 151.46 3.8441 151.378 3.79262C151.297 3.74113 151.226 3.67388 151.172 3.59485C151.117 3.51582 151.078 3.42662 151.059 3.33254C151.039 3.23847 151.039 3.14144 151.058 3.04721C151.076 2.95298 151.114 2.86348 151.168 2.78401C151.223 2.70454 151.292 2.63673 151.373 2.5846C151.454 2.53247 151.545 2.49707 151.64 2.48052C151.735 2.46398 151.832 2.46661 151.926 2.48827C156.99 3.48421 161.04 5.28375 164.039 7.87833C164.143 7.6318 164.288 7.40439 164.468 7.20554C164.843 6.82987 165.325 6.57684 165.848 6.48004C166.371 6.38323 166.911 6.44723 167.397 6.66354C167.581 6.72022 167.735 6.84731 167.824 7.01685C167.914 7.18639 167.933 7.3845 167.876 7.56758C167.819 7.75067 167.691 7.90373 167.521 7.99311C167.351 8.08249 167.152 8.10087 166.968 8.04418C165.951 7.72958 165.635 8.07068 165.538 8.17498C165.354 8.39532 165.225 8.65568 165.161 8.93498C166.034 9.82537 166.805 10.8097 167.46 11.8698C171.766 18.8235 169.67 26.6081 169.574 26.9312C169.535 27.0765 169.452 27.2061 169.336 27.3016C169.219 27.3972 169.076 27.4539 168.925 27.4638L168.881 27.4647ZM165.048 10.9705C165.276 14.3165 166.952 19.7331 168.591 24.0656C169.071 20.0924 168.24 16.0715 166.223 12.6101C165.87 12.0369 165.478 11.489 165.048 10.9705Z" fill="black"/>
<path d="M233.646 60.8634C233.531 60.8631 233.417 60.8351 233.315 60.7818C233.213 60.7286 233.125 60.6516 233.058 60.5574C222.016 45.0249 169.188 27.6049 168.652 27.4296C168.483 27.3719 168.341 27.255 168.252 27.1007C168.164 26.9464 168.134 26.7652 168.17 26.591C168.206 26.4168 168.306 26.2624 168.45 26.1575C168.594 26.0526 168.772 26.0048 168.95 26.0233C170.652 26.1943 210.7 30.3653 218.173 38.9321C218.286 39.0783 218.338 39.2621 218.319 39.4456C218.301 39.6291 218.212 39.7985 218.072 39.9189C217.931 40.0393 217.75 40.1016 217.565 40.093C217.38 40.0843 217.205 40.0054 217.077 39.8725C211.761 33.7746 187.527 29.8609 175.546 28.2708C190.202 33.4856 225.173 46.9664 234.242 59.7213C234.319 59.8296 234.364 59.9568 234.373 60.089C234.382 60.2212 234.354 60.3533 234.292 60.4707C234.23 60.5882 234.137 60.6864 234.023 60.7546C233.909 60.8228 233.779 60.8584 233.646 60.8574L233.646 60.8634Z" fill="black"/>
<path d="M168.881 27.4647C168.731 27.4636 168.585 27.4171 168.463 27.3312C168.34 27.2454 168.246 27.1243 168.195 26.9842C168.14 26.8273 168.141 26.6563 168.199 26.5004C168.256 26.3445 168.367 26.2133 168.51 26.1293C171.642 24.2682 179.72 18.6166 179.51 14.7636C179.448 13.6018 178.606 12.6666 176.922 11.898C176.747 11.8178 176.612 11.6717 176.545 11.4919C176.478 11.3121 176.486 11.1133 176.567 10.9393C176.648 10.7652 176.794 10.6302 176.975 10.564C177.155 10.4977 177.355 10.5055 177.53 10.5858C179.713 11.5817 180.862 12.9624 180.963 14.6832C181.173 18.5798 175.657 23.0526 172.086 25.5335L197.417 21.707C197.604 21.6835 197.793 21.7337 197.944 21.8469C198.094 21.9601 198.194 22.1273 198.223 22.313C198.251 22.4986 198.206 22.6881 198.096 22.8409C197.987 22.9937 197.822 23.0979 197.636 23.1313L168.99 27.4553L168.881 27.4647Z" fill="black"/>
<path d="M13.2826 179.456C13.1362 179.456 12.9934 179.411 12.8729 179.328C12.7523 179.246 12.6597 179.129 12.6071 178.993L12.4406 178.574C10.5987 173.848 6.28311 162.796 31.1757 144.704C41.6925 137.06 54.9456 129.346 68.9789 121.186C89.0555 109.506 111.808 96.2703 134.174 79.04C165.741 54.727 168.276 34.5209 168.268 28.6153C165.75 31.5946 160.8 36.8359 145.884 47.0484C132.587 56.1513 110.835 65.9013 87.8109 76.2274C71.2508 83.6445 54.1302 91.3239 38.0876 99.5967C0.205456 119.139 2.84559 139.293 2.88078 139.494C2.90987 139.683 2.86247 139.876 2.749 140.03C2.63553 140.184 2.46529 140.287 2.27569 140.316C2.18209 140.333 2.08591 140.332 1.993 140.311C1.90009 140.29 1.8124 140.251 1.73524 140.195C1.65809 140.139 1.59309 140.069 1.5442 139.988C1.49531 139.906 1.46354 139.816 1.45085 139.722C1.31094 138.867 -1.48712 118.388 37.4301 98.3126C53.4985 90.0202 70.6371 82.3433 87.2118 74.9084C110.184 64.6172 131.875 54.8937 145.057 45.861C161.424 34.6525 165.634 29.5506 167.888 26.8072L168.327 26.2832C168.414 26.1781 168.53 26.1002 168.661 26.0585C168.792 26.0169 168.932 26.0133 169.064 26.0481C169.197 26.083 169.317 26.1548 169.41 26.2552C169.503 26.3556 169.565 26.4804 169.589 26.6149C169.761 27.5843 173.317 50.7176 135.058 80.1847C112.613 97.4646 89.8168 110.726 69.705 122.424C55.706 130.566 42.4795 138.262 32.0254 145.863C8.03663 163.309 12.0707 173.635 13.7907 178.047L13.9572 178.475C14.0259 178.653 14.0211 178.851 13.944 179.026C13.8669 179.202 13.7236 179.339 13.5452 179.41C13.4604 179.438 13.3719 179.453 13.2826 179.456Z" fill="black"/>
<path d="M4.94072 96.8208L4.81798 96.8123C4.62905 96.7796 4.46061 96.6742 4.34901 96.5189C4.23741 96.3636 4.19159 96.1708 4.22146 95.9822C4.37939 95.0469 8.55418 72.9541 56.7772 58.5304C78.0563 52.1709 100.352 45.9678 120.026 40.4991C140.734 34.7508 157.777 30.0156 165.363 27.3509C152.839 27.198 140.316 27.6776 127.841 28.788C123.175 29.1727 118.167 29.4873 112.861 29.819C79.0571 31.9502 36.9821 34.6064 21.615 58.945C21.5643 59.0253 21.4982 59.0949 21.4204 59.1498C21.3427 59.2047 21.2549 59.2438 21.162 59.2649C21.0691 59.2859 20.973 59.2886 20.8791 59.2727C20.7852 59.2567 20.6953 59.2225 20.6146 59.172C20.534 59.1215 20.4641 59.0556 20.409 58.9782C20.3539 58.9008 20.3147 58.8133 20.2935 58.7208C20.2724 58.6283 20.2697 58.5325 20.2857 58.439C20.3017 58.3454 20.3361 58.256 20.3868 58.1756C36.1487 33.2078 78.6357 30.5345 112.772 28.3853C118.07 28.0536 123.072 27.739 127.726 27.3458C153.54 25.2146 168.766 26.0182 168.925 26.0267C169.085 26.0353 169.237 26.0966 169.357 26.201C169.478 26.3053 169.56 26.4468 169.591 26.6029C169.623 26.7602 169.601 26.9236 169.53 27.0674C169.458 27.2112 169.341 27.3274 169.196 27.3979C164.469 29.6514 145.032 35.0509 120.412 41.8909C100.747 47.3621 78.4597 53.5532 57.19 59.9136C9.95751 74.0483 5.68659 96.0027 5.6514 96.2207C5.62163 96.3875 5.53434 96.5387 5.4046 96.6483C5.27486 96.7578 5.1108 96.8189 4.94072 96.8208Z" fill="black"/>
<path d="M168.885 27.4646L168.735 27.4475C135.317 20.5281 115.872 17.4274 89.4803 17.4274H89.1121C62.6849 17.4539 52.8264 25.6395 52.7294 25.7198C52.5852 25.8448 52.397 25.9077 52.2063 25.8946C52.0156 25.8814 51.8379 25.7933 51.7123 25.6497C51.5856 25.5041 51.5219 25.3145 51.5351 25.1223C51.5483 24.9301 51.6373 24.7509 51.7827 24.6239C52.1947 24.2742 62.0626 16.0186 89.1121 15.9835H89.4889C114.092 15.9835 132.662 18.6653 161.991 24.5973C145.642 17.8531 103.417 1.77868 86.7089 8.04245C86.6203 8.07638 86.5258 8.09245 86.4309 8.08973C86.336 8.087 86.2427 8.06552 86.1562 8.02655C86.0697 7.98758 85.9918 7.93189 85.9271 7.86271C85.8625 7.79352 85.8122 7.71224 85.7793 7.62355C85.7439 7.53539 85.7268 7.44101 85.7289 7.34608C85.7311 7.25115 85.7525 7.15763 85.7919 7.07115C85.8312 6.98467 85.8878 6.90701 85.958 6.84283C86.0283 6.77866 86.1108 6.7293 86.2008 6.69771C107.558 -1.33054 166.675 24.9564 169.183 26.0832C169.345 26.1574 169.474 26.2883 169.545 26.451C169.616 26.6137 169.625 26.7968 169.57 26.9654C169.524 27.1107 169.433 27.2377 169.31 27.3275C169.187 27.4174 169.037 27.4655 168.885 27.4646Z" fill="black"/>
<path d="M168.881 27.4647C168.729 27.4665 168.58 27.4171 168.46 27.3245C168.1 27.068 132.578 1.77099 118.736 1.77099C118.664 1.7797 118.59 1.7797 118.518 1.77099C118.326 1.77337 118.141 1.69973 118.003 1.56626C117.866 1.43279 117.787 1.25043 117.785 1.0593C117.783 0.868165 117.857 0.683914 117.991 0.547078C118.125 0.410243 118.308 0.332033 118.5 0.329652C118.798 0.321103 119.105 0.329649 119.421 0.346747C119.7 0.172573 120.033 0.104302 120.359 0.154398C162.995 0.154398 169.521 26.3191 169.582 26.5816C169.615 26.7234 169.604 26.8719 169.551 27.0076C169.498 27.1432 169.405 27.2597 169.284 27.3415C169.164 27.42 169.024 27.4628 168.881 27.4647ZM126.178 1.77185C140.246 6.34123 161.111 20.4409 167.455 24.8615C165.083 19.1842 155.883 3.58849 126.178 1.77185Z" fill="black"/>
<path d="M168.88 27.4637C168.775 27.4624 168.672 27.4388 168.576 27.3946C168.481 27.3504 168.396 27.2865 168.328 27.2073C160.276 17.8035 146.426 2.79853 143.532 2.51898C143.342 2.50142 143.168 2.40962 143.046 2.26375C142.924 2.11788 142.866 1.92987 142.883 1.74103C142.908 1.55279 143.003 1.3807 143.149 1.25926C143.295 1.13782 143.483 1.07599 143.673 1.08618C148.103 1.50593 167.258 23.7407 169.433 26.2729C169.556 26.4187 169.617 26.6072 169.6 26.7971C169.584 26.987 169.493 27.1628 169.347 27.2859C169.218 27.3994 169.052 27.4625 168.88 27.4637Z" fill="black"/>
<path d="M46.9633 222.753C46.8046 222.753 46.6503 222.701 46.5247 222.604C46.2793 222.412 22.045 203.525 13.589 162.857C4.93213 121.186 14.4473 95.441 24.9478 72.6395C34.9385 50.9253 58.5934 24.9923 88.9061 16.0202C117.316 7.60727 142.006 9.83511 164.153 22.8593C156.604 15.9818 147.522 10.9903 137.655 8.29631C118.569 3.21229 88.4744 3.98938 61.2069 21.453C42.1525 33.6574 34.7711 42.4021 28.3063 51.0159C21.6399 59.8922 13.9915 71.0827 7.55426 91.5427C1.01998 112.309 2.8001 137.766 2.81813 138.019C2.82454 138.113 2.81215 138.208 2.78167 138.298C2.75118 138.388 2.7032 138.471 2.64047 138.543C2.57774 138.614 2.50148 138.673 2.41606 138.715C2.33064 138.757 2.23773 138.782 2.14264 138.788C1.95257 138.799 1.76581 138.735 1.62172 138.611C1.47762 138.487 1.38744 138.313 1.37017 138.124C1.35214 137.861 -0.445149 112.135 6.16809 91.1144C12.6766 70.4364 20.416 59.1228 27.1485 50.1508C33.6914 41.4232 41.1646 32.5734 60.4258 20.2382C88.0899 2.53009 118.648 1.73504 138.032 6.90199C150.198 10.1867 161.139 16.93 169.52 26.3079C169.627 26.4428 169.682 26.6114 169.675 26.7831C169.668 26.9548 169.599 27.1183 169.481 27.244C169.364 27.3697 169.205 27.4492 169.033 27.4682C168.862 27.4872 168.689 27.4444 168.547 27.3475C145.452 11.7099 119.542 8.45959 89.3172 17.406C59.4345 26.2472 36.1118 51.8178 26.2533 73.2387C15.8678 95.8214 6.43932 121.323 15.0095 162.566C23.3419 202.682 47.1642 221.281 47.4011 221.468C47.4764 221.525 47.5396 221.596 47.587 221.678C47.6344 221.759 47.6651 221.849 47.6773 221.943C47.6895 222.036 47.683 222.131 47.6581 222.222C47.6333 222.313 47.5905 222.398 47.5324 222.472C47.4648 222.559 47.3785 222.629 47.28 222.677C47.1815 222.726 47.0732 222.752 46.9633 222.753Z" fill="black"/>
<path d="M93.4766 246.821C93.3339 246.823 93.1939 246.783 93.0732 246.707C92.7221 246.471 84.2327 240.575 72.5048 210.417C61.6378 182.479 54.4718 124.105 72.5837 81.8124C89.9326 41.2907 124.447 19.5236 161.9 24.7127C148.761 20.2314 118.317 13.3641 87.8461 31.6493C46.1394 56.6607 31.8168 106.745 32.3249 145.28C32.8159 183.265 49.0619 222.385 70.1024 236.285C70.1813 236.337 70.2491 236.404 70.3019 236.482C70.3547 236.561 70.3916 236.649 70.4103 236.741C70.429 236.834 70.4293 236.929 70.4111 237.021C70.3928 237.114 70.3565 237.202 70.3041 237.281C70.2517 237.359 70.1842 237.427 70.1056 237.479C70.027 237.532 69.9387 237.569 69.8459 237.587C69.753 237.606 69.6574 237.606 69.5644 237.588C69.4715 237.57 69.383 237.534 69.3042 237.482C47.9032 223.347 31.3782 183.709 30.8778 145.298C30.3689 106.37 44.8682 55.7435 87.0968 30.4088C128.014 5.86929 168.869 25.901 169.282 26.1019C169.439 26.183 169.561 26.3179 169.625 26.4817C169.69 26.6455 169.693 26.8271 169.633 26.9927C169.573 27.1581 169.454 27.2958 169.299 27.3795C169.144 27.4632 168.963 27.4871 168.791 27.4467C129.33 18.396 92.0793 39.9477 73.9055 82.3792C55.9627 124.293 63.0669 182.182 73.8515 209.893C85.3527 239.473 93.7967 245.449 93.8757 245.511C94.0054 245.595 94.104 245.72 94.1566 245.865C94.2093 246.01 94.2132 246.169 94.1677 246.317C94.1222 246.464 94.0298 246.593 93.9044 246.684C93.7791 246.775 93.6274 246.823 93.4723 246.821H93.4766Z" fill="black"/>
<path d="M116.975 250.944C116.823 250.944 116.671 250.935 116.52 250.918C116.329 250.896 116.155 250.8 116.035 250.652C115.915 250.503 115.859 250.313 115.879 250.123C115.889 250.028 115.917 249.937 115.962 249.853C116.008 249.77 116.069 249.696 116.144 249.637C116.218 249.577 116.304 249.533 116.395 249.507C116.487 249.481 116.583 249.474 116.677 249.485C116.897 249.545 117.13 249.545 117.349 249.483C117.569 249.421 117.767 249.301 117.923 249.135C119.703 247.056 117.028 237.289 113.318 223.774C110.976 215.213 108.056 204.563 105.231 192.272C92.8904 138.414 94.7932 96.5849 111.046 64.3916C131.43 23.9955 168.638 25.996 169.005 26.031C169.17 26.0398 169.327 26.1057 169.449 26.2172C169.57 26.3288 169.649 26.4791 169.672 26.6423C169.696 26.8065 169.662 26.9739 169.578 27.1169C169.493 27.2598 169.362 27.3698 169.207 27.4288C142.104 37.3181 130.693 68.8293 135.289 121.08C136.648 136.43 141.885 162.489 146.507 185.474C150.848 207.036 154.594 225.661 154.747 232.938C155.063 248.558 145.88 249.895 145.493 249.95C145.304 249.968 145.114 249.913 144.964 249.796C144.814 249.679 144.714 249.509 144.687 249.321C144.662 249.132 144.714 248.941 144.831 248.791C144.948 248.64 145.12 248.542 145.31 248.517C145.643 248.474 153.59 247.225 153.3 232.967C153.151 225.821 149.239 206.357 145.091 185.757C140.456 162.737 135.214 136.642 133.855 121.205C129.399 70.5792 139.915 39.1023 165.106 27.5536C155.236 28.2375 128.457 33.1103 112.34 65.0404C96.2446 96.9277 94.3856 138.441 106.647 191.95C109.463 204.216 112.375 214.848 114.715 223.401C118.961 238.89 121.302 247.416 119.022 250.073C118.77 250.363 118.454 250.593 118.1 250.744C117.745 250.895 117.36 250.963 116.975 250.944Z" fill="black"/>
<path d="M178.205 240.346C178.043 240.348 177.885 240.296 177.757 240.197C177.628 240.099 177.537 239.96 177.497 239.804C177.458 239.648 177.472 239.482 177.538 239.335C177.604 239.188 177.718 239.067 177.862 238.992C196.132 229.332 187.352 194.91 181.546 172.125C179.502 164.132 177.625 157.658 175.818 151.394C171.739 137.32 167.521 122.766 161.337 90.3023C152.46 43.7109 167.774 26.9388 168.424 26.249C168.53 26.1396 168.668 26.0663 168.818 26.0394C168.969 26.0125 169.124 26.0334 169.261 26.0991C169.399 26.1648 169.513 26.272 169.586 26.4056C169.659 26.5391 169.688 26.6922 169.669 26.8431C169.661 26.9046 168.923 33.6053 175.634 57.6122C179.484 71.3802 186.992 89.7611 194.939 109.217C203.227 129.511 211.796 150.495 217.296 168.754C228.102 204.677 212.849 217.676 212.19 218.217C212.041 218.336 211.851 218.391 211.662 218.371C211.472 218.35 211.298 218.257 211.177 218.11C211.056 217.963 210.998 217.775 211.015 217.586C211.033 217.397 211.124 217.222 211.27 217.099C211.427 216.977 226.417 204.091 215.91 169.173C210.428 150.975 201.876 130.026 193.594 109.758C185.638 90.2587 178.112 71.8427 174.245 58.0046C169.455 40.8821 168.403 32.4948 168.219 28.9136C164.719 34.1644 155.553 52.2521 162.755 90.0313C168.929 122.432 172.947 136.306 177.201 151.001C179.016 157.265 180.892 163.747 182.937 171.767C188.866 194.988 197.813 230.071 178.542 240.268C178.437 240.318 178.322 240.345 178.205 240.346Z" fill="black"/>
<path d="M238.058 183.946C237.929 183.949 237.801 183.917 237.688 183.854C237.575 183.791 237.482 183.698 237.418 183.586C237.354 183.474 237.322 183.347 237.325 183.218C237.328 183.089 237.366 182.963 237.435 182.854C250.987 160.385 226.322 120.731 209.999 94.4973L209.42 93.5714C192.834 66.8989 168.582 27.5176 168.336 27.1244C168.247 26.9771 168.213 26.8029 168.241 26.633C168.269 26.4632 168.358 26.309 168.49 26.1982C168.622 26.0875 168.79 26.0275 168.963 26.0291C169.136 26.0308 169.302 26.0939 169.432 26.2071C169.73 26.4695 199.377 52.8352 226.322 84.8353C248.969 111.716 253.073 126.096 252.258 139.419C252.257 139.515 252.236 139.609 252.196 139.696C252.156 139.783 252.098 139.861 252.026 139.924C251.954 139.988 251.87 140.035 251.778 140.064C251.687 140.093 251.59 140.103 251.495 140.092C251.4 140.086 251.308 140.062 251.223 140.021C251.137 139.98 251.061 139.922 250.998 139.852C250.936 139.781 250.887 139.699 250.857 139.61C250.826 139.52 250.813 139.426 250.819 139.332C251.609 126.35 247.558 112.276 225.217 85.762C203.991 60.5582 181.09 38.8663 172.248 30.7243C179.038 41.7404 197.325 71.3819 210.648 92.8123L211.227 93.7381C227.734 120.278 252.683 160.377 238.68 183.606C238.614 183.711 238.522 183.796 238.413 183.856C238.304 183.915 238.182 183.946 238.058 183.946Z" fill="black"/>
<path d="M248.162 94.6717C247.999 94.6702 247.841 94.6143 247.714 94.513C247.587 94.4116 247.497 94.2706 247.46 94.1126C247.443 94.0271 245.302 85.4902 232.207 72.4206C219.138 59.3597 185.063 36.4299 168.468 27.333C168.384 27.2873 168.311 27.2257 168.252 27.1517C168.193 27.0777 168.149 26.9928 168.123 26.9018C168.097 26.8108 168.089 26.7155 168.1 26.6216C168.111 26.5276 168.14 26.4367 168.187 26.3542C168.281 26.1883 168.437 26.066 168.621 26.0137C168.805 25.9614 169.002 25.9832 169.17 26.0746C183.756 34.0678 219.165 57.3498 233.234 71.3973C246.662 84.8071 248.784 93.421 248.872 93.7877C248.893 93.8795 248.896 93.9745 248.88 94.0673C248.864 94.1601 248.83 94.2489 248.779 94.3284C248.729 94.4079 248.663 94.4767 248.585 94.5306C248.508 94.5845 248.42 94.6226 248.328 94.6426L248.162 94.6717Z" fill="black"/>
</svg>
